<svg xmlns="http://www.w3.org/2000/svg" xml:space="preserve" fill-rule="evenodd" stroke-linejoin="round" stroke-miterlimit="2" clip-rule="evenodd" viewBox="0 0 1435 587">
    <path fill="black" d="m415.4 531-95 55.2-5.9-2.2 9.1-34.2-46.9 24.7-34-26.6-17.7 5.2 1 26.2-18-2.6-75.4-70.6 12-14.3-5.3-10.9 8.2-72.7-11 3.3-7.7 25.2-13.4 2.9L101 431l-1.9-19.5-19.6-8-3.9-16.2-15.8-4.3-3.8-13.3-18.2-9-6.7 2.3-8.1-3.3L6.2 357 .5 345 0 326.6l10-8.1 14.4-.5 13.9-2.4 16.3-7.6 5.7-15.7h15.3l6.3-22.8 15.3-5.7 1.9-19.5 12.4-11.4 14.9 2 7.2 27 8.6-2.3 9.4 10v-55.7l74.4-56.5 1.4-42.8 1.4-6.6-3.8-9-1.4-62.8L282.5 0 360 31.4l-1.4 65.5-4.3 9.5.5 48.5 72.4 55.1 4.1 74.8 20.6-81-18.8-33-30-38.2 10.5-18 140.3 8.2 33 30 24-7.5 9.7 4.5 62.3-7.5 10.5 7.5 58.5-9.7 12-11.3 114-3.7 32.2 30 82.5-9.8 6 7.5 42-8.2 6.8 6.7 39-11.2 8.2 9 72-14.3 8.3 15 55.5-3.7 48.7 36-15 75.7-12.7 9 17.2 37.5 12.8-9.8.8-28.9 17-3.8 12.5-28 17.7 2.4 6.3 24.7 14.3 1.9 6.7 29.4h8.2l14.3 14.8 16.8 8 15.3 3.4 16.3 2.4 7.2 18-5.3 16.2-20.1 5.7-16.3 1-13.9 6.1-1.9 12.8-20.6 6.2-1.9 14.7-19.1 9-12.5 30h-11.9l-13.5-30.9-10-.1-4.2-20.7-9 7-44.2-27-30.8 53.3 9.5 5.6-5.7 12.4 12 12.7-171.8 91.5-15-14.2 14.3-31.5-69 10.5-10.5-7.5 1.5-9-22.5-7.5-13.5 9.7-136.5 16.5-37.5 29.3-16.5-6-9.8-24.8-19.5-10.5-75 22.5 14.3 39-15 12-105-60-96 34.5z"/>
    <path style="fill: currentColor" d="m1318 248.7 2 .7c2.3 19.5 2.2 41.3 2.7 61 0 4 1.4 8.5 1.5 13.9.3 13.7-.5 26.7-1.1 40.3-.5.5-.3.5-.8.7-2.2-11.9-2.5-23-4.2-34.4l-.8.2c-.8 7.5-.1 14.3.3 21.8l.7 15.6 1.4-8c2 10.8.5 30.5 0 42l-.6 21.5h-5.9c0-10.2-1.1-20.2-1.5-30.3l-.7-30-.7-12.3c-.3-8 .6-15.8 0-23.6-.5-7.5-.2-15-.3-22.6 0-2.7.5-6 .8-8.7.7-7-.5-17.4.9-24.1.6.5.6 1.1 1 2 1-1.2.2-8.4.8-9.5 3.6-6.9-1.2-9.5 4.5-16.2m21.4 26.8c.4 1.5 1.7 13 2 15.3.6 0 .3-.1.7.1.8 5.2 0 11 .7 16q1.5 13.5 1.8 27.1c0 2.4-.5 5.2-.5 7.6a296 296 0 0 1-2.5 32.7c-.8 7.4-.3 14.4-1.8 21.9q-1-2.5-1.4-5c-.2-.7-1-1.5-1.5-2l-1 .4-.6-.4c-2.8-5.6-4.5-77.6-2.8-85.6l.7.8.2.3c.5-1.6.3-2.8.4-4.5.5-4.3.4-7.6 1.7-11.8v.2c1.2-3 3-11.4 3.9-13.1m-45.4.8c1.6 1.1 2.6 10 3.7 12 .6-.4.3-.4.9-.3 1 4 .8 16.7 1.7 18.5l.9-1.1c.6 1.5 1.6 26.1 1.2 29.4-1.5 12.9-.8 28.5-2.7 41l-.7-6q-1.3 9-2.4 18.3c-.4 2-.3 4-.7 6l-2.4.6c-.4-1.4-.2-4.3-.4-6a637 637 0 0 1-2.2-42.4c-.1-4.6-1.3-9-1-13.9.2-3.5.1-6.8.8-10.2.5-8.8.2-17.7.6-26.4 0-2.5 1-5.2 1.3-7.7zm67.8 29.4c.6 1 1 7.2 1 9 .7 6.8 2 13.2 1.8 20.2-.3 13-1.8 25.8-2.6 38.7l-3.2-2.8-.7-3.2c-.6-2.2-1.5-9-2.4-10l-.6 1.3a7 7 0 0 1-1.2-2.8l-1.3-20.8c0-3.1.7-21.3 1.5-22.4l.8.2c2-1.4 1.3-5.6 3-6.9l1.3.6q1.4-.2 2.6-1.1m-83.2 4.8c3 4 3.7 11.4 4.4 12.2.7-.4.5-.4 1-.4 1 3.6 1.5 24-.6 26.2l-.7-1c-1 1-2.5 10-3 12.2l-.3 1c-1 .2-.9-.7-1.9-1.2-.9-.3 0 .8-1.3.1-1.3-4.2-1.5-13-2-17.7s.3-10.3 0-15c.2-1-.4-8.3 0-8.8 1.3-2.1 3.2-4.7 4.4-7.6m98.8 11.7c.3.3 2.3 3 2.5 3 1.3.5 1.6-.2 2.8 1 1.3 5 .2 14.2.2 19.5 0 7.3-2 2.5-4.9 8.2l-.3.3q-.9 0-1.2-.9c-.7-1.3-1.8-1.2-2.8-2.3-.9-4.6-.3-13.3 0-18v-7.7zm14.6 7.9q4.2.2 8.3.1c0 5.7.3 11-.1 16.8-4-1.6-3.8-1.5-8.3-1.2 0-4.1 0-11.8.2-15.7m17.3 2.3h8c-.2 2.6.4 8.2-.5 10.7-.2.3-1 .2-1.4.2-1.2 0-3.5-.2-4.6 0-.4.1-.5 1.1-.7 1.6l-.5.2a45 45 0 0 1-.3-12.7"/>
    <path fill="#fefefe" d="m960.3 356.1 1-.8-1 1zm0 0c-10.9 8.2-15.3 8.2-25.3 15.3l4-12.3-4.8-6c-10.7 0-13.5 3-22.3 9l-2.6 9.8c10.3 9.3 28.7 21.9 39 32 .6.7.3 1.2 0 2q-1.4.4-2.7 1c0 1.8-.6 11-.5 11.2l2.8-1 .4.7c-1 4.1-6.9 9.8-8.5 15l2 .7c-4.5 8.7-21.4 21-30.2 25.7-2.2 1.1-15.8 3.5-19 4.2 1.7-1.4 4-3 5.9-4.3-12.8 3.5-25 7.8-38.3 11.3 3.1-2.1 8.8-5.8 11.2-8.4l-.1-.6-3.2.7q-18.4 5-37 9.4c7-4.3 17.2-12.5 23.6-17.8l-8.6 1.1c4.4-3.3 9.8-7.8 13.7-11.8l-.1-.5-6.1.4c4-2.5 19.5-14.2 22.3-14.8l-1 2 .5.4c3.3-1.3 7.5-4.6 10.4-6.8-1.3 2.2-4.8 6.9-4.7 8.7l4 1a7 7 0 0 1-.9 2.8l1.4.5a71 71 0 0 0 27-13l2.7-9.5c-11.7-11.3-24.7-20.2-36.9-32 .8-2.3 3-8.5 2.3-10.3l-1.5.5c-.8-3 7-16.6 7.4-20.6 0-.5 2.5-2.5 3-3l12 11.2c-1.8-5.6-3.3-10.3-5.4-15.7 5.4-3.7 19-12.8 24.5-14.5 7.3-2.1 18.7-4.3 26.6-6.2h.1c-.3 1.4-3.2 3-4.5 4.1 11.2 1.5 10.5.9 21.4-4.2-2.4 4.3-8 14.1-3 18.4 1-1 1.5-1.8 2.6-2.6 0 3-2.9 11.4-3.6 16.8m-480.3-34h61.4c4.4 4.2 13.3 13.2 17.6 16 1.8-.7-.4-1.8 1-4 3.2 2 15.5 13.5 19.1 16.8l-11 41.5q-16.9 9.9-33.6 20.1c10.9 16.5 22.5 33.4 32.7 50.3l-7.4-5.5c2.3 5 10.7 18.6 14.3 22.3l.4-.8h.6c2 2.9 4.4 6.2 5.6 9.3-1-.4-1.3-.6-2.3-.6.8 2.3 14.7 25.7 16.8 29.3-8.8-8.5-20.4-18.2-29.7-26.5l3.1 9.3a353 353 0 0 0-13.5-15.5c-4.7-5.4-21.7-29.9-24.7-32l.3 3.8-.5.1c-6.6-8.3-17.3-25.3-23.7-34.6-5.3 18.5-11 42-15.7 61-2.6 1.3-5.4 3.6-7.8 5.4l2.4-12.2a80 80 0 0 1-15.6 17.3l.1-.2c-4.3 2.6-6 4.7-9.2 8.5 4.3-20.8 10-42.6 15.1-63.2q10.7-44.7 22-89.2l-8.6-10c3.4.2 7.3.6 10.8 1q-10-9-20-17.7m42 28.5q1 1.2.8 2.7c-2.4 13-7 26.7-9.8 39.6 2-1 5-2.7 7-2.5v2.2c1.8-.2 9.8-5.7 11.8-7 4.2-2.3 9-5 12.9-7.5 2-7 4-14.7 6.1-21.7l-5.1-4.9c-7.3-.3-16.6-1-23.6-1m551.5-21q16.1-.4 32.2-.4 10.7 10.4 20.2 21.8c0 5.3 1.2 19.8.2 24-3.8 17.5-10.6 37.3-15 54.8-9 8.3-17.5 16.9-26.8 25.2l-12.2 1.9 5.6-4.9a331 331 0 0 1-30.5 9h-1l-.2-.5 4.7-3.4c-10 3.4-20.9 6-31.1 8.3 3-3.5 8.3-7 10.8-10.8l-.4-.6-4-.2c1.3-2 5-3.8 7-5.3 4-3.3 1.8-1.8.5-5 .7-2.3 3.5-3.9 5.5-5.3 6.5-29 14.2-57.9 20.8-87-1.5-2.5-3.8-6-4.7-8.7l2.4-.7c-1-2.6-7-9.5-9.2-12zm8.8 25.3q-9.8 38.4-18.8 76.9c4.3-1 12.6-2.7 15.9-5 12.7-9.7 14.3-15.6 18.5-30.4a91 91 0 0 0 4.7-32l-7.8-9.2zm-66-26.7c1.6-.3 9.3.7 11.4.9q9.5 10.5 18.3 21.4c-5.6 26.5-13.7 58.2-20.7 84.4-9.7 8.8-20.6 17-31 25-3.8.3-12.4 2.2-13.8 1.7l1.4-2.2.8-.7-.3-.7c-8.3 1.1-6.8-1.9-11.7-2.7l.3 1.6-1.3.2c-5.6-1.7-14.2-16-18.2-21.1 7.3-26.8 13.6-56.8 20.8-84.4 8.5-7.1 17.9-14.3 26.6-21.3 4.7-.4 9.7-1 14.4-.9 1 0 1.9-.7 3-1.2m-9.1 26.7c-5.7 0-9.7 4.4-13.9 8.4-5.9 20.8-10.6 40.9-15.6 61.9l5.6 7.8h8.3c4-.2 10.5-7.2 13.7-10 5-20.4 10.4-41 15.1-61.4l-5.3-6.9zm-258.6-29.7 1 .5c-.4 1-.6 1.4-.6 2.5 1.8.2 11-2.2 15.2-2.5-.2 23.6-2.5 51.9-3.4 76l11.9-1c-4.8 3.7-7.4 4.2-7 8.7.2.9-2.7 3.2-2.7 7.2 1 2.3 3.2 3.4 5.4 4.7l-8.2 2.7-2.5 57c-1.3-2.8-4.5-12.8-5.9-14.1l-.6.2-.6 4.2c-2-6.6-2.7-14-4.7-21-.6 5.3-1.2 12.1-2.3 17.2l-3.8-5.2c-1.3.2-1.1.6-2.2 2-1.9.6-2.5.9-4 2.2l-.7-.3c.8-12.4 1.4-23.3 1.5-35.8-10.8.4-22 3.4-32.5 5.7l-4 7.9-10.4 21.1-7.3 3.2 2.7-7c-4.5 3-6.6 4.5-10.6 8.1q2.2-7 4.9-13.7c-10.3 16.7-11.2 12.7-24.8 23.5q10.5-21.2 21.4-42.1l-6.8.3c1.8-1.5 7.5-6.2 8.6-7.9l-2.9-.3c.6-1.6 6.5-8 8-9.6v-.8l-2.6-.3c1.6-3.2 5.5-2.8 9-9.4 2.9-5.5 5.6-12.2 8.4-17.5a2483 2483 0 0 1 29.4-53l-7.5-9c10.6-.7 22-.1 31.2-4.4m-12 39.6c-2.8 5.2-23.2 43.4-22.8 45.7q10.8-2.2 21.7-4.8c.1-6 2-37.2 1.1-40.9m-63.5-38 .3-.5c1 2 .3 1.4 2.4 2.3 3-.3 6.3-2.7 9-4.3-4 18.5-11.2 40.2-15.8 59.3h8.1q-7.9 6-12 15c-1.5 3.3-3.7 14.1-5 18.4-3.8 13.6-8 27.3-11.5 41.1-1.7 1-2.8 2-4.8 2.2l-1.8-1.5c-2 .8-5.1 4.9-6.7 6.6 1.2-5.7 2.2-12.7 3.2-18.6-2.8 7.7-4.9 14.6-11.8 19.5-5 3.7-4.5 3-8.4 7.8 6-20.7 12-43.7 17.5-64.5-13.3 2-16.5 3-29.5 7-1.7 6.7-4 13-6 19.7l-8 28.5c-1.6.9-2.8 1.7-4.5 1.6-.6-1.1-.8-1.8-1.9-2.3-2.3 1-5 4-6.9 6l3.2-16.6q-3.4 6.4-6.6 12.9-2.7-5.5-5.8-10.7c3.7-15.3 7.4-31.1 11.6-46.2q-6.2-.5-12.2-.5c3.9-2.3 9.4-4.9 11.5-8.8-2-.4-1.8 0-3.1-1.2.8-1.1 5.7-3.7 7.2-4.5q7-26.5 13.4-53.2c-2.3-5.8-4.1-7.9-8-12.6 3.2 0 16-.3 18.4.4l.5 2.3c2.1-.2 6.2-3.3 8.2-4.7-.5 2-1.7 5.5-1 7l2.1-2.8-.2.8c2.8-.9 8.5-3.5 11.4-4.7q-7.5 31-16.3 61.7c9.8-2 19.4-3.6 29.2-5.8 2-7.8 12-48.1 15-53 1.7-.5 2.8-1 4.7-.7l.1 1.4c2.4.2 5.7-2.1 7.9-3.4l-2.2 9.2zm151-3.8c21-1.5 37.5 9.1 51.1 24.1-3.4 15.4-7.6 31.6-11.4 47a269 269 0 0 1-56.5 26.2c-3.7 14.4-9 29.8-13.7 44l-5.4 4 1.5-9.6c-1.9 2.8-7.6 11.8-10 13.4l-.7-1.6c-6.3 8.4-10.7 11.6-16.4 20.7 1.2-5.2 16.4-64.8 16.1-66.1h-3.2c1-4 7-9.6 6.5-13l-1.7-.6c7-12.6 7-18.6 10.5-32.4q3.7-14.6 8-29l-8-9.9c2.2.2 5.2.6 7.2-.4l.2-1.2c-1.6-2.8-10-8.5-13-12.4q19.5-2 39-3.2m-1 27.8c-.2 5.9-8.3 35.4-10 43.5 5.1-2 12.4-4.5 17-7.2 4.7-2.4 7.8-4 12.2-6.9 1.8-7 3.8-15 5.8-21.8l-5.3-6.2c-7.2-1-12.3-1.6-19.6-1.4m388.1-29.4.7.2c-.7 5.5-22.6 39.7-26.4 47.9-5.8 12.2-14.6 26.3-20.1 38.7-5.2 12-9.6 24.2-14.2 36.3 2.1.5 4.7.9 6.9 1.3-8.2 5-15.8 8.4-24.3 12.7-2.9 1.5-10.6 8.7-13.4 9 .7-1.1 1.9-2.6 1.8-3.7-10.4 5.9-24.8 16.2-35 23q13.6-15 26.9-30.7c-2.9 1.2-6.4 3-9.2 4.4l7.9-7.8c8-7.5 15-13.2 19.2-23.6l13.6-33.2c-4.4-16.8-9.6-33.5-14.1-50.2-2-7.5-5.6-13.9-10-20.2 3.2.5 12 3 13.8 2.6l.2-2.6c2 .3 3 2.6 4.4 4.6h1l-.4-2.5c1.6-.6 4.9 1.4 5.3 1.3 2-.7 3.3-1.8 6-1.5 2.2 4.3 8 32.4 9.5 39 7.1-10.8 13.7-24.7 20.8-35.8 2-3 1.5-2.8 4.7-3.6 3.8 2.4 5.2.4 8.8-1.5l-3.4 8.3c6.5-7.5 10-8.5 19-12.4"/>
    <path style="fill: currentColor" d="m784.2 310-6.6 6 3-8.4c8.2-18.5 10.1-33.2 14.6-52.9q7.9-34.6 16.4-69.3a27 27 0 0 1-2.4-4.4l.6-.5 3 1c.2-2.6-11.8-16.7-13.9-19.3q33 0 66.1-.5l24.1 23c-3.5 16-8 32.4-12.2 48.3-9.8 5.8-20.7 11.6-30.7 17.2 8.7 14.4 19.2 28 27.7 42.4 1.8 3.6 4 7.4 5.7 11-1.6-1.7-5.1-5.6-6.6-7 2 5.6 4.9 10.9 7.2 16.4l9.7 24.8 3.6 10-7.2-8.6c-8.6-10.4-17.3-21-26.2-31l3.7 12.5c-15.7-19.8-29.8-43-44.5-64-2.8 13.3-6.5 27.3-9.5 40.7l-5.5 3.3-.9-.4.7-3.2c-3.2-.5-10.7 10-13.3 10.2l.5-3.5c-1.4.3-5.7 4.8-7.1 6.2M834 189.4c1.8 3.2-1.6 13-2.7 17q-3 12-5.5 24c8.2-3.6 9-.9 17.9-6.2 3.5-2.2 8.1-5 11.4-7.3 1.7-6.4 3.4-13.2 5.3-19.6l-5.2-6.2c-6.6-.6-14.7-1.7-21.2-1.7M1036.5 297c-1.7 0-7.8 3.2-9.4 4l.4-.5c-3.7.7-5.4 2.5-8.3 4.8l-1.4.5-.1-.8c4.9-10.9 8.7-29.6 11.7-42l12.2-49.3c1.6-6.3 3.4-15.7 5.7-21.8.4-1 1.8-1 3-1 4.1-.4 5-1.1 8.3-3.7l.7 2.7c1.3.7 5.4-.6 7.1-1 1.4 4 2.3 12.6 3 17 2 11.5 3.3 23.7 5.8 35 2-8.5 10-47.7 12.8-52.8 2-1.3 1.3-1.3 3.3-1.3l.8 2c3-1 4.7-4.9 7.7-6.2l-.3 2.4.5.5c3-1 6.4-3.7 9.1-5.6l.5.4c0 2.8-26.8 114.3-28.2 117.8-2 .8-2 .3-4.5-.5l-1 1.8-1-.2c-5-7.5-6-2-10.3-3.3-1.2-1.6-8.2-46.3-10-52.4-3.3 16.6-8.3 35.6-12.3 52-1.9 1.2-3.3 2.1-5.5 2.5l-.2-.6zl-.2-.4zm.1.4v.4l-.1-.8zM461.6 153c6.3.3 16 .2 21.8 1.1 18.9 3 37.2 3.5 56.3 4.2 7.6 7 17 14 23.5 21.8 3.2 3.7 1.1 8.4 7.3 13.4-2.3 9.6-5 18.4-7.8 27.9-.8 2.5-1.6 12-2.7 13.1-4.7 4.3-11.7 8.6-17.2 12.1l2.1-2.9-.1-.7c-2.4.6-13.8 8.3-16.8 10.2 2.8 4.9 27.4 42.7 27.5 43.3-1.3-.6-1.4-.7-2.8-.8.8 2.5 10.1 14.8 13 20.8l-1.6-1.8c5 12.3 13.4 26.4 20.1 38.3-8-9.2-20.7-22.7-29.3-31h-.6c.3 2 .5 2.9.5 5-1.5-.6-9.8-12.3-11.5-14.6q-7-9.2-14.5-18l3 9.4a1146 1146 0 0 1-28.5-39.5c-.8-1.1-2.6-2.2-3.8-2.9-2.2 1.7-10 33.1-11.4 38.7-2.4 2.3-5 5.2-7.3 7.7l2-9.5-14.3 20.8 2.6-11.4a382 382 0 0 1-15.8 25.3q17.4-67.2 34-134.7l-9.7-13.6c3.7 1.2 8.4 2.3 12.2 3.3q-7.6-8.4-15.6-16.8c1.5-.7 2 .8 3.7 0-3.3-4.3-13.6-13.4-18.3-18.2m49.4 38.3 4.9 4.7q-4.7 18.4-9.6 36.6c11.9-4.5 7.3 1 19.5-6.2l11-6.4c1.6-6.4 3.3-12.1 5.2-18.4l-5.7-6.8q-12.6-2-25.3-3.5m705.7-8.7h2.1c9.2 6.6 10 6.8 18.8 15.4.1 6.6 1 9.4-.8 16q-2.8 11.4-5.4 22.9-14.3 9.1-28.2 18.8c5.6 11.4 12.8 22.8 19 34 2 3.4 11.2 17.8 12 20.8q-2.3-2-4.2-4.4c5.5 12.5 12.7 24.2 17.9 37.5l-28-30.7-.5.2.5 2.9-.4.3a162 162 0 0 1-15-20.2c-1.9-3.7-3.6-7-6.4-10.2-6.1-7.1-10.8-15.6-15.7-23.6q-4.5 17.2-8.4 34.5a19 19 0 0 1-4.8 2.7l-.6-.5c.4-1.2.5-1.4.2-2.7-1.1.3-10 10.4-11.6 12.1.5-1.6.9-2.6.6-4.2-1.7 1-6.9 8.8-8.5 11 8-36 16.9-76.2 26.3-111.7l-3.2-6.3.3-.8q2 .7 3.8.1c.4-2.9-4-8.4-5.9-10.9q23-1.6 46.1-3M1195 207c1.4 4.8-6.7 25-5.4 28.8 3.6.7 3.4-1.6 5-.5l-.6 1.8c2.2-.6 5.2-3.2 7-4.7 4.2-3.4 6.5-5.1 11-8l2-10.7-3.6-4.8c-4-.5-11.6-1.7-15.4-1.9m-472-29.8c0 1-1 3.4-1.3 4.4l.6.8c3.4.7 6.7-1.6 9.6-3.4-8.3 36-14.4 77.8-23.6 112.9l3 10.6c-3.8-2.7-15.2-8.7-19.9-7-2 .8-3 0-5.2-.5 4.2-19 7.7-39 12.4-57.6-2.6 3.6-6.5 10.4-9 14.5L670.3 283c-2.3-14.7-5.3-29.4-7.4-44.1l-4.9 20.6c-2.2 11.5-5.3 23.5-7.7 35.1-8.8 2.7-19.4 2.8-29.5 5.6 12.5-15.2 10.4-14 14.7-33l12-52.3c1.1-4.7 5.2-26.4 7.6-28.2 2.2.1 1.5 0 3.3 1.8 2.8-.4 4.3-3.6 7.4-4l-.2 2c3.6 1.5 5 0 8.1-1.8 1 11.4 5.3 33.8 7 46.4 7.8-11.4 20.5-38.2 28.3-47.5 2.3-.8 1.6-1 3.6-.5l-.1 1.6c3.3-1.5 7.6-5.1 10.6-7.5m303.8 9.7.6.6-.3 2.1 1.1.7c2.6-.4 5.5-2.3 8-3.7-2.7 8.3-5.2 20.3-7.3 29.2l-13.4 55c-1 4-5.5 26.5-8 27.8a14 14 0 0 0-4-.9l-1.7 1.9-1-.2-1.4-3.1c-3.8-2.8-4.9 1-9-.2-1.4-3-3-14.6-3.7-18.6q-3-17.8-6.3-35.5c-2.6 14.2-8.7 38.3-12.1 52.8-1.8.8-4.7 2.3-6.5 2.4l.5-2.1-.4-.5c-2 .5-7 5.5-10.3 6l-.7-.7c-2.4.2-11.7 5.9-14.3 7.3 3-4.7 9.2-12.7 11.4-16.9 1.5-2.7 4.7-17.1 5.6-20.8l12.7-53.4c1.8-7.4 3.6-15.4 5.6-22.8 1-3.7 5.3-.5 6.1-1.1 1.3-1 3.3-2.8 5.6-3.9.2 1.5.3 1.6 1 3 2.5.6 4.3-.6 7.3-1.3 1.9 1.7 8 45 9.7 51.9 1.8-7.4 10.7-46.8 13-50.6q1.8-.4 3.6.1c3 .7 6.1-2.5 8.6-4.5m-64.6-3.8.4.6-.9 5c-6.4 31-14.4 61.8-21.5 92.8-6.3 5.8-14.4 12.2-21 17.8l-27.7.1-14.6-19.9q9-40.9 19.7-81.3c.6-3 .6-4.8 2.7-6.5 2.7 0 1.6-.3 4.1 1l6.2-4 .6.3-.4 1.8 1.6.6c3.8-.4 7.2-2.7 10.8-4.6-7 27-13.2 55.1-20.2 82.4l3.6 5.8 8.5-.5 6.7-6.7 12.5-52c1.5-6 4.8-21 7-26.4a6 6 0 0 1 3.7-1.4c.5 1 .4 1.3.3 2.3v.3c2.1-.5 4.7-4.7 8.2-6.4.6.7.5 1 .8 2.2l1.4.4c2.7-.3 5.2-2.2 7.5-3.7m-318.6-1.4.5.8c-6.2 31-16 67.7-23.4 99L601 299q-13.5.3-27.3.4c-4.8-6.2-9.9-13.8-14.5-20.3 2.2-10.1 19.2-85.5 22.2-88 3-.6 2-.9 4.3.5 2-.6 5.4-4.2 7.2-5.8-.6 2-1.6 4.5-1 6.4 1.9 0 10.2-5.5 12.5-7-3.2 10.3-6 22.7-8.5 33.2l-12.2 50.3 3.3 6.1 8.1-.9 6.7-6.8q6-27 12.5-54c1.6-6.8 4.3-19.6 6.5-25.6 1.8-1.2 2.3-1.2 4.3-1.5.3 1.2.3 1.6.3 2.8 1.6-.5 7.3-5.6 9-7-.7 2-1.2 2.8-1.2 4.8l.7.3c2.1 0 7.6-3.8 9.8-5.2m524.7 4.2.7.6c-1.1 1.6-6.6 15.3-6.7 17 .8 1.7 1.3 2.3 1 4.1-3.3 1-23.5 1.3-28.1 1.4l-5.7 23.1 30.4-1c-6.9 5.6-10.7 10.5-10.5 19.6-2.8 2.5-20 2.2-25.1 2.4-.8 5.4-4 17.6-5.4 23.3 10.8.3 22-.3 33-.1-4.3 6.2-2.6 8.4-4.1 10.3-1 2-2 5.7-2.8 8 0 .2 2.7 4 3 4.5q-27.7.3-55.5.1c6.5-26.8 19-79.2 25.2-108.2.1-.6-.6-.4.2-2 4-1 14-1.2 18.3-1.4zm-404.1 43c8.2-.3 17-.3 25.3-.4-2 1.3-8.1 5-9.3 6.8l2.3.9c-.4 2.7-4.7 5.1-7 6.4 3.8 2.1 4.6 5.2 8.2 9.4l-21 .6q-17.2.6-34.6.7c3.7-7.6 4.3-15 6.4-23.6 9.3-.7 20.2-.7 29.7-.8"/>
    <path fill="#fefefe" d="M436 525.6c12.1-58.8 26.4-115.7 40-174l-6.8-6.2a1596 1596 0 0 1-40.5 23c12.4-56.7 27.4-113 39.7-169.2-6.1-9.4-15.4-21.8-20.7-31.2 1-.6.8-.2 1.3-1.2-8.2-10.9-20.2-24-29.3-34.8 40.4 1.2 88.3 4.7 129 7.4 11.2 10.2 23.6 21.2 34.3 31.8 3.7-1.7 23.5-10 26.5-9l-.5 4.6c1.3.7 65.4-7 71.8-7.7l-5.8 9.4c25.5-4.4 54.9-9.2 80.4-12.4a1259 1259 0 0 1-10.5 53.6l41.7-1.2c2.1-7.9 4-16.7 5.7-24.6-7.4-12-18-26.6-26-38.5 34.8-1.2 71.6-3 106.5-3.4 12.3 10.6 20 18 31.6 29.6a1446 1446 0 0 1 82.5-9.8c-2.6 2.7-6.5 5.3-5.7 9.2 2.4.3 49.5-8.2 55.3-9.2l-4.6 8.2c15.7-3.5 33.5-8.7 49.4-12.7l-7.3 11.2c26.9-6.3 57.6-11.7 85-17.2a689 689 0 0 1-17.1 18l83.5-7.7c11 8.6 24.7 18 36.1 26.3-4.7 17.9-9.3 43.5-13 62.3-5.3 3.1-13.3 9-18.5 12.6 2.7 5.6 22.5 41 22.2 43.8 0 1 .3 2.8.5 3.6 7 17.5 15.1 49.4 21 68.3-8-4.5-31.8-18-38-23.5l-1.2-.8-8.3-5.2c-1.8-1-2.5-2-4.1-1.7-4.4 6.2-12.5 22.3-15.2 25.7-9.3 18.3-19 35.7-27.3 54.5l11.1 4.3-6.4 9.4 8.5 9.2a3984 3984 0 0 1-147.4 77c4.5-9 15.5-26 18.4-33.3l-.6-.5-3.8.9c.8-2.5 10.3-14 12.7-17-9.4 1.6-21.5 4-30.7 5.2-19.5 4-43.3 7.5-62 12l9-11.6c-11-2.7-22.6-5.8-33.4-8.2l-11-12.3c-6.6 5.4-14.2 12-21 17l-125.4 17.5 2.7-7.3c-4.5 2.8-14.5 7-16 8.2-11.3 8.3-22.9 18-34 26.6l-13.2-35.8q-5.7 1.2-11 3c-4.6-3-11.7-6.1-12.6-10.3-1.3-.3-80.9 23.6-89.5 26l5.9-18c-7.9 2.2-16.8 4.9-24.7 6.8 8.6 17.8 17 39.3 24.7 57.6l-21.8-12.6a467 467 0 0 0-36.1-20.8c-18.4-9-31.8-18.6-49-30-2.1-1.6-4.4-4-7-3.1l-.6 2.7-2.3 12.9c-11 4-70.9 27-78.5 27.6zm813.2-207c-6.6-23.1-16.5-36.5-26.9-57.8q10.5-7.2 20.8-14.6c3.3-17.4 8.8-38.7 11.3-55.6l-30.7-22.7c-31.5 2.8-66 7-97.2 8.9l15.3-15.8-51.1 10.1c-8.5 1.7-20.2 4.3-28.5 5.3 2.2-3.2 4.8-6.9 7.2-9.8-11.8 2.7-22.9 7-34.5 10.3-7.8 2.2-7.4-.2-14.2 1.6l5.2-8.8c-17.6 3-35.6 6.3-53.2 9l2.2-9c-17.8 2.7-35.9 3-53.8 5.9-6.2 1-13 1.6-19.4 2.4a299 299 0 0 0-31.4-30l-92.4 3 20.7 31.2-7.2 32-53.6 1.9c3-15 8.1-38.3 9.9-53l-83.6 13c1.9-3 4-6.6 6-9.4C657 170.5 645 170 632 171c-9.5.7-20.4 2.2-29.9 3.3l-.8-.5.5-2.5c-2-1.3-17.6 6-20.5 7-7-8.1-25.6-24.3-34.3-32.1q-8.8-1.3-17.8-1.8c-31.6-1.6-63.3-4-95-5.5 7.3 8.8 15 18.8 22.4 27.3 2.4 2.8 7.8 5.7 13 11.3l-9.6-2q7.8 11.1 15.1 22.5l-37.4 158.4c5.1-2.5 30.6-17.8 33.2-18.1l1.3 1.3c3.3 3 7.2 6.7 10.5 9.4-1.7 7.4-4.1 19.6-6.3 26.6-2.4 15.4-9.7 42-13.6 58.3l-9 39.1c-1.6 6.8-3.2 15.4-5.1 21.8-1.1 7-4 19.9-5.7 27 6.8-2.3 20-7.4 26.4-9 10.4-4.8 27.4-10.3 38.5-14.4a342 342 0 0 1 4.1-20.1l.6-1.2c2.2.5 9.3 5.4 11.8 7q18.5 12.2 36.7 24.6c.6.4 2.4.3 3 .2 9.7 5.4 31.4 17.3 40 23.4 4.3 2.4 9.4 5.6 13.8 8.2-4-10.2-8.9-20-12.7-30.4-2.8-5.7-5.6-12.5-8.1-18.3 6.4-1.6 13.9-3.7 20.4-4.8 4.3-1.7 17-4.8 22-6.2q-3.1 8.7-6 17.6c10.2-2.6 79.6-24.4 84-24 .8 6.3 6.4 11.1 12.8 10.2l10.5-2.6 3.5 9.2c3.1 7.5 6.1 15.9 9 23.5 9.7-7.3 18.8-15.3 28.5-22.6 5.2-4 7.3-2.7 13-5.4 2.5-1.8 7.4-5 9.4-7.3 1.4-1.6 3-7.8 4.9-8.9 2 1.1 2 .6 3 2.4 0 2.8-1.6 6-2.7 8.6l-3 8.2c38.2-4.9 76.3-11 114.4-15.7l23.8-19.3c4.3 4.3 9.6 10.6 13.7 15.3 7.8 1.3 14.4 3.1 22 5 3.7 1 6.5 1 10.5 2.3 5.3-2.3 7.8-3.5 13.4-5.1q-5.1 6.5-10 13.1c23.6-3.9 47-9 70.7-12.7a132 132 0 0 1 15-1.6l-.5 2c2.5.6 11.8-4.7 14.7-6.2-4.2 4.2-20.7 17.9-21.6 21.4l2.5-.2c0 1-14 23.1-15.8 26.2 21.2-11.8 43.2-22.8 64.6-34.3 17.9-9.6 42-19.3 58.4-31v-.9c-1.9-.5-3.7-.8-5.2-2-.2-4 2.9-8.2 5.2-11.4l-10.5-4c5.1-11.5 10.7-24.9 17-35.8q15.8-29.7 32.7-59l3.9 4.3c1.1 1 3 2.9 4.2 3.7l2.9 2.3c4 1.6 26.7 16.6 31.3 19.6-4.6-15.7-9.7-31.4-14.4-47m-278.8-8.8.9.2c-1.4 2-15.5 5.6-18.6 6l-1-.2c1-1.3 15.8-5.2 18.7-6m12 1c8.4.8 15 1.3 23.5 1.6l-5.4 5.7H978zm-259.4 5c-5.8.6-15.9 2-21.2 1.6-2.3-1.4.2-.8-.6-4-9.7-.8-21 2-33.2.8-1.9-1.5.3-2-1.2-4.5-3.5.1-9 1.5-12.4 2.5a76 76 0 0 1-31.8 2.7l1-.5a549 549 0 0 1 49.3-12.7l-.3 6.7c25.1-.3 27.3 0 50.4 7.4m0 0c-.4-1.7-2-7.7-2-9.1-.3-12.2 4.2-26.7 6.4-38.8 17-.4 34.3-.4 51.2-.9-1.5 7.2-3.4 18.2-5.4 24.9-1.8 6.3-4.5 8.2-6.3 16.6-.7 2.7-.3 2.7-2 4.1-1.9.3-3.9.8-5.4.1.7-7.7 5.6-15.6 8.1-22.7 1.7-4.6 2.8-12 3.7-16.8q-19.6 0-39.1.7l-6.4 33.4c.8 2.2 1.9 4.5 2.2 6.8-1.1 2-2.8 1.6-5 1.7m386.5-.8c-36 1.5-69.1 2.2-105 3 27.8-7.7 38.1-7.8 66-6q17.5 1.2 35 1.7c5.1 0 8.3.2 13.5.8-3 .2-6.6.6-9.5.5"/>
    <path fill="#525151" d="M253 170.3c3.2 1.1 31.3 10.2 32 10.1-1 .5-1.7.7-2.4 1.5v.4c-.3.8 10.9 50 11.8 54.3-24.1-6.3-49.8-12.5-73.7-19.3 3.3-5 31.7-44.3 31.9-46zM182.7 246c2 2.7 7.5 9.7 8.7 12 1 .8 4.7 6.4 5.9 8l12 16.9c2.6 3.5 5.5 7.9 8.1 11.2V392l-13-24.8c-.5-1-1.5-2.5-1.8-3.6l-2-4 .4-.7c-1.8-4-3.5-8.7-5.1-12.8l-9-22.6-8.1-20c-.5-1.2.3-12.4.4-14.6l2-43 .5-.6zm107 217.2q15.3 16.3 30.1 33c4.8 5.4 12.8 13.9 16.9 19.4q-22.5 2.7-45 6.1c-8 1.2-15.9 2.1-23.7 4l-41.7 10-4.3 1c1.7-2.2 9.3-8.6 11.9-11a729 729 0 0 1 39.6-34.1l-.1-7.1c4.6-6.1 11.5-15.8 16.3-21.3m-110-112.1c.2 2 14.2 28.8 16.2 32-.8 11-1.2 22.7-1.8 33.7-.7 11.7-1.7 24.5-2 36-1 1-9.4 7.4-10 7.6-2 .3-12.4 6-14.8 7.2.1-4.7.8-10.8 1.1-15.7l2.4-29.7c2-24.4 4.1-49.8 6.6-74.1zm39.5 100.1c-.2 20.9 1 42.7.5 63.5q-3 4.1-5.6 8.4c-5.3-3.6-6.2-2.8-12.8-2.8-2.7 3.4-6 5.8-6 9.9-9.2-7.4-18.7-15.8-27.7-23.6l33-36c5.6-5.8 13.6-13.5 18.6-19.4m53.5-339.7c1.3.8 9.2-.5 11.5-.7 0 19.7-.4 40.5 0 60.2l-2.1 1.7q-7.7-2.6-15.5-4.7c-2.2-.6-9.1-2.2-10.9-3.2-1.2-3.6.4-40.7.4-47.4 5.2-1.7 11.3-4.7 16.6-5.9"/>
    <path fill="#fefefe" d="m239.7 166 13.2 4.3-.3 1c-1.9 1.3-9.8 9.9-11.8 12-10 10.1-19.8 20.8-29.8 31l-11.9-2.8c-5.6 2.4-10.6 4.6-16.1 7.2-1.3.7-5.4 1.5-7.7 2.5a608 608 0 0 0 14.1 18.7l4.2 5.5 10.6 13.6c-2.6-1.6-20.2-12.9-21.4-13l-1-.8-.4.6-2.1 43c-.1 2.2-.9 13.4-.4 14.6l8 20 9 22.6c1.7 4.1 3.4 8.9 5.2 12.8l-.4.7q-11.1-23.7-22.7-47c-2-4-7.4-14.6-8.8-18.2-.5-1.5-.2-17.8-.2-20l.4-53.5c9.6-6.7 19.2-14.4 28.4-21.7q20.8-16.6 41.9-33.1m-68 159.7c1.6 2 4 6.2 5.3 8.5l9 15.3 28.5 48.2c-4.3-4.6-10.1-14-13.9-19.4-6.5-9.5-13.5-18.1-20.7-27.1l-2.4-3c-2.5 24.3-4.5 49.7-6.6 74l-2.4 29.8c-.3 4.9-1 11-1 15.7 2.3-1.2 12.8-6.9 14.7-7.2l-26.4 19.7 2-18.5c5.4-45.3 9.2-90.7 14-136m-19 177.6q32.2-27.1 66-52.1l.6.1c-5 5.9-13 13.6-18.6 19.5l-33 36c9 7.7 18.5 16 27.7 23.5 3.2 7.8 6.4 9.3 10 16.1 2 2.8 4.8 7 6.4 9.9l-.6 1.2c-8.7-7.4-17.1-15.7-25.5-23.6-6.4-6.1-13.6-12.3-19.7-18.6-3-2.1-10.5-9.2-13.3-12M283 17.1q10.6 3.9 21.3 8.1a242 242 0 0 1 23.4 10c-1.7 0-4.8-.8-6.7-1q-5.2-1-10.5-1.7c1.7 1 7.2 4.2 8.3 5.3-10.9-4.1-23.3-8-34.4-11.5l-.1 38.3c0 1.8.2 12.4-.4 13.3l-1 .4c-10.8 4-25 10.8-34.7 16.7.8 2.6 2.3 6.3 3.3 9q-6.5-3.2-12.6-6.8c0-5.5-.5-12.2-.8-17.8q-.8-16.7-1.3-33.5A1161 1161 0 0 1 283 17m-41.8 99c3.2-2 13-7.4 15.7-9 3-1.5 26.4-8.2 28.2-8 7 1 25.6 5.2 32.4 7.5-9 0-18.1.6-27 .8-7.1.2-11.2 2.3-17.7 4.2-5.3 1.2-11.4 4.2-16.6 6 0 6.6-1.6 43.7-.4 47.3l-14.6-4.7zm41.5 66.2v-.4c.6-.8 1.4-1 2.3-1.5 6.6 7.2 14.8 14.9 21.7 21.9q13 13 24.8 26.8c2.3 2.7 7.2 8 9.1 10.6-2.8-2.3-7.7-7.3-10.4-9-8-5-12.3-11-18.7-17.7-9.7-10-19-20.7-28.8-30.7m97.2 193.6c1.8 6.5 2.4 16.1 3.1 23q1.9 18.9 3.5 37.7c-.6-.5-1.7-2-2.3-2.6l-3.3-36.6c-.5-5.8-1.5-16-1-21.5m9.3-17.8c-.6 1.9-8.6 13-10.1 14.7-3.8 3.5-13.7 11-18 14 3-3.3 7.2-7.3 10.3-10.5q9-9 17.8-18.2"/>
    <path style="fill: currentColor" d="M166 515.3c4.2 2.5 9.4 7 13.6 10q9.8 7.3 19.7 14.2c2.6 1.8 4.7 6.3 6.2 7 1.8 2.7 4.7 7 6.3 9.8l-.6 1.2c-8.7-7.4-17.1-15.7-25.5-23.6-6.4-6.1-13.6-12.3-19.7-18.6m151.7-408.5c5.6.7 16.3 5.8 21.4 8.2-.1 15.2-.8 30.4-1 45.6l-2.1 1.5c8 5.2 19 14.2 26.9 20q24.4 18.6 49.4 36.4c-.3 21.1-.3 44.3-1.2 65.3 0 .8.1.8-.2 1.6-1.2-1-7.4-8.5-9-10.2 0-17.2.5-35.6.7-52.8-25-20.2-48.8-39.6-74.4-59q0-8.4.3-16.8l.6-28.8zM389.2 358q9.8-10.8 20.3-20.8c2.5 27.7 6 56.7 9 84.4l3 26.8q.8 9.7 2.1 19.3c.2 1 .9 2.6 1.2 3.8-3-2-10.4-13.5-13-17q-1.5-26.9-3.4-53.6l-2.2-34.6c-.4-5.2-.6-11.1-1.1-16.3q-9.5 8.6-19.1 17c-1.5 1.2-5.5 4.8-7 5.7 1.6-1.8 9.6-12.8 10.2-14.7m-69 111.6 20.2 24.5q11.4 14.4 22.1 29.2l-17.4 27.3 16-10.8c2.4-1.7 6-4.3 8.4-5.7 3.5-2 8-4.2 11.6-6l17.5-8.9c11.5-5.6 9.6-6.3 22.5-6.5q-44.5 30-92.6 54c9.1-14.9 18.7-28.7 27.7-43.3q-10.2-16-21.1-31.6c-5.2-7.5-9.8-14.3-15.3-21.7zm-9.7-437.2L321 34c2 .3 5 1.1 6.7 1.2 3.8 1.8 13.2 7.2 16.9 9.6l-2.2 34.9c-.4 5.5-1 11.8-1.1 17.3l-9.2 5 2.2-6.2c-12.9-7-23.2-10.1-35.7-15.8 11.3 2 23.5 4.4 34.6 6.1 1.3-11.8 3-24.9 3.9-36.7a126 126 0 0 0-18.3-11.7c-1.1-1.1-6.6-4.2-8.3-5.3m78 240.3c2.4 1.3 19.4 18.4 22.7 21.5-8.5 14.2-14.6 26-22.2 40.5l-3.8 7.5c.8-3.6 3.5-11 4.7-14.9q5.1-16.6 10.6-33.1c-2.8-6-8.6-15.6-12-21.5m-49-56.6c1.4.4 11.9 6.6 14 7.8l-1.5-4.3c4.3 5.2 7.4 10 11.1 15.7l12.9 19.4q1 1.2 1.7 2.7c-.7-.4-4.9-5.5-5.6-6.3a930 930 0 0 0-32.5-35m-27.1 320.5.4.6c-12.3 5.3-26.4 12.6-38.4 18.6-2.8-2-13-8.5-15.2-10.4l-3.7-2.5c5.4 2.2 11.5 5 16.7 7.4l2.1 1c11.2-5.1 26.5-10.4 38-14.7"/>
    <path style="fill: currentColor" d="M194.8 225.9c3.4 1.1 30.2 9 31.5 8.3-.1-.9-1-1.7-1.5-2.5 7.5 5.1 7.9 4.3 16.2 7.3h-4.7c1 .4 3.1 1.1 3.7 1.5 8.3 2.4 15.7 4 24 6.3q-4.9-2.9-9.8-5.5-3.1-1.4-6.1-3.2 34.5 10.5 69 21.7 8 2.9 16.2 4.7 1 .3 1.7 1.1v.3h-.5c-.3 3.5 7 8.8 9.4 11.2l-2.2-6c-.4-.8-2-2.5-2-3 1.2.6 3.5 3.7 4.6 4.7 5.5 5.8 10 10.8 14.9 17.3l-4.8-3q1.9 5.7 4 11.3l-1.8 2.8c.8.7 2.5 2.2 3.4 2.5 0-.7.1-1 .3-1.8 1.8 2.2.8 2.5 3.7 3.5 0 .9-2.2 5-2.8 6.7a73 73 0 0 0-2.4 8.6 62 62 0 0 1-9 4.8l5.4-.5a170 170 0 0 0-15.1 8.8c4.2-1.5 13-5.7 17.1-7.8q-2.2 7-3.7 14c1.4-1 4-2.7 5.7-2.7-.5 2-23.4 17.4-26.8 19.8q2.7-3.2 4.8-6.8c-10.5 6.3-20 12.9-30.2 19.6 1.2 1.5 6.4 6.7 6.4 7.8l-1 1.2c.3 1.4 9 9 10.8 10.6l-7.2-12c11 10.4 21.6 22.3 31.6 33.6 7.6 8.5 16.5 17.8 23.7 26.5L355.7 426q8.3 11 18.1 20.4c7 6.7 13.4 14 20.2 20.7q-3.3-6.5-6.9-12.6 11.1 11.3 21.8 23.2c-5-3.7-8.5-6.5-13.7-9.8q5 6 10.6 11.6c1.2 1.2 6.5 6.2 7 7.2-2-1.2-3.3-2.6-5.1-4 4 6 8.9 11.5 13.3 17 3.6 4.5 6.5 7.6 9 12.8-1.5-.6-2.3-1.3-3.7-2.2-14.8-10.1-27-24.8-41.4-35.5 3 6 6.8 12.3 10.2 18.3-4-3.4-10.1-8.1-13.4-11.8-10.3-11.3-21-21.5-32-32-4.6-4.3-9.2-8-13.7-12.3 3 4.6 10.3 14.7 13.6 18.9a132 132 0 0 1-25.7-27.4c1.8 1.1 4.2 2.9 6 3.8a117 117 0 0 0-24.3-28.6c3.2 4 7.3 9.5 10.6 13.2l-9.6-7c2.1 3.1 5.3 7.4 7.1 10.5-8-6.6-15.2-14.5-22.6-21.8-1.4-1.4-5-7.3-6.4-7.6v.8c-2.5-1.7-11.9-11.1-14.5-13.6l-.1 16.9c0 2-1 4.2-1 5.8.6 11.2.2 22.4.6 33.6v11.1L265 451l-.9-15.5c-.9 3.5-3.6 5.2-2.2 8.1-.8 1.5-2.5 2.4-2.6 2.6-1.8 5-3.6 11.3-5.8 16-1-14.2-2.5-27.6-2.8-42l-.5-1.6c0 13-1.3 26.5-1.7 39.5 0 1.5-5 14.1-5.9 16.5q-1-10.5-1.6-21.3c-1.5 9.6-4 19-5.9 28.5q-.4 2.5-1.2 4.8h-.2V485c0-9-.6-18.2-.7-27.3 0-2.9-.8-6.5-.8-9.5 0-2.6.6-5.1.6-7.6l-.3-99.9c0-4.5-.7-38.5 0-40.2h.3l1 .9q3.8 4.1 7.8 8.1c0-1.1-.3-2.3.3-2.9l.7.7 19.3 18.1c-5.9-8.5-12-16.2-18.3-24.3l-20.6-27c1.9.8 6.3 2.1 7.6 2.8 3.3 1.7 5.6 3 9.2 4.5a125 125 0 0 0-12.5-14.4c-2-1.6-5.1-5.1-7-7L210 250c5.4 2 11.9 4 17.3 5.7-2.3-2.8-5-5.1-7.3-8-1-.7-1.5-2.6-3.6-3-2-1.6-5.5-5-7.6-6.8q-7-6.2-14.1-12.1m70 55.3c1 .7 3.5 2.7 4.5 2.8.5 2.2.3 18.8.3 21.8l.3 50c5.5-3.6 11.2-6.8 16.7-10.5 1-.6 2.7-2 3.7-2.4 1 0 3-.7 3.6-1.2 7.5-5.7 15.7-10.1 23-16l8.3-6c-.1-3.1-.3-13-1.3-15.3-1.2-.7-3-1.4-4.3-2l-3.6-5.1-25.1-8c-5-1.6-11.3-4-16.4-5.1-2-1.4-7.1-2.2-9.7-3"/>
    <g style="fill: currentColor">
        <path d="m99 389.4.2.1H99m0-.2v.1h-.1"/>
        <path d="M99 389.3c-.4-.5-.2-.4-.9-.9-.9 1.5-1.8 2.3-2.3 3.9l-1.2 4.5v-.6c-.9-5.5-1-10.3-1.4-15.7-1-12.8-2.5-25-2.9-37.8s-.3-24.9 1.5-37.5c.6-4.1-.7-10.5 1-14.5 1.7-3.5.3-10.5 3-12.7 1.5.7 1.9 8.7 3 10.8l.7-.3c1.2.8.6 13.8 1.6 16l.6-.6h.3c.4 2.2.7 19.2.8 21.5 0 7-1.4 60.9-3.9 64m20.4-142.2c1 1-.3 5.1.7 6.8.8 1.4 1.3 2 1.4 3.6.2 4.3-.4 13.3.6 17.2h.3l.8-1.9h.2c.7 9.3.1 18.6 1 27.8 1 8.6.7 18 .2 26.5-.6 10.1.4 20.2-.4 30.4-1 12-.5 24.4-1.1 36.5-.6 10-1.5 20-1.7 30h-5.7c.1-15-1.3-30-1.5-45.1 0-6.7-.1-11.8.6-18.5.6 2.3.9 5.5 1.2 7.9q.8-7 1.1-13.9a155 155 0 0 0 .1-29c-1.9 13.3-2 30.4-5.2 43.3-.7-17.3-2.4-35-1-52.3.2-1.9 1.2-3 1.2-5q.2-29.7 2.2-59.3c.4-4.5 2-2 4.7-4.8zm21.4 26.8c.7 1.1 1 13.4 1.6 15.4.4 1.6 1.3 4 1.3 5.6l.3 21.2c0 1.7-.1 6.9.2 8.3l.5-.1c.3.4.3 1.4.3 2v11.9c0 2.2-.9 5-1 7.4-.5 7.9-.4 15.9-.8 23.7q-.6 10.2-1.5 20.4c0 1.3.3 4-.5 4.9-1.2-.7-1.4 0-2.2-.6q-.4-2.4-.5-4.9c-1-6-1.5-12.2-2.4-18.4l-1.1 4.9c-1-8.8-1-18.4-1.5-27.2-.2-4.2-.9-8.2-1-12.1-.2-6.4.4-13.3.5-19.7 0-2.8 0-9 .8-11.3h.2l.4 1 .3.2c.4-3 .7-16.4 1.7-18.1l.6-.1c.8-.8 3.3-12.3 3.8-14.3m-68.5 31.6c1.4.3 2.3.8 3.5 1.5l.8-.3c2.3.8.6 6.2 3.9 6.3 1.7 4.6 1.4 44.1-1 45.6l-.8-1-.3.2c-1.1 2.8-.8 5.8-2.1 9.4l-.7 3.5c-1.3.9-2.1 1.6-3.2 2.6-.2-12.5-2.7-25.7-2.7-38.4 0-10.2 2.3-19.3 2.6-29.4m83.8 4.5c1.1 1.3 1.5 5.2 2.9 5.7l1-1.2c1.2 2 .9 10 1 12.4.1 8.3.2 16.7-1 25-.4 2.6-.5 5.3-1.3 7.7-2.3.6-.8-.5-3 1.5-.5-2-2.4-13-3.2-13.7-.5.6-.3.5-1 .9-1.5-2-1.7-24.3-.3-26.2l.6.4c.8-.6 1.9-8 3-9.5.4-.4 1-2.4 1.2-3M57 322q1.2 1 2.2 2.2l1.3.5c.4 2.1 0 5.1.2 7.4.2 6.5.4 12.1-.1 18.6-1 .8-3 3.1-4 3.4l-.5-.5c-1-2.9-1.5-2.7-4.3-3.5-.8-3.4-1.5-23 0-25 3 .3 3.5-.8 5.1-3M34 330.2h8.3c0 2.3.3 13.8 0 15.4l-.6.2c-3.2-.7-4.7 0-7.7 1.3zm-16.8 2.2H25c0 3.6.7 9-.8 11.9l-.7-.4c-1-1-5-.6-6.5-.6 0-1.9-.3-9.6.2-10.9"/>
    </g>
</svg>
