<svg xmlns="http://www.w3.org/2000/svg" xml:space="preserve" fill-rule="evenodd" stroke-linejoin="round" stroke-miterlimit="2" clip-rule="evenodd" viewBox="0 0 440 872">
  <path fill="#525151" d="m159 243 51 16-4 3c-1 2 17 80 19 86l-117-30c5-8 50-71 50-73zM47 363l14 19 10 13 19 27 13 18v155l-21-39-3-6-3-7 1-1-9-20-14-36-13-32 1-23 3-68 1-1zm170 345 48 53 27 30-72 10q-19 2-37 6l-66 16-7 2 19-18q30-28 63-54l-1-11zM43 530c0 3 22 46 25 51l-2 53-3 58-17 12c-3 0-19 9-23 11l2-25 4-47 10-118zm62 159 1 101-9 13c-8-6-10-4-20-4q-7 8-9 15l-44-37 52-57c9-9 22-22 29-31m85-539c2 1 15-1 18-1l1 95-4 3-24-7-18-5c-2-6 1-65 1-76z"/>
  <path fill="#fefefe" d="m138 236 21 7-1 2-19 19-47 49-19-4-25 11-12 4 22 30 7 8 16 22-34-21-1-1-1 1-3 68-1 23 13 32 14 36 9 20-1 1-36-74-14-29V323q24-16 45-34zM30 490l8 13 15 24 45 77c-7-7-16-22-22-31l-33-43-4-5-10 118-4 47-2 25c4-2 20-11 23-11L5 735l3-29zM0 772q51-44 105-83c-7 9-20 22-29 31l-52 57 44 37c5 13 10 15 15 26l10 16v2l-41-38-31-29zM206 0l34 13c11 4 27 10 37 16l-10-2-17-2c3 1 12 6 13 8l-54-18v60l-1 22h-2c-17 7-39 17-55 27l5 14-19-11-2-28-2-53zm-66 157 25-14c5-3 42-13 45-13 11 2 40 8 51 12l-43 1c-11 1-17 4-28 7l-26 9c0 11-3 70-1 76l-23-8zm66 105 4-3 34 35 39 42 15 17-17-14c-12-8-19-17-29-28zm154 307c3 11 4 26 5 37l6 60-4-4-5-58zm15-28-16 24-28 22 16-17z"/>
  <path style="fill: currentColor" d="m21 791 21 15 32 23c4 3 7 10 9 11l10 16v2l-41-38zm241-649c8 2 25 10 33 13l-1 73-3 2 42 32 79 58-2 103-1 3-14-16 1-84q-57-48-118-94l1-26 1-46zm113 399 32-33 15 134 4 43 4 30 1 6c-4-3-16-21-20-27l-5-85-4-55-2-25-30 26-11 10zM266 718l32 39 35 46-28 44 25-17 14-9q8-6 18-10l28-14c18-9 15-10 36-10q-70 47-147 85l44-68-34-51-24-34zM250 25l17 2 10 2 27 15-3 56-2 27-15 8 4-10c-21-11-37-16-57-25l55 10 6-59c-6-4-22-15-29-18-1-2-10-7-13-8m124 381c4 2 31 29 36 34-14 22-23 41-35 64l-6 12 7-24 17-52c-4-10-14-25-19-34m-78-90 22 12-2-6 18 24 20 31 3 4-9-9zm-43 509q-31 13-61 29c-5-3-21-13-24-17l-6-3 26 11 4 2c17-8 42-17 60-23"/>
  <path style="fill: currentColor" d="M66 331c6 2 48 15 51 14l-3-4c12 8 13 6 26 11h-8l6 3 38 10-15-9-10-5 109 34 26 8 3 1v1h-1c0 5 11 14 15 18l-3-10-3-5 7 8 23 27-7-5 6 18-3 5 6 4v-3c3 4 1 4 6 6 0 1-4 7-4 10l-4 14-14 7h8c-6 2-19 10-24 14 7-3 21-9 27-13l-6 22 9-4c0 3-37 28-42 32l7-11-47 31c2 2 10 10 10 12l-2 2 17 17-11-19 50 53 38 42-25-18q13 18 29 32l32 33-11-20 34 37-22-15 17 18 11 11-8-6 21 27q9 9 15 20l-6-3c-24-16-43-40-66-57l16 30c-6-6-16-13-21-19l-51-51-21-19 21 29c-12-8-33-31-41-43l10 6c-9-15-25-34-39-45l17 21-15-11 11 16-36-34-10-13v2l-23-22v27l-2 9 1 54v17l-7 9-1-25c-2 5-6 8-4 13l-4 4-9 25-5-66-1-3-2 63-10 26-2-34-10 46-1 7h-1v-2l-1-44-1-15 1-12-1-158v-64h1l14 14v-4l1 1 11 10 20 18-29-38-33-43 12 4 15 8c-3-4-16-21-20-23l-27-27 27 9-11-13-18-15zm112 88 7 5v34l1 80 26-17 6-4 6-2 36-25 13-10c0-5 0-20-2-24l-6-3-6-8-40-13-26-8z"/>
</svg>
