<svg xmlns="http://www.w3.org/2000/svg" xml:space="preserve" fill-rule="evenodd" stroke-linejoin="round" stroke-miterlimit="2" clip-rule="evenodd" viewBox="0 0 793 364">
  <path fill="#fefefe" d="m505 203 1-1zm0 0c-11 8-15 8-25 15l4-12-5-6c-11 0-13 3-22 9l-3 10c11 9 29 22 39 32v2l-2 1-1 11 3-1v1c-1 4-7 10-8 15l2 1c-5 8-22 20-30 25l-19 4 5-4q-17 6-38 11l11-8v-1l-3 1-37 10 24-18-9 1 14-12v-1l-6 1 22-15-1 2q6-1 11-6l-5 8 4 1-1 3 2 1q14-4 27-13l2-10-37-32 3-10h-2c-1-3 7-16 8-20l3-3 12 11-6-16c6-3 19-13 25-14l26-6-4 4c11 1 10 1 21-4-2 4-8 14-3 18l3-3zM25 169h61l18 16 1-4 19 17-11 41-33 21 32 50-7-6c2 5 10 19 14 23v-1h1l6 9h-3l17 29-30-27 4 10-14-16c-5-5-22-30-25-32l1 4h-1l-23-35-16 61-8 6 2-12q-6 9-15 17l-9 8 15-63 22-89-9-10 11 1zm42 29 1 2-10 40 7-3v3l12-7 13-8 6-22-5-4q-13-2-24-1m552-21 32-1 20 22v24l-15 55-27 25-12 2 6-5-31 9h-1v-1l5-3q-16 6-31 8l10-10v-1h-4l7-6c4-3 2-1 1-4q1-4 5-6l21-87-5-8 3-1-10-12zm8 25-18 77 15-5c13-10 15-16 19-31 3-12 5-19 5-32l-8-9zm-66-27 12 1 18 22-21 84q-14 13-31 25l-14 2 2-3h1l-1-1c-8 1-6-2-11-3v2h-1c-6-2-15-16-19-21l21-84 27-22 14-1zm-9 27q-8 1-14 8l-15 62 5 8h9c4 0 10-7 13-10l15-61-5-7zm-258-30-1 2 15-2-3 76 12-1q-8 3-7 8l-3 8 5 4-8 3-2 57-6-14h-1v4l-5-21-2 18-4-6-2 2-4 2h-1l1-36-32 6-4 8-10 21-8 3 3-7-11 8 5-13c-10 16-11 12-25 23l22-42h-7l9-7-3-1 8-9v-1h-3c2-4 6-3 9-10l8-17 30-53-8-9q17 0 32-5m-12 40c-3 5-24 43-23 45l21-4zm-64-38 3 3 9-5-16 60h8q-7 6-12 15l-5 18-11 41-5 2-2-1-7 6 4-18q-3 12-12 19c-5 4-5 3-9 8l18-64c-13 2-17 3-30 7l-6 19-8 29-4 1-2-2-7 6 3-16-6 12-6-10 11-46-12-1q8-3 12-9l-3-1 7-5 13-53q-2-7-8-12h19v2l8-4-1 7 2-3v1l12-5-17 62 29-6c2-8 12-48 15-53l5-1v2l8-4-2 9zm151-4q32 0 51 24l-11 47c-20 13-34 18-57 26l-13 44-6 4 2-9-10 13-1-2c-6 9-11 12-16 21l16-66h-3c0-4 6-9 6-13l-2-1c7-12 7-18 11-32l8-29-8-10h7v-1c-1-3-10-9-13-13zm-1 28c0 6-8 35-10 43l17-7 12-7 6-22-5-6zm388-30c-1 5-23 39-27 47l-20 39-14 36 7 2-24 13-14 9 2-4-35 23 27-31-9 5 8-8c8-8 15-13 19-24l14-33-15-50q-3-11-10-20l14 2v-3l5 5h1v-2l5 1 6-2 9 39 21-35 5-4q5 2 9-2l-4 9c7-8 10-9 19-13"/>
  <path style="fill: currentColor" d="m329 157-6 6 3-8c8-19 10-34 14-53l17-70-3-4 1-1 3 1c0-2-12-16-14-19h66l24 23-12 48-31 17 28 43 6 11-7-7 7 16 14 35-8-9-26-31 4 13-45-64-9 40-6 4-1-1 1-3c-3 0-11 10-13 10v-3zm50-121c2 4-2 13-3 17l-5 24c8-3 9 0 18-6l11-7 5-20-5-6zm202 108-9 4v-1l-8 5-1 1v-1c5-11 8-30 11-42l13-49 5-22 3-1q5 0 9-4v3l7-1q3 8 3 17l6 35c2-9 10-48 13-53l3-1 1 2 8-7v3l9-5h1l-29 118h-4l-1 1h-1c-5-7-6-2-10-3-2-2-9-46-10-53l-13 52-5 3zM7 0l21 1q29 4 57 4l23 22c3 4 1 9 8 14l-8 27-3 14-17 12 2-3v-1l-17 10 27 44-2-1 13 21-2-2 20 38c-8-9-20-23-29-31h-1l1 5-12-14q-6-10-14-18l3 9-33-42c-2 1-9 33-11 38l-7 8 2-10-14 21 2-11-16 25L34 45l-9-13 12 3-16-17h4zm49 38 5 5-10 37c12-5 8 1 20-6l11-7 5-18-6-7zm706-8h2c9 6 10 6 19 15q1 9-1 16l-6 23-28 19 19 34 12 21-4-5q11 18 18 38l-28-31h-1l1 3c-4-3-13-15-15-20l-7-10q-9-10-16-24l-8 35-5 3v-4l-12 13 1-5-9 11c8-36 17-76 27-111l-4-7h5c0-3-5-9-6-11zm-22 24c1 5-7 25-5 29 3 1 3-2 4-1v2q4-1 7-5l11-8 2-10-4-5zM268 24l-1 5q6 2 10-3c-8 36-14 78-24 113l3 10c-3-2-15-8-19-7h-6l13-58-9 15-20 31-7-44-5 21-8 35-29 5c12-15 10-14 15-33l12-52c1-5 5-26 7-28l3 1 8-3v2q4 1 8-2l7 46c8-11 20-38 28-47l4-1-1 2zm304 10v2h1l8-3-7 29-13 55c-1 4-6 26-8 28l-4-1-2 2-1-1-1-3c-4-3-5 1-10 0l-3-19-7-35c-2 14-8 38-12 53l-6 2v-2c-2 0-7 5-10 6l-1-1-14 7 11-17c2-2 5-17 6-20l12-54 6-23c1-3 5 0 6-1l6-4 1 3q3 1 7-1c2 2 8 45 10 52 1-7 10-47 13-51h3q5 0 9-4m-65-4-1 5-22 93-21 17h-27l-15-19 20-82 2-6c3 0 2-1 5 1l6-4v2h1q6 0 11-4l-20 82 4 6 8-1 7-6 12-52 7-27 4-1v3l9-7v2l2 1zm-318-1c-6 32-16 68-23 100l-20 17h-27l-15-20c2-10 19-85 22-88 3 0 2-1 5 1l7-6q-2 3-1 6c2 0 10-5 12-7l-8 33-12 51 3 6 8-1 7-7 12-54 7-25 4-2v3l9-7-1 5h1zm524 4 1 1-7 17q2 1 1 4l-28 1-5 23 30-1q-11 8-11 20c-2 2-20 2-25 2 0 5-4 18-5 23h33l-4 11-3 8 3 4h-55l25-108v-2l18-1zM309 75l26-1-10 7 3 1-7 7 8 9-21 1h-35l7-23z"/>
</svg>
