<?xml version="1.0" encoding="UTF-8" standalone="no"?><!DOCTYPE svg PUBLIC "-//W3C//DTD SVG 1.1//EN" "http://www.w3.org/Graphics/SVG/1.1/DTD/svg11.dtd"><svg width="100%" height="100%" viewBox="0 0 441 873" version="1.1" xmlns="http://www.w3.org/2000/svg" xmlns:xlink="http://www.w3.org/1999/xlink" xml:space="preserve" xmlns:serif="http://www.serif.com/" style="fill-rule:evenodd;clip-rule:evenodd;stroke-linejoin:round;stroke-miterlimit:2;"><g id="Bottle-w-BG" serif:id="Bottle w BG"><path d="M159.008,243.066c5.142,1.771 49.741,16.222 50.946,16.056c-1.499,0.751 -2.805,1.161 -3.777,2.413l0.032,0.574c-0.63,1.34 17.148,79.376 18.662,86.173c-38.345,-10.042 -79.099,-19.752 -117.024,-30.685c5.249,-7.971 50.294,-70.243 50.632,-72.961l0.529,-1.57Zm-111.261,120.256c3.074,4.285 11.918,15.428 13.876,18.972c1.506,1.35 7.404,10.256 9.228,12.802c6.461,8.868 12.858,17.783 19.189,26.744c4,5.641 8.637,12.588 12.819,17.918l0.082,154.987c-7.067,-13.022 -13.608,-26.299 -20.683,-39.315c-0.893,-1.642 -2.463,-4.03 -2.999,-5.704l-3.086,-6.464l0.595,-1.062c-2.838,-6.241 -5.601,-13.811 -8.134,-20.26l-14.237,-35.927c-4.099,-10.158 -8.902,-21.555 -12.858,-31.688c-0.755,-1.933 0.498,-19.764 0.646,-23.234l3.323,-68.233l0.695,-0.961l1.544,1.425Zm169.808,344.671c16.164,17.265 32.085,34.748 47.757,52.455c7.666,8.558 20.286,21.96 26.8,30.765c-23.854,2.798 -47.659,6.008 -71.404,9.615c-12.567,1.868 -25.189,3.405 -37.55,6.36c-22.082,5.273 -44.197,10.388 -66.218,15.908c-2.179,0.547 -4.664,1.215 -6.851,1.56c2.725,-3.503 14.75,-13.733 18.874,-17.475c20.313,-18.795 41.294,-36.863 62.903,-54.15l-0.252,-11.273c7.32,-9.66 18.31,-25.065 25.941,-33.765Zm-174.438,-177.888c0.146,3.235 22.423,45.656 25.634,50.948c-1.308,17.316 -1.993,35.851 -2.941,53.278c-1.012,18.597 -2.646,38.85 -3.031,57.319c-1.836,1.37 -14.972,11.579 -16.048,11.831c-3.013,0.567 -19.656,9.56 -23.396,11.51c0.172,-7.44 1.211,-17.186 1.802,-24.875l3.758,-47.193c3.273,-38.685 6.493,-78.994 10.516,-117.558c1.361,1.638 2.457,3.016 3.706,4.74Zm62.547,158.87c-0.265,33.148 1.474,67.806 0.858,100.723c-3.205,4.455 -6.026,8.813 -9.011,13.418c-8.344,-5.783 -9.813,-4.44 -20.22,-4.433c-4.383,5.333 -9.452,9.188 -9.467,15.638c-14.627,-11.76 -29.806,-25.095 -43.994,-37.38c17.353,-19.14 34.821,-38.175 52.404,-57.105c8.735,-9.278 21.552,-21.592 29.43,-30.861Zm84.858,-538.989c2.037,1.257 14.661,-0.836 18.217,-1.175c-0.021,31.357 -0.546,64.244 0.074,95.472l-3.365,2.718c-8.14,-2.805 -16.373,-4.986 -24.606,-7.385c-3.493,-1.018 -14.405,-3.525 -17.214,-5.142c-1.899,-5.672 0.574,-64.485 0.659,-75.127c8.241,-2.783 17.911,-7.452 26.235,-9.361Z" style="fill:#525151;"/><path d="M137.975,236.258l21.033,6.808l-0.529,1.57c-2.964,2.117 -15.48,15.682 -18.747,19.01c-15.855,16.147 -31.292,33.124 -47.221,49.188c-6.306,-1.384 -12.592,-2.855 -18.856,-4.415c-8.869,3.774 -16.915,7.325 -25.594,11.514c-2.048,0.988 -8.534,2.39 -12.164,3.842c7.253,10.081 14.699,20.02 22.335,29.814c1.776,1.973 4.811,6.336 6.645,8.706c5.568,7.222 11.175,14.413 16.82,21.575c-4.075,-2.546 -32.102,-20.439 -33.95,-20.548l-1.544,-1.425l-0.695,0.961l-3.323,68.233c-0.148,3.47 -1.401,21.302 -0.646,23.234c3.956,10.133 8.759,21.53 12.859,31.689l14.236,35.926c2.533,6.449 5.296,14.019 8.135,20.26l-0.596,1.063c-11.696,-25.037 -23.727,-49.915 -36.089,-74.629c-3.07,-6.283 -11.714,-23.059 -13.87,-28.866c-0.875,-2.36 -0.425,-28.098 -0.403,-31.715l0.708,-84.822c15.274,-10.613 30.447,-22.835 45.003,-34.384c22.05,-17.658 44.201,-35.188 66.453,-52.59Zm-107.686,253.373c2.335,3.149 6.18,9.905 8.305,13.481l14.351,24.273l45.148,76.485c-6.897,-7.187 -16.123,-22.165 -22.023,-30.709c-10.419,-15.086 -21.531,-28.745 -32.953,-43.055c-1.249,-1.724 -2.345,-3.102 -3.706,-4.741c-4.023,38.565 -7.243,78.873 -10.516,117.559l-3.758,47.193c-0.591,7.689 -1.63,17.435 -1.801,24.875c3.739,-1.95 20.382,-10.943 23.395,-11.511l-41.813,31.371c1.261,-9.705 2.026,-19.628 3.186,-29.379c8.538,-71.813 14.516,-143.952 22.185,-215.842Zm-30.289,281.888c34.01,-28.74 68.972,-56.332 104.827,-82.736l0.837,0.193c-7.878,9.269 -20.695,21.583 -29.43,30.861c-17.583,18.93 -35.051,37.965 -52.404,57.105c14.188,12.285 29.368,25.62 43.994,37.38c5.059,12.3 10.086,14.797 15.936,25.56c2.89,4.387 7.466,11.175 9.941,15.652l-0.813,1.988c-13.888,-11.865 -27.21,-24.915 -40.462,-37.523c-10.198,-9.705 -21.652,-19.47 -31.402,-29.505c-4.722,-3.352 -16.58,-14.655 -21.024,-18.975Zm206.68,-771.518c11.158,4.021 22.725,8.592 33.82,12.868c11.24,4.332 26.689,10.251 37.253,15.935c-2.696,-0.02 -7.627,-1.294 -10.661,-1.82c-5.569,-0.949 -11.155,-1.795 -16.755,-2.538c2.76,1.669 11.446,6.654 13.245,8.386c-17.279,-6.493 -36.926,-12.774 -54.621,-18.158l-0.158,60.65c-0.01,2.873 0.34,19.739 -0.609,21.15c-0.481,0.215 -1.264,0.622 -1.732,0.7c-16.977,6.376 -39.519,16.995 -54.876,26.394c1.165,4.187 3.575,10.091 5.144,14.287c-6.746,-3.39 -13.397,-6.967 -19.943,-10.728c-0.089,-8.779 -0.851,-19.384 -1.252,-28.257c-0.842,-17.726 -1.559,-35.458 -2.153,-53.194c24.072,-15.796 48.512,-31.025 73.298,-45.675Zm-66.216,156.997c4.972,-3.03 20.695,-11.718 24.868,-14.043c4.614,-2.571 41.815,-13.11 44.727,-12.714c11.277,1.533 40.566,8.136 51.411,11.772c-14.263,-0.144 -28.692,0.952 -42.937,1.296c-11.162,0.268 -17.59,3.651 -28.011,6.678c-8.324,1.908 -17.994,6.578 -26.234,9.361c-0.086,10.642 -2.559,69.455 -0.66,75.127l-23.145,-7.335l-0.019,-70.142Zm65.746,105.112l-0.033,-0.574c0.972,-1.252 2.278,-1.662 3.777,-2.413c10.448,11.403 23.427,23.625 34.475,34.748c13.575,13.687 26.667,27.844 39.253,42.445c3.726,4.323 11.516,12.824 14.512,16.943c-4.432,-3.691 -12.265,-11.622 -16.562,-14.335c-12.644,-7.983 -19.457,-17.313 -29.704,-28.044c-15.325,-16.047 -30.181,-32.883 -45.718,-48.77Zm154.359,307.266c2.826,10.181 3.769,25.487 4.873,36.528c1.975,19.877 3.83,39.764 5.565,59.663c-0.941,-0.778 -2.769,-3.054 -3.651,-4.086l-5.238,-58.04c-0.766,-9.148 -2.332,-25.323 -1.549,-34.065Zm14.756,-28.229c-1.083,2.909 -13.772,20.455 -16.13,23.264c-5.98,5.468 -21.643,17.519 -28.371,22.328c4.575,-5.295 11.235,-11.683 16.259,-16.764c9.491,-9.534 18.906,-19.143 28.242,-28.828Z" style="fill:#fefefe;"/><path d="M21.024,790.493c6.748,3.938 15.065,11.213 21.646,15.893c10.41,7.41 20.719,15.412 31.334,22.552c4.112,2.768 7.447,9.93 9.756,10.943c2.89,4.387 7.466,11.175 9.941,15.652l-0.813,1.988c-13.888,-11.865 -27.21,-24.915 -40.462,-37.523c-10.198,-9.705 -21.652,-19.47 -31.402,-29.505Zm240.781,-648.219c8.829,1.237 25.928,9.209 33.945,12.989c-0.188,24.128 -1.178,48.318 -1.523,72.471l-3.429,2.307c12.757,8.346 30.288,22.541 42.708,31.908c25.811,19.595 51.93,38.781 78.348,57.55c-0.438,33.551 -0.415,70.334 -1.821,103.62c0.059,1.363 0.153,1.353 -0.375,2.579c-1.831,-1.564 -11.782,-13.426 -14.274,-16.234c-0.102,-27.238 0.78,-56.349 1.206,-83.726c-39.641,-32.022 -77.576,-62.871 -118.147,-93.66c-0.128,-8.651 0.323,-17.863 0.518,-26.559l0.989,-45.729l-18.145,-17.516Zm113.52,398.872c10.266,-11.447 20.974,-22.489 32.1,-33.102c3.952,43.951 9.682,89.972 14.469,133.966l4.551,42.536c1.065,10.064 2.013,20.538 3.444,30.55c0.246,1.717 1.386,4.185 1.843,6c-4.606,-3.105 -16.524,-21.294 -20.726,-26.825c-1.572,-28.407 -3.309,-56.804 -5.212,-85.191l-3.613,-54.803c-0.563,-8.284 -0.945,-17.678 -1.69,-25.818c-10.216,8.815 -20.014,18.205 -30.337,26.893c-2.362,1.989 -8.634,7.656 -10.959,9.058c2.358,-2.809 15.047,-20.355 16.13,-23.264Zm-109.481,177.047c10.522,13.058 21.456,25.77 31.974,38.858c12.015,15.21 23.714,30.66 35.093,46.342l-27.659,43.275l25.43,-17.13c3.873,-2.647 9.41,-6.81 13.306,-9.067c5.625,-3.263 12.576,-6.563 18.472,-9.54c9.212,-4.763 18.464,-9.45 27.758,-14.048c18.142,-8.91 15.142,-10.087 35.685,-10.365c-47.065,31.778 -96.163,60.435 -146.979,85.793c14.486,-23.655 29.69,-45.6 44.035,-68.79c-10.901,-16.913 -22.106,-33.615 -33.611,-50.123c-8.2,-11.932 -15.417,-22.687 -24.144,-34.432l0.639,-0.773Zm-15.506,-693.748c5.6,0.743 11.186,1.589 16.754,2.538c3.035,0.526 7.966,1.8 10.662,1.82c5.994,2.864 20.812,11.446 26.7,15.277c-1.005,18.474 -2.161,36.94 -3.47,55.395c-0.582,8.687 -1.504,18.811 -1.74,27.416c-4.838,2.632 -9.879,5.293 -14.65,8.008c1.152,-3.304 2.325,-6.601 3.52,-9.891c-20.369,-11.156 -36.722,-16.076 -56.532,-24.99c17.777,2.973 37.274,6.957 54.776,9.646c2.17,-18.768 4.794,-39.483 6.196,-58.281c-5.875,-4.405 -22.267,-15.703 -28.971,-18.552c-1.799,-1.732 -10.485,-6.717 -13.245,-8.386Zm123.869,381.336c3.791,1.952 30.808,29.16 35.887,34.081c-13.417,22.484 -23.064,41.111 -35.091,64.236c-2.004,3.994 -4.055,7.964 -6.153,11.909c1.397,-5.692 5.565,-17.479 7.5,-23.65c5.417,-17.578 11.028,-35.096 16.831,-52.55c-4.375,-9.485 -13.652,-24.782 -18.974,-34.026Zm-77.713,-89.819c2.07,0.56 18.79,10.476 22.084,12.325l-2.36,-6.869c6.9,8.356 11.687,15.916 17.684,24.931l20.404,30.8c0.998,1.345 2.142,2.682 2.693,4.237c-1.022,-0.562 -7.7,-8.588 -8.843,-9.903c-16.743,-18.945 -33.969,-37.459 -51.662,-55.521Zm-43.108,508.536l0.648,0.915c-19.435,8.348 -41.826,19.973 -60.868,29.49c-4.57,-3.06 -20.793,-13.47 -24.203,-16.515l-5.826,-3.922c8.469,3.487 18.179,7.845 26.499,11.782l3.342,1.47c17.709,-8.017 42.019,-16.447 60.408,-23.22Z" style="fill:#f9b71d;"/><path d="M66.742,331.259c5.52,1.793 47.945,14.237 50.102,13.286c-0.216,-1.487 -1.514,-2.787 -2.502,-4.023c12.026,8.08 12.597,6.799 25.829,11.498c-2.72,-0.126 -4.787,-0.133 -7.503,-0.059c1.513,0.734 4.935,1.954 5.794,2.488c13.243,3.807 25.042,6.438 38.048,9.965c-4.991,-3.05 -10.31,-5.816 -15.445,-8.624c-3.125,-1.708 -6.741,-3.19 -9.687,-5.126c36.594,11.024 73.042,22.526 109.336,34.499c8.701,2.858 16.886,5.719 25.912,7.452c0.827,0.159 2.113,1.117 2.693,1.737l-0.153,0.448l-0.776,0.024c-0.333,5.578 11.267,13.91 14.999,17.78c-1.101,-3.147 -2.175,-6.4 -3.542,-9.455c-0.611,-1.365 -3.029,-4.105 -2.981,-4.918c1.69,1.068 5.452,5.837 7.087,7.547c8.802,9.21 16.02,17.089 23.706,27.341c-2.532,-1.556 -5.051,-3.135 -7.554,-4.735c1.795,6.078 4.109,12.03 6.315,17.976c-0.946,1.439 -2.002,2.973 -2.896,4.428c1.327,1.09 3.958,3.461 5.407,4.007c0.131,-1.125 0.192,-1.754 0.453,-2.866c2.946,3.514 1.264,3.962 5.957,5.585c0.062,1.368 -3.606,7.791 -4.526,10.556c-1.702,5.11 -2.664,8.269 -3.833,13.599c-4.364,2.72 -9.332,5.699 -14.103,7.649l8.441,-0.693c-5.682,2.725 -18.655,10.289 -24.039,13.943c6.776,-2.453 20.579,-9.039 27.228,-12.437c-2.19,7.145 -4.483,14.873 -5.965,22.207c2.353,-1.509 6.327,-4.294 9.13,-4.22c-0.823,3.094 -37.138,27.554 -42.483,31.321c2.792,-3.358 5.31,-6.934 7.53,-10.693c-16.658,9.954 -31.794,20.406 -47.909,31.13c1.994,2.356 10.184,10.483 10.122,12.272l-1.481,1.937c0.433,2.246 14.335,14.255 17.021,16.754c-3.643,-6.411 -7.415,-12.748 -11.315,-19.007c17.305,16.574 34.192,35.342 50.161,53.297c12.037,13.533 26.049,28.275 37.578,42.039c-8.488,-5.972 -16.446,-12.037 -24.749,-18.241c8.7,11.445 18.354,22.516 28.744,32.457c11.048,10.572 21.234,22.039 32.041,32.804c-3.48,-6.772 -7.152,-13.447 -11.011,-20.011c11.818,11.986 23.341,24.271 34.556,36.826c-7.775,-5.797 -13.456,-10.335 -21.75,-15.585c5.236,6.585 11.145,12.375 16.901,18.435c1.858,1.958 10.351,9.855 11.118,11.385c-3.078,-1.83 -5.325,-4.132 -8.166,-6.202c6.246,9.315 14.111,18.165 21.132,26.932c5.655,7.065 10.332,12.023 14.302,20.31c-2.341,-1.072 -3.732,-2.07 -5.839,-3.517c-23.519,-16.125 -43.027,-39.39 -65.743,-56.37c4.867,9.66 10.861,19.53 16.156,29.055c-6.268,-5.363 -15.993,-12.885 -21.288,-18.728c-16.234,-17.91 -33.404,-34.056 -50.85,-50.734c-7.099,-6.787 -14.407,-12.746 -21.561,-19.494c4.728,7.233 16.25,23.289 21.519,29.901c-11.988,-8.949 -33.511,-31.333 -40.746,-43.499c2.768,1.835 6.706,4.591 9.587,6.087c-8.866,-15.002 -24.81,-34.379 -38.624,-45.315c5.054,6.298 11.511,15.026 16.761,20.808c-4.968,-3.753 -10.027,-7.385 -15.172,-10.893c3.325,4.845 8.434,11.628 11.259,16.446c-12.605,-10.472 -24.161,-22.887 -35.801,-34.453c-2.245,-2.229 -8.085,-11.732 -10.208,-12.209l-0.065,1.362c-3.926,-2.653 -18.774,-17.655 -23.012,-21.618c-0.051,8.841 -0.005,17.963 -0.15,26.829c-0.053,3.273 -1.681,6.7 -1.542,9.237c0.982,17.772 0.3,35.541 0.898,53.287c0.192,5.698 0.425,11.915 0.095,17.62c-2.587,2.758 -5.11,5.575 -7.566,8.451c-0.344,-8.226 -0.788,-16.448 -1.332,-24.662c-1.383,5.514 -5.727,8.307 -3.528,12.882c-1.235,2.311 -3.986,3.725 -4.104,4.044c-2.924,7.902 -5.675,17.947 -9.196,25.466c-1.589,-22.476 -3.943,-43.829 -4.392,-66.662l-0.866,-2.567c-0.144,20.698 -1.983,42.06 -2.739,62.765c-0.086,2.365 -7.998,22.386 -9.322,26.189c-0.884,-11.378 -1.875,-22.397 -2.474,-33.801c-2.439,15.118 -6.548,30.171 -9.422,45.223c-0.479,2.513 -1.001,5.198 -1.84,7.605l-0.127,-0.15l-0.218,-0.015c-0.057,-0.967 -0.081,-1.207 -0.024,-2.182c-0.12,-14.28 -0.915,-28.98 -1.098,-43.311c-0.06,-4.685 -1.299,-10.367 -1.295,-15.193c0.004,-4.018 0.892,-8.129 0.882,-12.043l-0.483,-158.489c-0.028,-7.195 -1.062,-61.152 -0.054,-63.747l0.672,-0.105l1.427,1.433c4.158,4.3 8.224,8.763 12.432,12.99c0.012,-1.818 -0.435,-3.706 0.469,-4.656l1.196,1.065c3.193,2.802 7.349,7.215 10.601,10.305c6.618,6.19 13.273,12.339 19.966,18.448c-9.345,-13.477 -19.015,-25.737 -28.953,-38.635l-32.835,-42.784c3.068,1.273 10.056,3.376 12.068,4.417c5.367,2.78 8.878,4.686 14.606,7.17c-3.019,-4.102 -16.051,-20.257 -19.816,-22.86c-3.089,-2.556 -8.102,-8.08 -11.09,-11.114c-5.338,-5.338 -10.727,-10.625 -16.168,-15.86c8.503,3.127 18.819,6.257 27.515,8.998c-3.727,-4.349 -7.972,-8.039 -11.568,-12.521c-1.676,-1.238 -2.492,-4.246 -5.718,-4.873c-3.368,-2.461 -8.738,-7.785 -12.163,-10.83c-7.386,-6.494 -14.851,-12.899 -22.391,-19.212Zm111.113,87.768c1.631,1.152 5.54,4.238 7.163,4.471c0.788,3.463 0.525,29.797 0.536,34.637l0.394,79.315c8.676,-5.691 17.805,-10.827 26.439,-16.609c1.55,-1.037 4.407,-3.136 6.005,-3.897c1.417,0.126 4.611,-1.082 5.728,-1.944c11.754,-9.061 24.845,-15.992 36.454,-25.198c4.172,-3.309 8.804,-6.685 13.133,-9.629c-0.192,-4.958 -0.49,-20.575 -2.086,-24.237c-1.853,-1.163 -4.69,-2.237 -6.764,-3.114l-5.72,-8.238l-39.865,-12.646c-8.022,-2.611 -17.906,-6.23 -25.948,-8.171c-3.229,-2.107 -11.403,-3.519 -15.469,-4.74Z" style="fill:#f9b71d;"/></g></svg>