<?xml version="1.0" encoding="UTF-8" standalone="no"?><!DOCTYPE svg PUBLIC "-//W3C//DTD SVG 1.1//EN" "http://www.w3.org/Graphics/SVG/1.1/DTD/svg11.dtd"><svg width="100%" height="100%" viewBox="0 0 1401 550" version="1.1" xmlns="http://www.w3.org/2000/svg" xmlns:xlink="http://www.w3.org/1999/xlink" xml:space="preserve" xmlns:serif="http://www.serif.com/" style="fill-rule:evenodd;clip-rule:evenodd;stroke-linejoin:round;stroke-miterlimit:2;"><g id="Full"><g id="Waveform-Right" serif:id="Waveform Right"><path d="M1301.09,231.645c0.701,0.249 1.294,0.467 2.015,0.674c2.273,19.516 2.221,41.293 2.67,61.055c0.09,3.95 1.433,8.457 1.56,13.785c0.331,13.715 -0.52,26.706 -1.153,40.376c-0.421,0.452 -0.303,0.469 -0.799,0.632c-2.151,-11.867 -2.434,-22.916 -4.198,-34.357l-0.769,0.237c-0.768,7.463 -0.109,14.278 0.336,21.742c0.288,5.185 0.503,10.374 0.644,15.566c0.562,-2.66 0.868,-5.362 1.455,-7.969c1.984,10.845 0.448,30.496 0.022,41.977c-0.263,7.137 -0.48,14.428 -0.682,21.585l-5.864,-0.002c0.035,-10.208 -1.145,-20.247 -1.488,-30.311l-0.743,-29.977c-0.125,-4.12 -0.521,-8.213 -0.669,-12.366c-0.28,-7.902 0.583,-15.745 0.017,-23.595c-0.543,-7.522 -0.259,-15.09 -0.293,-22.627c0,-2.626 0.489,-5.969 0.748,-8.677c0.678,-7.079 -0.476,-17.376 0.919,-24.114c0.571,0.539 0.648,1.121 0.943,1.931c1.103,-1.101 0.278,-8.342 0.829,-9.4c3.583,-6.875 -1.181,-9.486 4.5,-16.165Z" style="fill:#f9b71d;"/><path d="M1322.48,258.391c0.445,1.541 1.73,13.095 2,15.286c0.6,-0.038 0.35,-0.116 0.775,0.144c0.804,5.198 0.043,10.908 0.676,15.968c1.134,9.093 1.498,17.983 1.801,27.145c0.08,2.384 -0.468,5.127 -0.501,7.544c-0.147,10.959 -1.239,21.884 -2.51,32.759c-0.799,7.388 -0.312,14.408 -1.839,21.862c-0.638,-1.818 -0.917,-3.189 -1.328,-5.069c-0.26,-0.647 -0.988,-1.448 -1.579,-1.842l-1.049,0.281l-0.501,-0.358c-2.76,-5.583 -4.481,-77.642 -2.794,-85.627c0.251,0.301 0.431,0.529 0.662,0.849l0.199,0.278c0.482,-1.581 0.321,-2.858 0.477,-4.503c0.402,-4.345 0.307,-7.602 1.602,-11.777l0.1,0.148c1.106,-3.024 2.916,-11.347 3.809,-13.088Z" style="fill:#f9b71d;"/><path d="M1277.06,259.192c1.683,1.13 2.66,9.934 3.791,11.993c0.588,-0.377 0.317,-0.369 0.834,-0.288c1.119,4.072 0.876,16.664 1.754,18.497c0.285,-0.377 0.568,-0.755 0.849,-1.135c0.609,1.495 1.587,26.175 1.211,29.454c-1.478,12.87 -0.764,28.53 -2.685,41.081c-0.282,-1.912 -0.47,-4.073 -0.722,-6.034c-1.021,5.976 -1.561,12.172 -2.421,18.237c-0.331,2.086 -0.226,3.965 -0.608,5.948l-2.47,0.67c-0.382,-1.397 -0.214,-4.357 -0.363,-5.952c-1.321,-14.124 -1.846,-28.254 -2.224,-42.428c-0.125,-4.665 -1.252,-9.122 -0.987,-13.936c0.19,-3.457 0.099,-6.768 0.758,-10.235c0.588,-8.716 0.216,-17.619 0.597,-26.35c0.112,-2.555 1.049,-5.24 1.343,-7.756c0.461,-3.942 0.822,-7.844 1.343,-11.766Z" style="fill:#f9b71d;"/><path d="M1344.89,288.562c0.638,0.978 0.94,7.208 1.087,8.944c0.657,6.932 1.881,13.314 1.72,20.334c-0.297,12.935 -1.781,25.751 -2.538,38.622c-1.058,-0.951 -2.193,-1.887 -3.28,-2.811l-0.61,-3.109c-0.666,-2.199 -1.541,-8.998 -2.481,-10.01l-0.534,1.274c-0.478,-0.457 -1.229,-2.237 -1.267,-2.816c-0.331,-5.747 -0.969,-15.378 -1.22,-20.815c-0.141,-3.074 0.672,-21.27 1.461,-22.386l0.775,0.191c2.089,-1.331 1.347,-5.581 3.087,-6.84l1.276,0.563c1.04,-0.128 1.621,-0.598 2.524,-1.141Z" style="fill:#f9b71d;"/><path d="M1261.74,293.433c2.953,3.891 3.72,11.362 4.43,12.208c0.688,-0.469 0.431,-0.49 1.034,-0.463c0.864,3.646 1.414,24.071 -0.728,26.228l-0.629,-0.921c-0.951,1.007 -2.487,9.952 -2.959,12.145l-0.32,1.04c-0.967,0.146 -0.926,-0.814 -1.949,-1.223c-0.89,-0.356 0.017,0.783 -1.332,0.056c-1.285,-4.163 -1.425,-12.961 -1.961,-17.731c-0.509,-4.541 0.254,-10.261 -0.015,-14.895c0.169,-0.99 -0.36,-8.364 -0.037,-8.872c1.341,-2.108 3.261,-4.676 4.466,-7.572Z" style="fill:#f9b71d;"/><path d="M1360.53,305.074c0.317,0.33 2.34,2.94 2.524,3.019c1.276,0.537 1.517,-0.182 2.77,0.949c1.286,5.066 0.161,14.265 0.165,19.518c0,7.389 -2.018,2.581 -4.84,8.199l-0.354,0.349c-0.548,-0.131 -0.884,-0.325 -1.163,-0.862c-0.69,-1.343 -1.782,-1.248 -2.845,-2.306c-0.828,-4.64 -0.237,-13.32 -0.043,-18.08c0.104,-2.545 -0.033,-5.059 0.038,-7.644c1.191,-1.116 2.477,-2.119 3.748,-3.142Z" style="fill:#f9b71d;"/><path d="M1375.21,313.007c2.666,0.189 5.55,0.108 8.239,0.09c-0.118,5.662 0.222,10.984 -0.146,16.765c-3.933,-1.579 -3.796,-1.436 -8.253,-1.17c0.033,-4.127 -0.057,-11.838 0.16,-15.685Z" style="fill:#f9b71d;"/><path d="M1392.52,315.331l7.917,-0.002c-0.07,2.618 0.497,8.177 -0.463,10.64c-0.127,0.324 -0.917,0.24 -1.399,0.263c-1.182,-0.046 -3.479,-0.236 -4.556,0.015c-0.35,0.081 -0.549,1.085 -0.714,1.579l-0.444,0.127c-0.757,-1.493 -0.884,-11.072 -0.341,-12.622Z" style="fill:#f9b71d;"/></g><path id="Rhapsody" d="M943.393,339.008c0.329,-0.249 0.665,-0.505 1.006,-0.77l-1.027,0.926l0.021,-0.156Zm-0,0c-10.834,8.185 -15.317,8.177 -25.281,15.295l3.952,-12.339l-4.702,-5.899c-10.785,-0.072 -13.493,2.985 -22.335,8.922c-0.893,3.175 -1.74,6.601 -2.58,9.81c10.245,9.352 28.627,21.855 38.962,32.094c0.585,0.582 0.27,1.127 0.083,1.865c-1.058,0.361 -1.823,0.584 -2.82,1.127c0.015,1.757 -0.593,10.864 -0.465,11.153l2.782,-1.118l0.443,0.822c-1.02,4.08 -6.915,9.748 -8.483,14.971c0.788,0.242 1.215,0.376 1.973,0.707c-4.47,8.697 -21.383,20.958 -30.18,25.634c-2.235,1.19 -15.788,3.575 -19.073,4.217c1.748,-1.398 4.05,-2.948 5.903,-4.276c-12.78,3.468 -24.923,7.811 -38.22,11.314c3.105,-2.147 8.805,-5.853 11.212,-8.378l-0.15,-0.607l-3.225,0.688c-12.082,3.34 -24.712,6.359 -36.9,9.437c6.983,-4.351 17.153,-12.584 23.573,-17.861c-2.783,0.281 -5.873,0.759 -8.67,1.127c4.455,-3.32 9.817,-7.843 13.71,-11.802l-0.083,-0.522l-6.112,0.437c3.922,-2.557 19.56,-14.265 22.305,-14.816l-0.975,2.03l0.495,0.342c3.277,-1.261 7.455,-4.61 10.402,-6.761c-1.297,2.16 -4.792,6.83 -4.71,8.728l4.065,1.026c-0.255,1.266 -0.412,1.574 -0.93,2.768l1.373,0.45c9.097,-1.316 19.53,-7.697 26.97,-12.906l2.67,-9.572c-11.648,-11.311 -24.698,-20.178 -36.833,-32.035c0.758,-2.305 3.015,-8.432 2.243,-10.314l-1.5,0.54c-0.803,-3.062 7.102,-16.561 7.447,-20.652c0.038,-0.435 2.498,-2.486 3.06,-2.95c3.893,3.794 7.838,7.529 11.843,11.207c-1.695,-5.562 -3.21,-10.316 -5.273,-15.742c5.378,-3.634 18.885,-12.789 24.443,-14.444c7.29,-2.169 18.705,-4.356 26.587,-6.243l0.128,0.058c-0.27,1.352 -3.15,3.051 -4.545,4.096c11.272,1.492 10.567,0.866 21.405,-4.197c-2.355,4.275 -8.033,14.087 -2.895,18.402c0.847,-1.013 1.455,-1.886 2.565,-2.615c-0,2.961 -2.913,11.393 -3.654,16.782Zm-480.313,-34.046l61.47,0.105c4.394,4.108 13.304,13.151 17.522,15.965c1.833,-0.723 -0.36,-1.794 1.078,-4.045c3.189,1.961 15.458,13.527 19.073,16.784l-10.958,41.483c-11.284,6.6 -22.497,13.321 -33.635,20.165c10.888,16.457 22.475,33.418 32.642,50.237l-7.311,-5.447c2.282,4.983 10.628,18.608 14.269,22.255l0.378,-0.799l0.644,0.126c1.898,2.782 4.402,6.122 5.591,9.196c-0.937,-0.363 -1.289,-0.577 -2.314,-0.549c0.769,2.28 14.74,25.678 16.78,29.271c-8.824,-8.544 -20.375,-18.183 -29.719,-26.509l3.127,9.253c-4.361,-5.293 -8.875,-10.458 -13.537,-15.488c-4.692,-5.398 -21.645,-29.86 -24.666,-31.975l0.329,3.81l-0.475,0.115c-6.656,-8.296 -17.352,-25.275 -23.737,-34.597c-5.357,18.515 -10.985,42.022 -15.689,60.924c-2.578,1.396 -5.399,3.647 -7.79,5.43l2.373,-12.222c-4.306,6.527 -9.55,12.384 -15.563,17.382l0.058,-0.244c-4.34,2.587 -5.905,4.709 -9.22,8.521c4.363,-20.769 10.082,-42.563 15.138,-63.204c7.105,-29.803 14.459,-59.547 22.06,-89.228c-2.881,-3.358 -5.783,-6.699 -8.706,-10.021c3.467,0.227 7.332,0.688 10.824,1.035c-6.619,-5.976 -13.299,-11.886 -20.036,-17.729Zm42.108,28.52c0.4,0.72 0.885,1.86 0.737,2.679c-2.355,13.005 -7.008,26.741 -9.804,39.603c1.98,-0.954 4.96,-2.702 6.993,-2.438c-0.018,0.855 -0.025,1.318 0.047,2.186c1.792,-0.201 9.719,-5.672 11.785,-7.009c4.128,-2.335 8.945,-4.917 12.849,-7.5c1.996,-7.024 4.015,-14.732 6.157,-21.655l-5.132,-4.936c-7.283,-0.331 -16.616,-1.083 -23.632,-0.93Zm551.434,-21.035c10.74,-0.209 21.48,-0.31 32.22,-0.301c7.11,6.886 13.837,14.162 20.152,21.794c-0.015,5.303 1.185,19.734 0.27,23.896c-3.87,17.587 -10.68,37.371 -15.015,54.828c-9.037,8.296 -17.55,16.921 -26.79,25.228c-3.967,0.498 -8.295,1.27 -12.27,1.902l5.603,-4.869c-9.998,3.461 -20.153,6.443 -30.435,8.932l-1.08,0.021l-0.158,-0.482l4.71,-3.353c-9.96,3.395 -20.91,5.927 -31.155,8.235c3.038,-3.433 8.385,-6.897 10.845,-10.818l-0.427,-0.586l-3.938,-0.153c1.253,-1.948 4.965,-3.812 6.9,-5.365c4.058,-3.242 1.898,-1.718 0.578,-4.956c0.66,-2.289 3.472,-3.871 5.512,-5.34c6.503,-28.871 14.153,-57.851 20.805,-86.919c-1.552,-2.561 -3.81,-5.966 -4.755,-8.712c0.81,-0.245 1.62,-0.475 2.43,-0.691c-1.02,-2.61 -7.08,-9.491 -9.202,-12.051l25.2,-0.24Zm8.79,25.364c-6.525,25.55 -12.78,51.166 -18.773,76.844c4.268,-1.026 12.555,-2.656 15.863,-4.93c12.75,-9.686 14.325,-15.612 18.555,-30.439c3.397,-11.889 5.122,-19.728 4.68,-32.042l-7.83,-9.162l-12.495,-0.271Zm-66.053,-26.758c1.628,-0.293 9.39,0.719 11.438,0.951c6.292,6.988 12.412,14.134 18.345,21.433c-5.663,26.415 -13.68,58.174 -20.745,84.318c-9.69,8.856 -20.595,16.984 -30.953,25.126c-3.855,0.17 -12.375,2.114 -13.86,1.617l1.41,-2.201l0.803,-0.738l-0.255,-0.635c-8.31,1.092 -6.818,-1.893 -11.7,-2.746l0.285,1.615l-1.26,0.168c-5.603,-1.676 -14.288,-15.874 -18.293,-21.061c7.373,-26.796 13.62,-56.792 20.85,-84.411c8.528,-7.119 17.865,-14.244 26.558,-21.311c4.725,-0.392 9.712,-0.92 14.43,-0.874c1.042,0.01 1.905,-0.683 2.947,-1.251Zm-9.082,26.722c-5.693,0.024 -9.645,4.454 -13.86,8.382c-5.85,20.806 -10.62,40.92 -15.623,61.938l5.64,7.851l8.325,-0.059c3.938,-0.214 10.455,-7.156 13.658,-10.074c5.032,-20.32 10.372,-40.92 15.112,-61.273l-5.347,-6.918l-7.905,0.153Zm-258.523,-29.637l0.935,0.488c-0.345,1.007 -0.538,1.392 -0.569,2.484c1.805,0.204 11.032,-2.174 15.187,-2.539c-0.203,23.663 -2.46,51.921 -3.353,76.094c3.945,-0.348 7.898,-0.721 11.843,-1.117c-4.733,3.722 -7.35,4.246 -6.9,8.74c0.09,0.875 -2.82,3.228 -2.73,7.177c0.982,2.309 3.187,3.387 5.325,4.748l-8.16,2.669l-2.543,57.045c-1.23,-2.777 -4.493,-12.784 -5.835,-14.137l-0.599,0.224l-0.661,4.228c-1.885,-6.629 -2.703,-13.983 -4.659,-21.025c-0.603,5.305 -1.19,12.11 -2.319,17.201l-3.817,-5.206c-1.27,0.213 -1.127,0.587 -2.201,2.004c-1.851,0.579 -2.457,0.848 -3.93,2.148l-0.729,-0.227c0.772,-12.4 1.374,-23.387 1.455,-35.819c-10.767,0.387 -21.888,3.341 -32.496,5.681l-4.012,7.888l-10.355,21.137l-7.32,3.151l2.732,-6.957c-4.521,3 -6.632,4.48 -10.622,8.112c1.413,-4.686 3.165,-9.18 4.89,-13.756c-10.246,16.699 -11.216,12.712 -24.765,23.543c6.97,-14.121 14.085,-28.169 21.344,-42.144l-6.797,0.371c1.844,-1.588 7.501,-6.248 8.658,-7.914l-2.904,-0.326c0.549,-1.588 6.51,-7.97 7.967,-9.577l-0.074,-0.816l-2.547,-0.307c1.581,-3.189 5.571,-2.84 9.016,-9.371c2.906,-5.509 5.567,-12.21 8.37,-17.502c9.611,-17.795 19.439,-35.472 29.482,-53.027l-7.57,-9.058c10.586,-0.654 22.049,-0.078 31.263,-4.308Zm-12.033,39.592c-2.818,5.145 -23.186,43.355 -22.808,45.664c7.256,-1.478 14.485,-3.086 21.684,-4.826c0.169,-6.034 1.947,-37.163 1.124,-40.838Zm-63.454,-38.04l0.263,-0.514c0.982,2.083 0.337,1.463 2.38,2.365c2.937,-0.326 6.335,-2.773 8.969,-4.373c-4.037,18.528 -11.169,40.21 -15.784,59.38l8.124,-0.08c-5.162,3.938 -9.265,9.097 -11.938,15.013c-1.53,3.333 -3.809,14.158 -5.009,18.375c-3.893,13.677 -8.064,27.379 -11.566,41.149c-1.704,1.051 -2.79,1.926 -4.766,2.183l-1.823,-1.483c-1.937,0.792 -5.121,4.856 -6.674,6.63c1.211,-5.695 2.201,-12.759 3.18,-18.593c-2.773,7.66 -4.889,14.512 -11.756,19.498c-4.99,3.622 -4.501,2.976 -8.491,7.758c5.952,-20.649 12.029,-43.72 17.574,-64.536c-13.291,2.019 -16.578,3.103 -29.552,7.068c-1.655,6.669 -4.06,13.047 -5.989,19.645c-2.776,9.494 -5.421,19.043 -8.067,28.574c-1.566,0.811 -2.68,1.623 -4.386,1.504c-0.598,-1.053 -0.838,-1.774 -1.92,-2.284c-2.274,0.974 -5.034,4.101 -6.888,5.956c1.109,-5.494 2.163,-10.999 3.163,-16.513c-2.255,4.166 -4.423,8.612 -6.565,12.856c-1.79,-3.775 -3.729,-7.073 -5.811,-10.686c3.723,-15.236 7.394,-31.087 11.614,-46.141c-3.939,-0.486 -8.283,-0.471 -12.274,-0.563c3.909,-2.244 9.427,-4.829 11.561,-8.756c-1.979,-0.392 -1.809,-0.058 -3.146,-1.193c0.867,-1.128 5.739,-3.68 7.275,-4.553c4.626,-17.681 9.088,-35.404 13.386,-53.167c-2.34,-5.799 -4.165,-7.882 -8.03,-12.617c3.212,-0.016 16.094,-0.34 18.361,0.375l0.536,2.345c2.11,-0.192 6.159,-3.318 8.162,-4.67c-0.436,1.906 -1.616,5.448 -0.918,7.001l2.067,-2.797l-0.2,0.723c2.76,-0.854 8.489,-3.47 11.37,-4.688c-5.065,20.667 -10.483,41.247 -16.249,61.731c9.797,-1.983 19.338,-3.57 29.153,-5.825c1.942,-7.779 11.937,-48.102 14.956,-52.981c1.758,-0.531 2.888,-1.034 4.717,-0.687l0.172,1.394c2.339,0.172 5.635,-2.141 7.825,-3.384l-2.106,9.218l5.1,-9.657Zm151.017,-3.755c20.918,-1.525 37.448,9.097 51.068,24.103c-3.39,15.366 -7.635,31.607 -11.415,46.939c-20.153,12.531 -34.17,17.992 -56.513,26.213c-3.72,14.414 -9.022,29.822 -13.695,44.03l-5.392,4.051l1.515,-9.687c-1.928,2.813 -7.635,11.781 -10.118,13.442l-0.6,-1.638c-6.277,8.368 -10.702,11.628 -16.462,20.743c1.267,-5.217 16.432,-64.801 16.155,-66.138c-1.268,-0.069 -1.905,-0.055 -3.173,0.03c0.915,-4.09 6.908,-9.618 6.465,-13.041l-1.65,-0.608c6.96,-12.551 7.013,-18.615 10.5,-32.381c2.415,-9.739 5.078,-19.415 7.98,-29.018l-8.122,-9.838c2.31,0.118 5.31,0.533 7.305,-0.445l0.195,-1.171c-1.613,-2.832 -10.035,-8.514 -13.028,-12.395c12.968,-1.345 25.965,-2.41 38.985,-3.191Zm-1.012,27.798c-0.293,5.871 -8.325,35.38 -10.11,43.464c5.19,-1.97 12.487,-4.469 17.092,-7.245c4.673,-2.359 7.793,-3.965 12.143,-6.832c1.86,-6.994 3.787,-14.96 5.842,-21.823l-5.272,-6.228c-7.238,-0.906 -12.308,-1.576 -19.695,-1.336Zm388.065,-29.456l0.72,0.201c-0.78,5.535 -22.635,39.759 -26.483,47.901c-5.79,12.253 -14.587,26.29 -20.055,38.762c-5.235,11.955 -9.57,24.181 -14.227,36.242c2.145,0.517 4.725,0.919 6.93,1.318c-8.205,5.021 -15.833,8.367 -24.33,12.706c-2.85,1.456 -10.545,8.711 -13.365,9.024c0.682,-1.161 1.867,-2.658 1.77,-3.753c-10.373,5.923 -24.803,16.197 -35.063,23.039c9.285,-9.906 17.97,-20.453 26.94,-30.689c-2.842,1.218 -6.352,3.011 -9.195,4.372l7.898,-7.831c7.995,-7.473 14.985,-13.139 19.252,-23.587c4.508,-11.054 9.068,-22.112 13.583,-33.169c-4.35,-16.793 -9.548,-33.469 -14.123,-50.209c-2.055,-7.522 -5.535,-13.875 -10.005,-20.194c3.255,0.481 12.053,2.989 13.86,2.634l0.165,-2.66c1.943,0.315 3.008,2.645 4.455,4.605l0.96,0.036l-0.375,-2.539c1.545,-0.619 4.845,1.408 5.288,1.267c1.927,-0.607 3.247,-1.77 5.91,-1.436c2.317,4.236 8.01,32.363 9.615,39.032c7.08,-10.814 13.695,-24.756 20.737,-35.887c1.935,-3.054 1.568,-2.798 4.763,-3.593c3.795,2.394 5.197,0.462 8.73,-1.476l-3.398,8.26c6.525,-7.479 9.945,-8.475 19.043,-12.376Z" style="fill:#fefefe;"/><path id="Rum-Runner" d="M767.324,292.861l-6.622,6.064l3.037,-8.4c8.153,-18.51 10.08,-33.243 14.618,-52.877c5.22,-23.173 10.665,-46.297 16.32,-69.37c-1.058,-1.698 -1.53,-2.587 -2.378,-4.377l0.638,-0.51l3.06,0.941c0.135,-2.531 -11.865,-16.682 -13.965,-19.187c22.035,-0.046 44.07,-0.232 66.105,-0.561c8.092,7.605 16.132,15.268 24.112,22.99c-3.502,15.998 -8.062,32.416 -12.247,48.296c-9.773,5.793 -20.7,11.616 -30.683,17.197c8.708,14.4 19.17,28.058 27.66,42.47c1.86,3.519 4.013,7.386 5.693,10.952c-1.553,-1.667 -5.048,-5.631 -6.578,-7.039c2.063,5.662 4.883,10.921 7.178,16.469c3.39,8.185 6.555,16.525 9.735,24.796l3.622,10.013l-7.252,-8.644c-8.573,-10.352 -17.228,-21.038 -26.16,-31.052l3.682,12.537c-15.72,-19.793 -29.73,-43.054 -44.452,-63.888c-2.783,13.228 -6.525,27.245 -9.51,40.639c-1.92,1.222 -3.533,2.219 -5.543,3.297l-0.832,-0.412l0.667,-3.161c-3.217,-0.558 -10.665,9.879 -13.35,10.203l0.548,-3.507c-1.425,0.242 -5.663,4.754 -7.103,6.121Zm49.763,-120.535c1.792,3.223 -1.613,13 -2.633,16.998c-2.055,7.935 -3.885,15.927 -5.49,23.967c8.145,-3.607 8.955,-0.872 17.858,-6.171c3.495,-2.216 8.137,-4.971 11.437,-7.3c1.703,-6.47 3.375,-13.206 5.31,-19.591l-5.212,-6.214c-6.623,-0.656 -14.73,-1.669 -21.27,-1.689Zm202.496,107.446c-1.619,0.061 -7.809,3.247 -9.364,3.971l0.383,-0.452c-3.675,0.754 -5.393,2.473 -8.288,4.781l-1.357,0.548l-0.135,-0.773c4.897,-10.906 8.722,-29.619 11.73,-41.984l12.21,-49.367c1.515,-6.314 3.315,-15.661 5.67,-21.826c0.367,-0.962 1.8,-0.894 2.94,-0.988c4.17,-0.343 4.965,-1.097 8.392,-3.636l0.623,2.7c1.297,0.69 5.415,-0.62 7.14,-1.052c1.417,4.037 2.257,12.574 3.015,17.065c1.95,11.473 3.315,23.607 5.745,34.959c2.017,-8.554 10.035,-47.71 12.787,-52.853c2.063,-1.285 1.365,-1.218 3.368,-1.282l0.765,1.958c2.985,-1.004 4.672,-4.826 7.732,-6.143l-0.285,2.412l0.435,0.5c3.12,-0.943 6.458,-3.671 9.18,-5.637l0.45,0.465c0.075,2.8 -26.82,114.226 -28.245,117.802c-1.98,0.735 -1.965,0.26 -4.477,-0.525l-0.968,1.831l-0.93,-0.198c-5.167,-7.576 -6.112,-1.962 -10.41,-3.332c-1.192,-1.618 -8.16,-46.316 -9.982,-52.463c-3.24,16.608 -8.243,35.637 -12.285,52.131c-1.905,1.071 -3.33,2.032 -5.49,2.402l-0.182,-0.623l0.047,-0.375c-0.046,-0.011 -0.099,-0.017 -0.161,-0.017l-0.094,-0.324l0.041,0.325Zm0.167,0.391l-0.058,0.472l-0.109,-0.863l0.053,-0.001l0.114,0.392Zm-574.995,-144.203c6.298,0.314 15.896,0.227 21.735,1.142c18.93,2.97 37.213,3.491 56.355,4.245c7.554,7.008 16.92,14.025 23.518,21.753c3.185,3.731 1.106,8.427 7.304,13.404c-2.327,9.597 -5.065,18.417 -7.87,27.868c-0.758,2.553 -1.567,12.099 -2.687,13.128c-4.714,4.329 -11.736,8.558 -17.16,12.11l2.115,-2.885l-0.167,-0.68c-2.41,0.585 -13.742,8.236 -16.796,10.183c2.824,4.839 27.399,42.673 27.512,43.266c-1.267,-0.588 -1.399,-0.72 -2.762,-0.75c0.783,2.501 10.075,14.766 12.894,20.733l-1.526,-1.805c4.995,12.314 13.437,26.467 20.105,38.29c-7.928,-9.142 -20.693,-22.667 -29.318,-31.049l-0.6,0.059c0.339,1.958 0.516,2.907 0.526,4.95c-1.465,-0.536 -9.836,-12.241 -11.506,-14.496c-4.664,-6.123 -9.484,-12.126 -14.457,-18l3.029,9.407c-9.81,-13.025 -19.382,-26.135 -28.628,-39.564c-0.766,-1.112 -2.592,-2.16 -3.796,-2.822c-2.111,1.659 -9.929,33.101 -11.404,38.634c-2.395,2.334 -4.954,5.202 -7.267,7.671l1.958,-9.413l-14.236,20.786l2.548,-11.462c-4.604,8.369 -10.526,17.423 -15.784,25.368c11.606,-44.827 22.919,-89.73 33.939,-134.705l-9.652,-13.595c3.714,1.188 8.43,2.294 12.271,3.296c-5.05,-5.67 -10.472,-11.223 -15.634,-16.837c1.542,-0.737 1.959,0.776 3.681,-0.046c-3.298,-4.248 -13.602,-13.351 -18.24,-18.184Zm49.383,38.381l4.834,4.701c-3.165,12.137 -6.261,24.49 -9.55,36.576c11.887,-4.491 7.342,0.925 19.488,-6.216l11.031,-6.438c1.582,-6.342 3.268,-12.108 5.141,-18.349l-5.687,-6.795c-8.327,-1.413 -16.869,-2.407 -25.257,-3.479Zm705.704,-8.759l2.092,-0.021c9.225,6.67 10.02,6.825 18.803,15.469c0.082,6.571 0.922,9.37 -0.773,16.01c-1.935,7.532 -3.682,15.265 -5.437,22.844c-9.518,6.109 -18.938,12.376 -28.245,18.799c5.64,11.399 12.862,22.854 19.132,33.941c1.988,3.507 11.108,17.847 11.925,20.913c-1.575,-1.263 -2.902,-2.9 -4.237,-4.419c5.527,12.512 12.742,24.177 17.872,37.477c-9.225,-10.291 -18.525,-20.518 -27.892,-30.679l-0.608,0.194l0.518,2.843l-0.323,0.33c-3.862,-3.868 -12.097,-15.432 -14.985,-20.173c-1.95,-3.667 -3.697,-7.081 -6.45,-10.253c-6.12,-7.068 -10.852,-15.581 -15.735,-23.564c-2.932,11.484 -5.737,23.001 -8.422,34.546c-1.973,1.341 -2.513,1.736 -4.778,2.62l-0.592,-0.493c0.39,-1.183 0.555,-1.405 0.232,-2.631c-1.147,0.229 -10.057,10.412 -11.58,12.089c0.413,-1.6 0.848,-2.64 0.525,-4.25c-1.665,0.986 -6.862,8.862 -8.512,11.081c7.98,-36.01 16.927,-76.252 26.355,-111.713l-3.195,-6.37l0.315,-0.741c1.425,0.236 2.475,0.575 3.81,0.115c0.345,-2.944 -4.103,-8.404 -5.933,-10.91c15.368,-1.146 30.735,-2.165 46.118,-3.054Zm-21.863,24.345c1.41,4.778 -6.622,24.899 -5.347,28.805c3.54,0.674 3.345,-1.68 4.987,-0.508l-0.555,1.777c2.16,-0.581 5.108,-3.196 6.99,-4.666c4.148,-3.42 6.48,-5.185 11.018,-8.042c0.645,-3.493 1.267,-7.235 1.98,-10.69l-3.615,-4.824c-4.103,-0.486 -11.61,-1.661 -15.458,-1.852Zm-471.724,-29.835c-0.007,0.995 -0.992,3.382 -1.376,4.443l0.594,0.751c3.453,0.754 6.788,-1.629 9.675,-3.384c-8.35,35.91 -14.4,77.796 -23.659,112.891c1.063,3.451 2.047,7.081 3.042,10.566c-3.839,-2.677 -15.209,-8.68 -19.874,-6.964c-2.067,0.762 -3.118,-0.032 -5.266,-0.542c4.253,-18.972 7.723,-38.92 12.412,-57.604c-2.619,3.67 -6.459,10.494 -8.983,14.564l-19.367,31.117c-2.358,-14.683 -5.34,-29.4 -7.404,-44.13l-4.929,20.649c-2.24,11.485 -5.276,23.439 -7.68,35.099c-8.811,2.698 -19.442,2.744 -29.558,5.56c12.509,-15.164 10.472,-14.04 14.787,-32.918l12.002,-52.366c1.068,-4.685 5.127,-26.413 7.545,-28.228c2.157,0.115 1.459,0.001 3.352,1.757c2.763,-0.322 4.28,-3.549 7.345,-3.931l-0.157,2.028c3.548,1.481 5.021,0.012 8.107,-1.832c0.887,11.342 5.224,33.796 6.94,46.372c7.821,-11.375 20.523,-38.161 28.282,-47.45c2.36,-0.888 1.595,-0.951 3.623,-0.537l-0.131,1.557c3.353,-1.422 7.661,-5.103 10.678,-7.468Zm303.754,9.722l0.57,0.598l-0.225,2.104l1.065,0.726c2.648,-0.43 5.55,-2.373 7.935,-3.752c-2.617,8.315 -5.1,20.357 -7.245,29.177l-13.357,54.943c-1.005,4.169 -5.498,26.609 -7.995,27.865c-1.695,-0.54 -2.198,-0.7 -3.968,-0.854l-1.77,1.843l-0.975,-0.198l-1.395,-3.113c-3.877,-2.787 -4.927,1.131 -9.06,-0.16c-1.342,-3.067 -3.022,-14.62 -3.705,-18.638c-1.957,-11.854 -4.05,-23.683 -6.285,-35.486c-2.542,14.227 -8.685,38.289 -12.082,52.815c-1.755,0.778 -4.718,2.286 -6.473,2.4l0.443,-2.084l-0.39,-0.477c-2.018,0.482 -6.908,5.442 -10.245,5.981l-0.728,-0.725c-2.355,0.23 -11.752,5.871 -14.317,7.319c2.962,-4.656 9.195,-12.709 11.43,-16.854c1.477,-2.75 4.68,-17.193 5.557,-20.841l12.773,-53.415c1.762,-7.366 3.585,-15.409 5.557,-22.834c0.968,-3.646 5.333,-0.483 6.128,-1.085c1.245,-0.937 3.277,-2.783 5.587,-3.873c0.218,1.502 0.278,1.603 0.945,2.985c2.558,0.603 4.35,-0.558 7.358,-1.319c1.882,1.728 7.965,45.101 9.675,51.89c1.8,-7.338 10.747,-46.761 13.042,-50.532c1.23,-0.351 2.235,-0.186 3.548,0.096c2.985,0.639 6.142,-2.5 8.602,-4.502Zm-64.605,-3.778l0.398,0.599c-0.225,1.697 -0.533,3.213 -0.878,4.886c-6.427,31.149 -14.37,61.926 -21.517,92.902c-6.3,5.74 -14.393,12.209 -21.008,17.804l-27.652,0.099l-14.588,-19.917c5.948,-27.254 12.488,-54.374 19.628,-81.341c0.585,-2.954 0.592,-4.794 2.737,-6.5c2.738,-0.051 1.643,-0.294 4.125,1.013c2.055,-1.369 4.125,-2.709 6.21,-4.022l0.578,0.37l-0.45,1.811l1.627,0.6c3.833,-0.408 7.238,-2.766 10.8,-4.637c-7.08,27.054 -13.237,55.115 -20.16,82.391l3.548,5.826c2.692,-0.265 5.79,-0.378 8.527,-0.544l6.728,-6.713l12.45,-51.891c1.492,-6.109 4.86,-21.142 7.005,-26.46c1.575,-1.077 1.792,-1.144 3.69,-1.381c0.51,0.901 0.375,1.226 0.27,2.254l-0.045,0.347c2.22,-0.559 4.77,-4.691 8.272,-6.412c0.668,0.656 0.548,1.061 0.795,2.162l1.418,0.451c2.685,-0.325 5.167,-2.218 7.492,-3.697Zm-318.632,-1.407l0.514,0.762c-6.187,31.077 -15.883,67.748 -23.356,99.051l-19.759,17.415c-9.099,0.26 -18.199,0.415 -27.3,0.465c-4.833,-6.258 -9.936,-13.791 -14.555,-20.322c2.229,-10.108 19.198,-85.55 22.186,-88.017c2.977,-0.534 2.104,-0.836 4.312,0.492c2.082,-0.576 5.396,-4.143 7.166,-5.814c-0.595,2.075 -1.586,4.504 -0.983,6.445c1.899,0.007 10.184,-5.531 12.53,-6.917c-3.237,10.195 -5.976,22.601 -8.531,33.13l-12.209,50.316l3.347,6.113l8.117,-0.944l6.705,-6.789c4.03,-18.015 8.179,-36.002 12.447,-53.961c1.63,-6.853 4.276,-19.627 6.565,-25.65c1.728,-1.222 2.258,-1.221 4.271,-1.513c0.237,1.198 0.271,1.609 0.315,2.83c1.57,-0.478 7.287,-5.621 8.899,-6.992c-0.681,1.886 -1.09,2.75 -1.155,4.806l0.744,0.313c2.118,-0.093 7.578,-3.876 9.73,-5.219Zm524.762,4.195l0.675,0.593c-1.117,1.614 -6.615,15.234 -6.727,16.992c0.817,1.686 1.365,2.333 0.997,4.135c-3.3,0.889 -23.497,1.232 -28.065,1.359l-5.655,23.118c10.125,-0.435 20.258,-0.762 30.398,-0.981c-6.893,5.51 -10.74,10.466 -10.545,19.532c-2.828,2.492 -20.07,2.254 -25.118,2.418c-0.727,5.382 -3.967,17.568 -5.34,23.34c10.763,0.262 22.028,-0.3 33.03,-0.136c-4.365,6.247 -2.64,8.436 -4.162,10.322c-1.02,1.944 -2.093,5.697 -2.798,7.906c0.09,0.281 2.723,4.09 3.09,4.623c-18.525,0.13 -37.05,0.149 -55.567,0.058c6.517,-26.787 19.027,-79.184 25.192,-108.235c0.12,-0.575 -0.615,-0.344 0.21,-1.954c3.893,-0.958 13.905,-1.213 18.255,-1.438l32.13,-1.652Zm-404.152,42.937c8.25,-0.309 17.055,-0.284 25.342,-0.399c-2.085,1.381 -8.137,5.068 -9.315,6.862l2.34,0.831c-0.442,2.695 -4.732,5.185 -6.975,6.398c3.72,2.185 4.53,5.267 8.115,9.452l-20.97,0.579c-11.543,0.368 -23.087,0.613 -34.632,0.733c3.779,-7.646 4.29,-15.09 6.399,-23.609c9.355,-0.675 20.208,-0.662 29.696,-0.847Z" style="fill:#f8b209;"/><path id="Outline" d="M419.078,508.535c12.183,-58.877 26.429,-115.751 40.13,-174.106c-2.108,-1.597 -4.9,-4.303 -6.921,-6.147c-13.391,7.845 -26.895,15.496 -40.509,22.948c12.419,-56.621 27.4,-112.941 39.697,-169.134c-6.091,-9.41 -15.369,-21.832 -20.612,-31.177c0.985,-0.594 0.728,-0.258 1.259,-1.172c-8.229,-10.912 -20.238,-24.075 -29.265,-34.882c40.399,1.186 88.28,4.771 128.938,7.447c11.26,10.215 23.591,21.162 34.366,31.773c3.682,-1.712 23.465,-9.91 26.461,-8.99c-0.237,1.631 -0.389,2.915 -0.518,4.563c1.341,0.78 65.426,-6.878 71.844,-7.669l-5.842,9.446c25.533,-4.419 54.866,-9.209 80.426,-12.481c-2.859,17.096 -6.863,36.652 -10.509,53.649l41.739,-1.228c2.062,-7.867 3.9,-16.657 5.692,-24.619c-7.462,-12.013 -17.977,-26.566 -26.115,-38.466c34.913,-1.198 71.73,-3.064 106.568,-3.386c12.352,10.625 20.077,17.919 31.605,29.58c24.727,-3.642 57.562,-7.677 82.53,-9.744c-2.61,2.634 -6.48,5.272 -5.708,9.116c2.4,0.385 49.463,-8.112 55.298,-9.107l-4.583,8.174c15.63,-3.555 33.45,-8.72 49.328,-12.712l-7.208,11.202c26.843,-6.344 57.533,-11.711 84.878,-17.254c-5.58,6.108 -11.265,12.115 -17.063,18.02l83.565,-7.664c10.943,8.553 24.668,17.933 36.113,26.249c-4.74,17.939 -9.293,43.515 -13.103,62.289c-5.235,3.157 -13.237,9.043 -18.442,12.661c2.692,5.61 22.477,41.059 22.17,43.777c0.127,0.978 0.307,2.76 0.547,3.638c6.945,17.472 15.128,49.404 20.985,68.27c-7.942,-4.51 -31.77,-18.082 -38.047,-23.487l-1.133,-0.803l-8.362,-5.232c-1.778,-1.049 -2.498,-1.971 -4.073,-1.629c-4.342,6.126 -12.435,22.281 -15.15,25.637c-9.3,18.31 -19.087,35.71 -27.337,54.556l11.145,4.228l-6.413,9.396l8.453,9.241c-48.578,26.7 -97.703,52.383 -147.353,77.033c4.508,-9.106 15.503,-26.105 18.413,-33.334l-0.653,-0.457l-3.78,0.851c0.75,-2.504 10.26,-13.96 12.66,-16.957c-9.375,1.547 -21.457,3.963 -30.667,5.114c-19.478,4.078 -43.328,7.495 -61.98,11.995c3.022,-3.793 5.985,-7.633 8.887,-11.519c-10.905,-2.693 -22.462,-5.782 -33.345,-8.2c-3.675,-4.098 -7.32,-8.22 -10.935,-12.363c-6.615,5.448 -14.25,12.027 -21.037,17.067l-125.348,17.451l2.633,-7.326c-4.515,2.798 -14.475,7.036 -16.058,8.205c-11.25,8.285 -22.815,17.964 -33.829,26.675l-13.324,-35.855c-3.66,0.873 -7.585,1.673 -11.056,3.076c-4.54,-3.075 -11.575,-6.161 -12.466,-10.342c-1.334,-0.297 -80.927,23.55 -89.562,25.941l5.906,-17.946c-7.891,2.173 -16.795,4.85 -24.668,6.739c8.566,17.798 17.066,39.321 24.722,57.641l-21.867,-12.548c-10.302,-6.421 -25.321,-15.588 -36.071,-20.836c-18.429,-8.997 -31.814,-18.572 -48.967,-30.027c-2.138,-1.565 -4.484,-4.048 -7.032,-3.117l-0.571,2.696l-2.367,12.911c-10.944,3.95 -70.858,27.065 -78.447,27.629c0.389,-1.653 0.882,-3.327 1.338,-4.968Zm813.216,-207.091c-6.615,-23.071 -16.507,-36.436 -26.842,-57.754c6.982,-4.777 13.92,-9.628 20.805,-14.553c3.255,-17.422 8.752,-38.752 11.265,-55.654l-30.75,-22.659c-31.463,2.781 -65.978,6.906 -97.118,8.846l15.24,-15.72l-51.12,10.056c-8.407,1.656 -20.197,4.277 -28.462,5.248c2.257,-3.135 4.792,-6.816 7.17,-9.785c-11.738,2.763 -22.823,7.034 -34.455,10.304c-7.793,2.19 -7.41,-0.189 -14.235,1.657l5.272,-8.8c-17.617,2.989 -35.647,6.29 -53.265,8.998c0.72,-2.92 1.448,-6.136 2.243,-9.007c-17.843,2.681 -35.903,2.982 -53.783,5.863c-6.255,1.008 -13.072,1.64 -19.402,2.377c-8.52,-10.133 -21.458,-21.383 -31.448,-30l-92.355,3.117l20.67,31.107l-7.177,32.097l-53.648,1.816c3,-14.984 8.136,-38.329 9.884,-52.929l-83.559,12.882c1.893,-2.984 4.005,-6.504 6.07,-9.316c-13.176,3.812 -25.173,3.152 -38.296,4.166c-9.476,0.732 -20.351,2.194 -29.864,3.251l-0.833,-0.5l0.49,-2.428c-2.039,-1.297 -17.606,5.922 -20.449,7.032c-6.965,-8.172 -25.638,-24.311 -34.295,-32.163c-5.922,-0.857 -11.852,-1.439 -17.826,-1.757c-31.646,-1.684 -63.348,-4.031 -95,-5.518c7.307,8.828 14.959,18.783 22.366,27.273c2.481,2.844 7.883,5.686 13.091,11.287l-9.688,-1.966c5.227,7.268 10.195,15.027 15.126,22.527l-37.413,158.396c5.14,-2.565 30.655,-17.796 33.262,-18.152l1.274,1.284c3.26,2.955 7.172,6.693 10.519,9.426c-1.725,7.402 -4.176,19.611 -6.336,26.622c-2.448,15.418 -9.738,41.982 -13.57,58.327l-9.11,39.1c-1.538,6.719 -3.163,15.36 -5.022,21.738c-1.122,7.056 -3.915,19.876 -5.714,27.019c6.781,-2.322 20.084,-7.446 26.382,-9.048c10.413,-4.71 27.426,-10.278 38.579,-14.312c1.15,-6.759 2.502,-13.482 4.056,-20.159l0.566,-1.16c2.28,0.486 9.293,5.367 11.806,6.964c12.3,8.147 24.591,16.301 36.759,24.641c0.562,0.386 2.319,0.268 2.994,0.21c9.695,5.34 31.339,17.295 39.879,23.334c4.419,2.411 9.534,5.63 13.932,8.235c-4.085,-10.182 -8.937,-19.982 -12.756,-30.434c-2.762,-5.622 -5.565,-12.48 -8.115,-18.28c6.474,-1.633 13.894,-3.69 20.394,-4.815c4.312,-1.658 17.007,-4.82 21.951,-6.18c-2.058,5.829 -4.025,11.692 -5.897,17.586c10.209,-2.622 79.601,-24.388 83.905,-24.007c0.839,6.307 6.511,11.153 12.917,10.187c3.47,-0.875 6.944,-1.732 10.422,-2.572l3.585,9.239c3.086,7.483 6.065,15.862 8.939,23.489c9.668,-7.297 18.825,-15.362 28.515,-22.667c5.25,-3.956 7.298,-2.668 12.938,-5.332c2.565,-1.855 7.492,-5.031 9.495,-7.312c1.387,-1.582 3.045,-7.834 4.867,-8.887c2.085,1.076 1.928,0.607 2.97,2.387c-0.015,2.836 -1.537,5.906 -2.625,8.592l-3.097,8.201c38.212,-4.851 76.312,-10.944 114.487,-15.741c7.89,-6.474 15.81,-12.904 23.768,-19.29c4.327,4.302 9.577,10.629 13.702,15.317c7.755,1.294 14.348,3.144 21.93,5.101c3.75,0.969 6.555,0.958 10.523,2.239c5.325,-2.353 7.807,-3.477 13.44,-5.135c-3.405,4.346 -6.758,8.732 -10.058,13.158c23.625,-3.928 47.055,-9.098 70.755,-12.725c0.833,-0.286 14.378,-1.916 15.038,-1.655l-0.533,2.121c2.475,0.536 11.82,-4.803 14.67,-6.268c-4.177,4.227 -20.64,17.85 -21.615,21.366l2.565,-0.206c0,0.99 -14.017,23.139 -15.855,26.171c21.203,-11.794 43.193,-22.759 64.613,-34.218c17.925,-9.587 42.082,-19.307 58.44,-31.069l-0.045,-0.824c-1.86,-0.494 -3.705,-0.82 -5.19,-2.034c-0.135,-4.043 2.902,-8.229 5.175,-11.361l-10.5,-3.961c5.167,-11.636 10.762,-24.98 17.002,-35.883c10.545,-19.843 21.45,-39.492 32.715,-58.937l3.915,4.186c1.148,1.055 3.068,2.924 4.23,3.775l2.843,2.282c4.027,1.59 26.737,16.571 31.372,19.552c-4.605,-15.626 -9.72,-31.374 -14.46,-47.016Zm-278.76,-8.776l0.848,0.186c-1.343,2.138 -15.45,5.612 -18.555,5.979l-1.065,-0.152c1.14,-1.321 15.885,-5.188 18.772,-6.013Zm11.94,1.082c8.438,0.717 15.105,1.237 23.55,1.527l-5.37,5.713l-22.627,-0.046l4.447,-7.194Zm-259.308,4.919c-5.843,0.586 -15.901,2.027 -21.27,1.635c-2.271,-1.398 0.247,-0.771 -0.561,-4.005c-9.708,-0.773 -20.995,1.929 -33.237,0.85c-1.881,-1.595 0.322,-2.01 -1.194,-4.585c-3.45,0.17 -8.915,1.56 -12.362,2.525c-9.102,2.546 -22.422,4.713 -31.87,2.749l1.026,-0.504c13.354,-3.939 35.923,-10.348 49.293,-12.731l-0.298,6.648c25.15,-0.244 27.284,0.059 50.473,7.418Zm-0,-0c-0.458,-1.686 -2.099,-7.666 -2.127,-9.116c-0.231,-12.142 4.292,-26.635 6.516,-38.703c17.028,-0.419 34.247,-0.42 51.189,-0.939c-1.477,7.22 -3.39,18.143 -5.385,24.874c-1.875,6.353 -4.492,8.24 -6.337,16.63c-0.743,2.697 -0.27,2.694 -2.07,4.132c-1.793,0.231 -3.833,0.745 -5.378,0.07c0.765,-7.669 5.663,-15.664 8.19,-22.741c1.635,-4.588 2.805,-11.94 3.645,-16.755c-13.042,0.023 -26.088,0.237 -39.128,0.643l-6.407,33.467c0.856,2.15 1.909,4.504 2.264,6.762c-1.127,1.962 -2.775,1.608 -4.972,1.676Zm386.471,-0.791c-36.068,1.552 -69.135,2.204 -105.053,2.931c27.795,-7.584 38.175,-7.671 66.083,-5.869c11.617,0.728 23.25,1.27 34.89,1.624c5.19,0.027 8.407,0.204 13.56,0.793c-2.903,0.213 -6.638,0.596 -9.48,0.521Z" style="fill:#fefefe;"/><g id="Bottle"><path d="M236.033,153.186c3.241,1.116 31.348,10.223 32.107,10.119c-0.945,0.473 -1.768,0.731 -2.38,1.52l0.02,0.362c-0.397,0.845 10.807,50.024 11.761,54.308c-24.166,-6.328 -49.85,-12.448 -73.751,-19.338c3.308,-5.024 31.697,-44.269 31.909,-45.982l0.334,-0.989Zm-70.119,75.788c1.937,2.7 7.51,9.723 8.745,11.957c0.949,0.85 4.666,6.463 5.815,8.068c4.072,5.588 8.104,11.207 12.094,16.854c2.521,3.555 5.443,7.933 8.078,11.292l0.052,97.677c-4.454,-8.207 -8.576,-16.574 -13.035,-24.778c-0.562,-1.034 -1.552,-2.539 -1.89,-3.594l-1.945,-4.074l0.376,-0.669c-1.789,-3.933 -3.531,-8.704 -5.127,-12.769l-8.972,-22.641c-2.584,-6.403 -5.611,-13.585 -8.104,-19.971c-0.476,-1.218 0.314,-12.456 0.407,-14.643l2.095,-43.002l0.437,-0.605l0.974,0.898Zm107.017,217.219c10.187,10.881 20.22,21.899 30.097,33.059c4.831,5.393 12.784,13.839 16.89,19.389c-15.033,1.763 -30.036,3.786 -45,6.059c-7.92,1.177 -15.875,2.146 -23.665,4.008c-13.917,3.323 -27.854,6.547 -41.732,10.026c-1.374,0.345 -2.939,0.765 -4.318,0.983c1.717,-2.208 9.296,-8.655 11.894,-11.013c12.803,-11.845 26.025,-23.232 39.643,-34.127l-0.158,-7.104c4.613,-6.088 11.539,-15.797 16.349,-21.28Zm-109.936,-112.109c0.093,2.039 14.132,28.774 16.156,32.109c-0.825,10.913 -1.256,22.594 -1.854,33.576c-0.638,11.721 -1.667,24.485 -1.91,36.125c-1.157,0.863 -9.436,7.297 -10.114,7.455c-1.899,0.358 -12.387,6.025 -14.744,7.254c0.108,-4.688 0.763,-10.83 1.135,-15.676l2.368,-29.742c2.063,-24.381 4.093,-49.784 6.628,-74.088c0.858,1.032 1.548,1.901 2.335,2.987Zm39.419,100.123c-0.167,20.891 0.929,42.733 0.541,63.479c-2.02,2.807 -3.798,5.554 -5.679,8.456c-5.258,-3.645 -6.184,-2.798 -12.743,-2.794c-2.762,3.361 -5.957,5.79 -5.966,9.855c-9.218,-7.411 -18.785,-15.815 -27.727,-23.557c10.936,-12.063 21.945,-24.059 33.027,-35.989c5.505,-5.847 13.582,-13.608 18.547,-19.45Zm53.479,-339.683c1.284,0.793 9.24,-0.527 11.482,-0.74c-0.014,19.762 -0.345,40.488 0.046,60.169l-2.121,1.713c-5.129,-1.768 -10.318,-3.143 -15.507,-4.655c-2.201,-0.641 -9.078,-2.221 -10.848,-3.24c-1.197,-3.574 0.361,-40.64 0.415,-47.347c5.193,-1.754 11.288,-4.697 16.533,-5.9Z" style="fill:#525151;"/><path d="M222.777,148.895l13.256,4.291l-0.334,0.989c-1.868,1.334 -9.756,9.883 -11.815,11.981c-9.992,10.176 -19.721,20.875 -29.759,30.999c-3.974,-0.872 -7.936,-1.799 -11.883,-2.782c-5.59,2.378 -10.661,4.616 -16.131,7.256c-1.29,0.623 -5.378,1.506 -7.665,2.421c4.57,6.353 9.263,12.618 14.075,18.79c1.12,1.243 3.032,3.993 4.188,5.487c3.509,4.551 7.043,9.083 10.6,13.596c-2.568,-1.604 -20.231,-12.88 -21.395,-12.949l-0.974,-0.898l-0.437,0.605l-2.095,43.002c-0.093,2.187 -0.883,13.425 -0.407,14.643c2.493,6.386 5.52,13.568 8.104,19.971l8.972,22.641c1.596,4.065 3.338,8.836 5.127,12.769l-0.376,0.669c-7.371,-15.778 -14.953,-31.457 -22.744,-47.032c-1.935,-3.96 -7.383,-14.533 -8.741,-18.192c-0.552,-1.487 -0.268,-17.708 -0.254,-19.988l0.446,-53.456c9.626,-6.689 19.189,-14.392 28.362,-21.67c13.896,-11.128 27.856,-22.176 41.88,-33.143Zm-67.866,159.681c1.472,1.985 3.895,6.242 5.234,8.496l9.044,15.298l28.454,48.202c-4.347,-4.529 -10.161,-13.969 -13.88,-19.354c-6.566,-9.507 -13.569,-18.116 -20.768,-27.134c-0.787,-1.086 -1.477,-1.955 -2.335,-2.987c-2.535,24.304 -4.565,49.707 -6.628,74.088l-2.368,29.742c-0.372,4.846 -1.027,10.988 -1.135,15.676c2.357,-1.229 12.845,-6.896 14.744,-7.254l-26.351,19.771c0.794,-6.117 1.277,-12.37 2.007,-18.516c5.381,-45.258 9.149,-90.722 13.982,-136.028Zm-19.089,177.652c21.434,-18.112 43.468,-35.502 66.064,-52.142l0.528,0.121c-4.965,5.842 -13.042,13.603 -18.547,19.45c-11.082,11.93 -22.091,23.926 -33.027,35.989c8.942,7.742 18.509,16.146 27.727,23.557c3.188,7.752 6.356,9.326 10.043,16.109c1.821,2.765 4.705,7.043 6.265,9.864l-0.512,1.253c-8.753,-7.478 -17.149,-15.702 -25.501,-23.648c-6.427,-6.116 -13.645,-12.27 -19.79,-18.594c-2.976,-2.113 -10.449,-9.236 -13.25,-11.959Zm130.255,-486.228c7.032,2.534 14.321,5.415 21.314,8.11c7.083,2.73 16.82,6.46 23.477,10.042c-1.698,-0.012 -4.806,-0.815 -6.719,-1.147c-3.509,-0.598 -7.03,-1.131 -10.558,-1.599c1.738,1.052 7.213,4.194 8.346,5.285c-10.889,-4.092 -23.271,-8.05 -34.423,-11.444l-0.099,38.223c-0.007,1.811 0.214,12.441 -0.384,13.33c-0.303,0.135 -0.797,0.391 -1.092,0.441c-10.699,4.018 -24.905,10.71 -34.584,16.634c0.734,2.639 2.253,6.359 3.242,9.004c-4.252,-2.136 -8.443,-4.391 -12.569,-6.761c-0.056,-5.533 -0.536,-12.217 -0.789,-17.808c-0.53,-11.172 -0.982,-22.347 -1.357,-33.525c15.172,-9.954 30.574,-19.552 46.195,-28.785Zm-41.731,98.943c3.133,-1.909 13.042,-7.385 15.672,-8.85c2.908,-1.621 26.353,-8.263 28.188,-8.013c7.107,0.967 25.566,5.128 32.4,7.419c-8.988,-0.09 -18.082,0.6 -27.059,0.817c-7.035,0.169 -11.086,2.301 -17.654,4.208c-5.245,1.203 -11.34,4.146 -16.533,5.9c-0.054,6.707 -1.612,43.773 -0.415,47.347l-14.587,-4.623l-0.012,-44.205Zm41.434,66.244l-0.02,-0.362c0.612,-0.789 1.435,-1.047 2.38,-1.52c6.584,7.186 14.764,14.889 21.727,21.899c8.555,8.625 16.806,17.547 24.738,26.749c2.348,2.725 7.258,8.082 9.146,10.678c-2.793,-2.326 -7.73,-7.324 -10.438,-9.034c-7.968,-5.031 -12.262,-10.911 -18.72,-17.674c-9.658,-10.113 -19.021,-20.723 -28.813,-30.736Zm97.281,193.646c1.781,6.416 2.375,16.062 3.071,23.021c1.245,12.527 2.414,25.06 3.507,37.601c-0.593,-0.491 -1.745,-1.925 -2.301,-2.575l-3.301,-36.578c-0.482,-5.766 -1.469,-15.959 -0.976,-21.469Zm9.299,-17.791c-0.682,1.834 -8.679,12.892 -10.165,14.662c-3.769,3.446 -13.64,11.041 -17.88,14.071c2.884,-3.336 7.08,-7.362 10.247,-10.565c5.981,-6.008 11.915,-12.064 17.798,-18.168Z" style="fill:#fefefe;"/><path d="M149.072,498.187c4.253,2.481 9.495,7.066 13.642,10.016c6.561,4.67 13.058,9.713 19.747,14.213c2.592,1.744 4.694,6.258 6.149,6.896c1.821,2.765 4.705,7.043 6.265,9.864l-0.512,1.253c-8.753,-7.478 -17.149,-15.702 -25.501,-23.648c-6.427,-6.116 -13.645,-12.27 -19.79,-18.594Zm151.746,-408.523c5.564,0.78 16.34,5.804 21.392,8.187c-0.118,15.205 -0.742,30.45 -0.959,45.672l-2.162,1.454c8.041,5.26 19.089,14.206 26.917,20.109c16.266,12.349 32.726,24.441 49.376,36.27c-0.276,21.144 -0.262,44.326 -1.147,65.303c0.037,0.859 0.096,0.853 -0.237,1.626c-1.154,-0.986 -7.425,-8.462 -8.996,-10.232c-0.064,-17.165 0.492,-35.512 0.76,-52.766c-24.982,-20.18 -48.89,-39.622 -74.459,-59.026c-0.08,-5.452 0.204,-11.258 0.327,-16.738l0.623,-28.819l-11.435,-11.04Zm71.542,251.378c6.47,-7.213 13.219,-14.172 20.231,-20.861c2.49,27.699 6.102,56.702 9.118,84.429l2.868,26.806c0.672,6.343 1.269,12.944 2.171,19.254c0.155,1.082 0.873,2.637 1.162,3.781c-2.903,-1.957 -10.414,-13.42 -13.062,-16.906c-0.991,-17.902 -2.086,-35.799 -3.285,-53.689l-2.277,-34.538c-0.355,-5.221 -0.596,-11.141 -1.065,-16.271c-6.438,5.555 -12.614,11.473 -19.119,16.949c-1.489,1.253 -5.441,4.824 -6.907,5.708c1.486,-1.77 9.483,-12.828 10.165,-14.662Zm-68.997,111.58c6.631,8.229 13.522,16.24 20.151,24.489c7.572,9.585 14.945,19.322 22.116,29.206l-17.431,27.273l16.026,-10.796c2.441,-1.669 5.931,-4.292 8.386,-5.715c3.545,-2.056 7.926,-4.136 11.642,-6.012c5.805,-3.002 11.636,-5.956 17.494,-8.853c11.433,-5.615 9.542,-6.357 22.489,-6.532c-29.662,20.027 -60.604,38.087 -92.629,54.068c9.129,-14.908 18.711,-28.738 27.751,-43.353c-6.87,-10.659 -13.931,-21.185 -21.182,-31.588c-5.168,-7.52 -9.716,-14.299 -15.216,-21.7l0.403,-0.487Zm-9.772,-437.216c3.528,0.468 7.049,1.001 10.558,1.599c1.913,0.332 5.021,1.135 6.719,1.147c3.778,1.805 13.117,7.214 16.827,9.629c-0.633,11.642 -1.361,23.28 -2.187,34.91c-0.366,5.475 -0.947,11.856 -1.096,17.279c-3.049,1.659 -6.226,3.336 -9.233,5.047c0.726,-2.083 1.466,-4.161 2.218,-6.234c-12.836,-7.031 -23.142,-10.131 -35.627,-15.749c11.203,1.873 23.491,4.384 34.521,6.079c1.367,-11.828 3.021,-24.883 3.905,-36.73c-3.703,-2.777 -14.033,-9.897 -18.259,-11.692c-1.133,-1.091 -6.608,-4.233 -8.346,-5.285Zm78.064,240.326c2.39,1.231 19.416,18.378 22.617,21.479c-8.456,14.17 -14.536,25.909 -22.115,40.483c-1.263,2.517 -2.555,5.019 -3.878,7.506c0.881,-3.588 3.508,-11.016 4.727,-14.905c3.414,-11.078 6.95,-22.118 10.607,-33.118c-2.757,-5.978 -8.604,-15.619 -11.958,-21.445Zm-48.976,-56.605c1.304,0.353 11.842,6.602 13.918,7.767l-1.487,-4.329c4.348,5.266 7.365,10.031 11.144,15.712l12.859,19.411c0.629,0.847 1.35,1.69 1.697,2.67c-0.643,-0.354 -4.852,-5.412 -5.573,-6.241c-10.551,-11.94 -21.408,-23.608 -32.558,-34.99Zm-27.168,320.49l0.409,0.577c-12.249,5.261 -26.36,12.587 -38.361,18.585c-2.88,-1.928 -13.104,-8.489 -15.253,-10.408l-3.672,-2.472c5.338,2.198 11.457,4.944 16.7,7.426l2.107,0.926c11.161,-5.053 26.481,-10.365 38.07,-14.634Z" style="fill:#f9b71d;"/><path d="M177.884,208.767c3.48,1.13 30.217,8.973 31.576,8.373c-0.136,-0.937 -0.954,-1.757 -1.577,-2.535c7.579,5.092 7.939,4.285 16.278,7.246c-1.714,-0.079 -3.017,-0.084 -4.728,-0.037c0.953,0.462 3.11,1.231 3.651,1.567c8.347,2.4 15.782,4.058 23.979,6.281c-3.146,-1.922 -6.498,-3.665 -9.734,-5.435c-1.969,-1.077 -4.248,-2.011 -6.105,-3.231c23.062,6.948 46.033,14.196 68.906,21.743c5.484,1.8 10.642,3.604 16.331,4.696c0.521,0.1 1.331,0.704 1.697,1.095l-0.097,0.282l-0.489,0.015c-0.21,3.515 7.101,8.767 9.453,11.206c-0.694,-1.984 -1.371,-4.034 -2.232,-5.959c-0.386,-0.861 -1.909,-2.588 -1.879,-3.1c1.065,0.673 3.436,3.679 4.466,4.756c5.548,5.805 10.097,10.771 14.94,17.231c-1.596,-0.98 -3.183,-1.975 -4.761,-2.984c1.132,3.831 2.591,7.582 3.981,11.329c-0.596,0.907 -1.262,1.874 -1.825,2.79c0.836,0.688 2.494,2.182 3.407,2.526c0.083,-0.709 0.121,-1.105 0.286,-1.806c1.856,2.215 0.796,2.497 3.754,3.52c0.039,0.862 -2.272,4.91 -2.852,6.652c-1.073,3.221 -1.68,5.212 -2.416,8.571c-2.751,1.714 -5.882,3.591 -8.888,4.82l5.319,-0.436c-3.581,1.717 -11.757,6.484 -15.149,8.787c4.27,-1.546 12.969,-5.697 17.159,-7.838c-1.38,4.503 -2.825,9.373 -3.759,13.995c1.483,-0.951 3.987,-2.706 5.754,-2.659c-0.519,1.949 -23.405,17.364 -26.774,19.739c1.76,-2.116 3.346,-4.37 4.745,-6.74c-10.498,6.274 -20.037,12.861 -30.193,19.619c1.257,1.486 6.419,6.607 6.379,7.735l-0.933,1.22c0.273,1.416 9.035,8.985 10.727,10.559c-2.296,-4.04 -4.673,-8.034 -7.131,-11.978c10.906,10.445 21.548,22.273 31.612,33.588c7.587,8.53 16.418,17.82 23.683,26.494c-5.349,-3.763 -10.365,-7.586 -15.597,-11.496c5.483,7.213 11.567,14.19 18.115,20.456c6.963,6.662 13.382,13.889 20.193,20.674c-2.194,-4.269 -4.508,-8.475 -6.94,-12.612c7.449,7.554 14.71,15.296 21.779,23.209c-4.901,-3.654 -8.481,-6.514 -13.708,-9.822c3.3,4.15 7.024,7.799 10.652,11.618c1.171,1.234 6.523,6.211 7.006,7.175c-1.94,-1.153 -3.356,-2.604 -5.146,-3.909c3.937,5.871 8.893,11.448 13.318,16.974c3.564,4.452 6.511,7.576 9.013,12.799c-1.475,-0.676 -2.352,-1.304 -3.679,-2.216c-14.823,-10.163 -27.117,-24.825 -41.433,-35.526c3.067,6.088 6.845,12.308 10.181,18.311c-3.95,-3.38 -10.078,-8.12 -13.416,-11.802c-10.231,-11.288 -21.051,-21.464 -32.046,-31.974c-4.474,-4.278 -9.08,-8.033 -13.588,-12.286c2.979,4.558 10.24,14.677 13.561,18.844c-7.555,-5.64 -21.119,-19.746 -25.679,-27.414c1.744,1.157 4.226,2.894 6.042,3.837c-5.587,-9.455 -15.636,-21.667 -24.342,-28.559c3.185,3.969 7.255,9.47 10.563,13.114c-3.131,-2.366 -6.319,-4.655 -9.561,-6.865c2.095,3.053 5.315,7.328 7.095,10.364c-7.944,-6.599 -15.226,-14.424 -22.562,-21.713c-1.415,-1.405 -5.095,-7.393 -6.433,-7.694l-0.042,0.858c-2.474,-1.672 -11.831,-11.127 -14.502,-13.624c-0.033,5.572 -0.003,11.321 -0.094,16.908c-0.034,2.063 -1.06,4.223 -0.972,5.821c0.618,11.201 0.189,22.4 0.565,33.583c0.121,3.591 0.268,7.509 0.06,11.105c-1.63,1.738 -3.22,3.513 -4.768,5.326c-0.217,-5.185 -0.497,-10.366 -0.84,-15.543c-0.871,3.475 -3.609,5.236 -2.223,8.119c-0.778,1.456 -2.512,2.347 -2.586,2.548c-1.843,4.98 -3.577,11.311 -5.796,16.05c-1.001,-14.165 -2.485,-27.623 -2.768,-42.012l-0.545,-1.618c-0.092,13.044 -1.251,26.507 -1.726,39.556c-0.055,1.49 -5.041,14.108 -5.876,16.505c-0.557,-7.171 -1.181,-14.116 -1.559,-21.302c-1.537,9.528 -4.126,19.014 -5.938,28.5c-0.302,1.584 -0.631,3.276 -1.159,4.793l-0.081,-0.094l-0.137,-0.01c-0.036,-0.609 -0.051,-0.761 -0.015,-1.375c-0.075,-9 -0.576,-18.264 -0.692,-27.296c-0.038,-2.952 -0.818,-6.533 -0.816,-9.575c0.002,-2.532 0.562,-5.123 0.556,-7.59l-0.305,-99.883c-0.017,-4.535 -0.669,-38.539 -0.034,-40.175l0.424,-0.066l0.899,0.903c2.62,2.71 5.183,5.523 7.835,8.187c0.007,-1.146 -0.274,-2.336 0.296,-2.935l0.754,0.672c2.012,1.766 4.631,4.547 6.68,6.494c4.171,3.901 8.366,7.777 12.584,11.627c-5.89,-8.494 -11.984,-16.22 -18.248,-24.349l-20.693,-26.964c1.934,0.803 6.338,2.128 7.606,2.784c3.382,1.752 5.595,2.954 9.205,4.519c-1.903,-2.585 -10.116,-12.767 -12.488,-14.407c-1.947,-1.611 -5.107,-5.092 -6.99,-7.004c-3.364,-3.365 -6.76,-6.697 -10.189,-9.996c5.359,1.971 11.86,3.944 17.34,5.671c-2.348,-2.741 -5.024,-5.066 -7.29,-7.891c-1.057,-0.78 -1.571,-2.676 -3.604,-3.071c-2.122,-1.551 -5.506,-4.907 -7.665,-6.825c-4.655,-4.093 -9.359,-8.129 -14.112,-12.108Zm70.027,55.313c1.027,0.726 3.491,2.671 4.514,2.818c0.496,2.182 0.33,18.779 0.337,21.829l0.249,49.986c5.468,-3.586 11.221,-6.823 16.663,-10.467c0.976,-0.654 2.777,-1.977 3.784,-2.456c0.893,0.079 2.906,-0.682 3.61,-1.225c7.408,-5.711 15.658,-10.079 22.974,-15.881c2.629,-2.085 5.549,-4.213 8.277,-6.068c-0.121,-3.125 -0.309,-12.967 -1.315,-15.275c-1.168,-0.733 -2.956,-1.41 -4.263,-1.962l-3.605,-5.192l-25.123,-7.97c-5.056,-1.645 -11.285,-3.926 -16.354,-5.149c-2.035,-1.328 -7.186,-2.219 -9.748,-2.988Z" style="fill:#f9b71d;"/></g><g id="Waveform-Left" serif:id="Waveform Left"><path d="M82.091,372.316l0.228,0.09l-0.152,0.049l-0.076,-0.139Z" style="fill:#f9b71d;"/><path d="M82.053,372.243l0.038,0.073l-0.076,-0.03c0.013,-0.013 0.025,-0.027 0.038,-0.043Z" style="fill:#f9b71d;"/><path d="M82.053,372.243c-0.307,-0.585 -0.159,-0.449 -0.803,-0.903c-0.924,1.416 -1.805,2.219 -2.306,3.855c-0.374,1.565 -0.695,2.944 -1.195,4.482l-0.093,-0.617c-0.821,-5.483 -0.901,-10.217 -1.32,-15.648c-0.989,-12.824 -2.504,-24.955 -2.874,-37.863c-0.364,-12.685 -0.32,-24.837 1.449,-37.481c0.575,-4.11 -0.715,-10.503 0.932,-14.484c1.819,-3.493 0.409,-10.509 3.017,-12.717c1.564,0.771 1.916,8.766 3.155,10.813l0.588,-0.304c1.264,0.801 0.664,13.784 1.648,15.946l0.564,-0.499l0.291,0.055c0.37,2.079 0.738,19.165 0.768,21.409c0.095,7.097 -1.33,60.917 -3.821,63.956Z" style="fill:#f9b71d;"/><path d="M102.429,230.082c1.028,1.084 -0.305,5.167 0.711,6.827c0.828,1.353 1.306,2.024 1.387,3.61c0.218,4.289 -0.448,13.263 0.601,17.226l0.289,-0.063l0.803,-1.836l0.236,-0.011c0.666,9.281 0.066,18.593 1.053,27.798c0.832,8.541 0.567,17.879 0.152,26.478c-0.593,10.118 0.401,20.216 -0.425,30.351c-0.986,12.097 -0.518,24.469 -1.152,36.582c-0.524,9.994 -1.442,19.876 -1.644,29.91l-5.699,-0.02c0.121,-14.893 -1.338,-30.019 -1.502,-45.056c-0.017,-6.69 -0.137,-11.756 0.62,-18.456c0.546,2.284 0.858,5.486 1.16,7.878c0.563,-4.456 0.794,-9.367 1.127,-13.868c0.652,-8.798 1.294,-20.332 0.119,-29.115c-1.936,13.418 -2.045,30.507 -5.282,43.354c-0.677,-17.297 -2.336,-34.906 -1.057,-52.247c0.341,-1.911 1.248,-3.1 1.268,-5.103c0.198,-19.708 0.866,-39.525 2.275,-59.188c0.325,-4.538 1.983,-2.094 4.682,-4.806l0.278,-0.245Z" style="fill:#f9b71d;"/><path d="M123.775,256.993c0.782,1.009 1.009,13.298 1.63,15.352c0.464,1.538 1.323,3.903 1.354,5.508c0.141,7.079 0.068,14.165 0.267,21.245c0.051,1.745 -0.139,6.876 0.163,8.275l0.51,-0.114c0.361,0.435 0.318,1.42 0.32,2.091c0.011,3.894 0.106,7.953 -0.005,11.835c-0.064,2.259 -0.889,4.99 -1.032,7.449c-0.457,7.845 -0.389,15.837 -0.735,23.645c-0.515,6.797 -0.855,13.609 -1.49,20.399c-0.128,1.372 0.25,4.035 -0.557,4.907c-1.183,-0.642 -1.416,0.036 -2.205,-0.59c-0.263,-1.66 -0.337,-3.191 -0.447,-4.863c-0.997,-6.094 -1.509,-12.249 -2.474,-18.435c-0.311,1.813 -0.6,3.085 -1.06,4.862c-0.957,-8.718 -1.086,-18.328 -1.477,-27.131c-0.186,-4.182 -0.868,-8.205 -0.984,-12.134c-0.19,-6.428 0.35,-13.252 0.434,-19.72c0.035,-2.727 0.049,-9.023 0.806,-11.252l0.179,0.021l0.452,1.052l0.325,0.073c0.334,-3.051 0.716,-16.319 1.711,-18.09l0.597,-0.122c0.764,-0.728 3.247,-12.268 3.718,-14.263Z" style="fill:#f9b71d;"/><path d="M55.346,288.605c1.343,0.259 2.228,0.838 3.439,1.48l0.862,-0.272c2.311,0.835 0.601,6.192 3.864,6.246c1.684,4.612 1.429,44.166 -1.006,45.673l-0.777,-0.948l-0.335,0.074c-1.101,2.849 -0.818,5.835 -2.118,9.481l-0.698,3.437c-1.262,0.875 -2.073,1.618 -3.205,2.629c-0.171,-12.476 -2.645,-25.721 -2.622,-38.445c0.02,-10.114 2.259,-19.271 2.596,-29.355Z" style="fill:#f9b71d;"/><path d="M139.065,293.131c1.17,1.289 1.553,5.206 2.932,5.701c0.407,-0.488 0.626,-0.763 1.09,-1.192c1.181,1.995 0.819,9.929 0.869,12.332c0.172,8.368 0.287,16.747 -0.955,25.052c-0.381,2.545 -0.523,5.237 -1.326,7.691c-2.282,0.553 -0.794,-0.536 -2.929,1.525c-0.511,-2.13 -2.389,-12.95 -3.199,-13.761c-0.535,0.615 -0.332,0.491 -1,0.889c-1.478,-1.999 -1.749,-24.263 -0.29,-26.166l0.614,0.417c0.784,-0.649 1.852,-8.101 2.978,-9.499c0.329,-0.409 1.012,-2.398 1.216,-2.989Z" style="fill:#f9b71d;"/><path d="M40.028,304.96c0.883,0.415 1.609,1.411 2.278,2.179c0.564,0.169 0.758,0.233 1.291,0.48c0.398,2.088 0.098,5.109 0.194,7.354c0.278,6.509 0.452,12.129 -0.092,18.602c-0.898,0.855 -3.07,3.172 -3.971,3.465l-0.514,-0.507c-0.965,-2.885 -1.517,-2.688 -4.27,-3.541c-0.861,-3.414 -1.542,-22.93 -0.008,-25.02c3.006,0.369 3.518,-0.806 5.092,-3.012Z" style="fill:#f9b71d;"/><path d="M17.203,313.116c2.754,0.025 5.509,0.006 8.262,-0.057c-0.006,2.335 0.219,13.864 -0.127,15.416l-0.524,0.232c-3.209,-0.686 -4.737,0.061 -7.694,1.271c-0.074,-5.541 0.045,-11.305 0.083,-16.862Z" style="fill:#f9b71d;"/><path d="M0.318,315.338l7.851,0.015c-0.043,3.535 0.658,8.851 -0.866,11.845c-0.097,-0.038 -0.592,-0.372 -0.654,-0.433c-0.984,-0.956 -5.034,-0.585 -6.558,-0.546c-0.032,-1.874 -0.286,-9.621 0.227,-10.881Z" style="fill:#f9b71d;"/></g></g></svg>