<?xml version="1.0" encoding="UTF-8" standalone="no"?><!DOCTYPE svg PUBLIC "-//W3C//DTD SVG 1.1//EN" "http://www.w3.org/Graphics/SVG/1.1/DTD/svg11.dtd"><svg width="100%" height="100%" viewBox="0 0 493 926" version="1.1" xmlns="http://www.w3.org/2000/svg" xmlns:xlink="http://www.w3.org/1999/xlink" xml:space="preserve" xmlns:serif="http://www.serif.com/" style="fill-rule:evenodd;clip-rule:evenodd;stroke-linejoin:round;stroke-miterlimit:2;"><g id="Bottle-w-BG" serif:id="Bottle w BG"><path d="M0,798.75l118.102,111.405l28.148,4.095l-1.5,-41.25l27.75,-8.25l53.25,42l73.5,-39l-14.25,54l9.155,3.451l169.56,-97.951l28.285,0.75c3.101,-4.311 -11.484,-30.73 -24.75,-55.5l16.5,-35.25l-27,-222.75l-16.251,-11.518l15.948,-26.274l5.018,-145.208l-113.465,-87l-0.75,-76.5l6.75,-15l2.25,-103.46l-121.5,-49.54l-92.25,57l2.25,99l6,14.25l-2.25,10.5l-2.25,67.5l-111.267,87l-3,126l10.017,30l-31.5,267.75l8.25,17.25l-18.75,22.5Z"/><path d="M188.741,268.161c5.142,1.77 49.741,16.222 50.946,16.056c-1.499,0.75 -2.805,1.161 -3.777,2.412l0.032,0.575c-0.63,1.34 17.148,79.375 18.662,86.173c-38.345,-10.042 -79.099,-19.752 -117.024,-30.685c5.249,-7.971 50.294,-70.243 50.632,-72.961l0.529,-1.57Zm-111.261,120.256c3.074,4.285 11.918,15.428 13.876,18.972c1.506,1.349 7.404,10.256 9.228,12.802c6.461,8.868 12.858,17.782 19.189,26.743c4,5.642 8.637,12.588 12.819,17.919l0.082,154.987c-7.067,-13.022 -13.608,-26.299 -20.683,-39.316c-0.893,-1.641 -2.463,-4.029 -2.999,-5.703l-3.086,-6.464l0.595,-1.062c-2.838,-6.241 -5.601,-13.811 -8.134,-20.26l-14.237,-35.927c-4.099,-10.159 -8.902,-21.556 -12.858,-31.688c-0.755,-1.933 0.498,-19.764 0.646,-23.234l3.323,-68.233l0.695,-0.962l1.544,1.426Zm169.808,344.671c16.164,17.265 32.085,34.747 47.757,52.455c7.665,8.557 20.286,21.96 26.8,30.765c-23.854,2.797 -47.659,6.007 -71.404,9.615c-12.567,1.867 -25.189,3.405 -37.55,6.36c-22.082,5.272 -44.197,10.387 -66.218,15.907c-2.179,0.548 -4.664,1.215 -6.851,1.56c2.725,-3.502 14.75,-13.732 18.873,-17.475c20.314,-18.795 41.295,-36.862 62.904,-54.15l-0.252,-11.272c7.32,-9.66 18.309,-25.065 25.941,-33.765Zm-174.438,-177.888c0.146,3.235 22.422,45.656 25.634,50.947c-1.308,17.316 -1.993,35.851 -2.941,53.278c-1.012,18.598 -2.646,38.851 -3.031,57.32c-1.836,1.369 -14.973,11.578 -16.048,11.83c-3.014,0.568 -19.656,9.56 -23.396,11.51c0.172,-7.44 1.211,-17.185 1.802,-24.874l3.757,-47.193c3.274,-38.686 6.494,-78.995 10.517,-117.559c1.361,1.639 2.457,3.017 3.706,4.741Zm62.547,158.869c-0.265,33.149 1.474,67.806 0.858,100.724c-3.205,4.455 -6.026,8.812 -9.012,13.417c-8.343,-5.782 -9.812,-4.44 -20.219,-4.432c-4.383,5.332 -9.452,9.187 -9.467,15.637c-14.627,-11.76 -29.806,-25.095 -43.994,-37.38c17.352,-19.14 34.821,-38.175 52.404,-57.105c8.735,-9.277 21.552,-21.591 29.43,-30.861Zm84.858,-538.989c2.037,1.258 14.661,-0.836 18.217,-1.175c-0.021,31.358 -0.546,64.245 0.074,95.473l-3.365,2.718c-8.14,-2.805 -16.373,-4.986 -24.606,-7.385c-3.493,-1.019 -14.405,-3.525 -17.214,-5.142c-1.899,-5.672 0.574,-64.485 0.659,-75.127c8.241,-2.783 17.911,-7.453 26.235,-9.362Z" style="fill:#525151;"/><path d="M167.708,261.352l21.033,6.809l-0.529,1.57c-2.964,2.117 -15.48,15.682 -18.747,19.01c-15.855,16.147 -31.293,33.124 -47.221,49.188c-6.306,-1.384 -12.592,-2.856 -18.856,-4.415c-8.869,3.773 -16.915,7.325 -25.594,11.514c-2.048,0.988 -8.534,2.39 -12.164,3.842c7.253,10.08 14.699,20.02 22.334,29.814c1.777,1.973 4.812,6.336 6.646,8.706c5.567,7.221 11.174,14.413 16.82,21.574c-4.075,-2.545 -32.103,-20.438 -33.95,-20.547l-1.544,-1.426l-0.695,0.962l-3.323,68.233c-0.148,3.47 -1.401,21.301 -0.646,23.234c3.956,10.132 8.759,21.529 12.858,31.688l14.237,35.927c2.533,6.449 5.296,14.019 8.134,20.26l-0.595,1.062c-11.696,-25.036 -23.727,-49.915 -36.089,-74.629c-3.07,-6.282 -11.715,-23.058 -13.87,-28.866c-0.875,-2.359 -0.425,-28.097 -0.404,-31.714l0.709,-84.822c15.274,-10.613 30.447,-22.835 45.003,-34.384c22.049,-17.658 44.201,-35.188 66.453,-52.59Zm-107.686,253.373c2.335,3.149 6.18,9.905 8.304,13.481l14.352,24.273l45.148,76.485c-6.898,-7.187 -16.123,-22.166 -22.024,-30.71c-10.419,-15.085 -21.53,-28.745 -32.952,-43.054c-1.249,-1.724 -2.345,-3.102 -3.706,-4.741c-4.023,38.564 -7.243,78.873 -10.517,117.559l-3.757,47.193c-0.591,7.689 -1.63,17.434 -1.802,24.874c3.74,-1.95 20.382,-10.942 23.396,-11.51l-41.813,31.37c1.26,-9.705 2.026,-19.627 3.186,-29.379c8.538,-71.812 14.516,-143.952 22.185,-215.841Zm-30.289,281.888c34.01,-28.74 68.971,-56.333 104.827,-82.736l0.837,0.192c-7.878,9.27 -20.695,21.584 -29.43,30.861c-17.583,18.93 -35.052,37.965 -52.404,57.105c14.188,12.285 29.367,25.62 43.994,37.38c5.059,12.3 10.086,14.798 15.936,25.56c2.89,4.388 7.465,11.175 9.941,15.653l-0.813,1.987c-13.888,-11.865 -27.211,-24.915 -40.462,-37.522c-10.198,-9.705 -21.652,-19.47 -31.402,-29.505c-4.722,-3.353 -16.58,-14.655 -21.024,-18.975Zm206.68,-771.518c11.158,4.02 22.725,8.591 33.819,12.868c11.241,4.332 26.69,10.251 37.254,15.935c-2.696,-0.02 -7.627,-1.294 -10.662,-1.82c-5.568,-0.949 -11.154,-1.795 -16.754,-2.538c2.759,1.669 11.446,6.654 13.244,8.386c-17.278,-6.493 -36.925,-12.774 -54.621,-18.159l-0.157,60.651c-0.011,2.872 0.34,19.739 -0.609,21.15c-0.481,0.214 -1.264,0.622 -1.733,0.7c-16.977,6.376 -39.518,16.995 -54.875,26.394c1.165,4.187 3.575,10.091 5.144,14.287c-6.747,-3.39 -13.397,-6.967 -19.944,-10.728c-0.088,-8.779 -0.85,-19.384 -1.251,-28.257c-0.842,-17.726 -1.56,-35.458 -2.154,-53.194c24.073,-15.796 48.513,-31.025 73.299,-45.675Zm-66.216,156.996c4.971,-3.029 20.694,-11.718 24.867,-14.043c4.614,-2.571 41.816,-13.11 44.727,-12.714c11.278,1.534 40.567,8.136 51.411,11.773c-14.262,-0.144 -28.691,0.952 -42.936,1.295c-11.162,0.269 -17.59,3.652 -28.011,6.678c-8.324,1.909 -17.994,6.579 -26.235,9.362c-0.085,10.642 -2.558,69.455 -0.659,75.127l-23.145,-7.335l-0.019,-70.143Zm65.745,105.113l-0.032,-0.575c0.972,-1.251 2.278,-1.662 3.777,-2.412c10.448,11.403 23.426,23.625 34.475,34.748c13.575,13.687 26.667,27.844 39.252,42.445c3.726,4.323 11.517,12.824 14.513,16.943c-4.432,-3.692 -12.265,-11.622 -16.562,-14.335c-12.644,-7.983 -19.458,-17.314 -29.704,-28.044c-15.325,-16.048 -30.181,-32.883 -45.719,-48.77Zm154.359,307.266c2.826,10.18 3.77,25.486 4.874,36.528c1.975,19.876 3.829,39.764 5.565,59.663c-0.941,-0.778 -2.769,-3.054 -3.651,-4.086l-5.238,-58.04c-0.766,-9.149 -2.332,-25.323 -1.55,-34.065Zm14.757,-28.229c-1.083,2.909 -13.772,20.454 -16.13,23.264c-5.98,5.467 -21.643,17.518 -28.372,22.327c4.576,-5.294 11.235,-11.682 16.26,-16.764c9.491,-9.533 18.906,-19.143 28.242,-28.827Z" style="fill:#fefefe;"/><path d="M50.757,815.588c6.748,3.937 15.065,11.212 21.646,15.892c10.41,7.41 20.719,15.413 31.334,22.553c4.112,2.767 7.447,9.93 9.756,10.942c2.89,4.388 7.465,11.175 9.941,15.653l-0.813,1.987c-13.888,-11.865 -27.211,-24.915 -40.462,-37.522c-10.198,-9.705 -21.652,-19.47 -31.402,-29.505Zm240.781,-648.219c8.829,1.237 25.928,9.208 33.945,12.989c-0.188,24.128 -1.178,48.317 -1.524,72.47l-3.429,2.308c12.758,8.346 30.288,22.541 42.709,31.907c25.811,19.596 51.929,38.782 78.347,57.551c-0.438,33.55 -0.414,70.334 -1.82,103.62c0.059,1.363 0.153,1.353 -0.375,2.579c-1.831,-1.564 -11.782,-13.426 -14.275,-16.234c-0.101,-27.238 0.781,-56.349 1.207,-83.727c-39.641,-32.021 -77.576,-62.87 -118.147,-93.66c-0.128,-8.65 0.323,-17.862 0.518,-26.558l0.988,-45.729l-18.144,-17.516Zm113.52,398.872c10.266,-11.447 20.974,-22.489 32.1,-33.102c3.951,43.95 9.682,89.972 14.469,133.966l4.551,42.536c1.065,10.064 2.013,20.538 3.444,30.549c0.246,1.718 1.386,4.185 1.843,6c-4.606,-3.105 -16.524,-21.294 -20.726,-26.824c-1.572,-28.407 -3.309,-56.804 -5.212,-85.191l-3.613,-54.803c-0.564,-8.284 -0.945,-17.679 -1.69,-25.818c-10.216,8.814 -20.015,18.205 -30.337,26.893c-2.362,1.988 -8.634,7.655 -10.959,9.058c2.358,-2.81 15.047,-20.355 16.13,-23.264Zm-109.482,177.047c10.523,13.057 21.457,25.77 31.975,38.857c12.014,15.21 23.714,30.66 35.093,46.343l-27.659,43.275l25.43,-17.13c3.873,-2.648 9.41,-6.81 13.306,-9.068c5.625,-3.262 12.575,-6.562 18.472,-9.54c9.211,-4.762 18.464,-9.45 27.758,-14.047c18.142,-8.91 15.142,-10.088 35.684,-10.365c-47.064,31.777 -96.162,60.435 -146.978,85.792c14.486,-23.655 29.69,-45.6 44.035,-68.79c-10.901,-16.912 -22.106,-33.615 -33.611,-50.122c-8.2,-11.933 -15.417,-22.688 -24.144,-34.433l0.639,-0.772Zm-15.506,-693.748c5.6,0.743 11.186,1.589 16.754,2.538c3.035,0.526 7.966,1.8 10.662,1.82c5.994,2.864 20.812,11.446 26.7,15.277c-1.005,18.474 -2.161,36.94 -3.471,55.394c-0.581,8.688 -1.503,18.812 -1.74,27.417c-4.837,2.632 -9.878,5.293 -14.649,8.008c1.152,-3.304 2.325,-6.601 3.519,-9.892c-20.368,-11.155 -36.721,-16.075 -56.532,-24.989c17.778,2.972 37.275,6.957 54.777,9.646c2.169,-18.768 4.794,-39.483 6.195,-58.281c-5.874,-4.406 -22.266,-15.704 -28.971,-18.552c-1.798,-1.732 -10.485,-6.717 -13.244,-8.386Zm123.869,381.335c3.791,1.953 30.808,29.161 35.887,34.082c-13.417,22.483 -23.065,41.111 -35.091,64.236c-2.004,3.994 -4.055,7.964 -6.153,11.909c1.397,-5.692 5.565,-17.479 7.5,-23.65c5.417,-17.578 11.027,-35.096 16.831,-52.55c-4.375,-9.485 -13.652,-24.782 -18.974,-34.027Zm-77.713,-89.818c2.07,0.56 18.79,10.476 22.084,12.325l-2.36,-6.87c6.9,8.356 11.687,15.917 17.684,24.932l20.403,30.799c0.999,1.345 2.142,2.682 2.694,4.238c-1.022,-0.563 -7.7,-8.588 -8.844,-9.903c-16.742,-18.946 -33.969,-37.46 -51.661,-55.521Zm-43.108,508.536l0.648,0.915c-19.435,8.347 -41.827,19.972 -60.868,29.49c-4.57,-3.06 -20.793,-13.47 -24.203,-16.515l-5.826,-3.923c8.469,3.488 18.179,7.845 26.498,11.783l3.343,1.47c17.709,-8.018 42.019,-16.448 60.408,-23.22Z" style="fill:#f9b71d;"/><path d="M96.475,356.353c5.52,1.793 47.945,14.238 50.102,13.287c-0.216,-1.487 -1.514,-2.788 -2.502,-4.024c12.026,8.081 12.597,6.8 25.829,11.499c-2.72,-0.126 -4.787,-0.133 -7.503,-0.06c1.513,0.735 4.935,1.954 5.794,2.488c13.243,3.807 25.042,6.439 38.048,9.965c-4.991,-3.049 -10.31,-5.815 -15.445,-8.623c-3.125,-1.709 -6.741,-3.191 -9.687,-5.126c36.594,11.024 73.042,22.525 109.335,34.499c8.702,2.857 16.887,5.719 25.913,7.452c0.827,0.159 2.113,1.117 2.693,1.737l-0.153,0.448l-0.776,0.024c-0.333,5.577 11.266,13.91 14.999,17.78c-1.102,-3.148 -2.176,-6.401 -3.542,-9.455c-0.611,-1.365 -3.029,-4.106 -2.981,-4.919c1.69,1.068 5.452,5.837 7.086,7.547c8.803,9.21 16.021,17.09 23.706,27.342c-2.532,-1.557 -5.05,-3.135 -7.554,-4.736c1.796,6.079 4.11,12.03 6.316,17.977c-0.946,1.438 -2.002,2.972 -2.896,4.427c1.327,1.091 3.958,3.461 5.407,4.007c0.131,-1.124 0.192,-1.753 0.453,-2.865c2.946,3.514 1.264,3.961 5.957,5.585c0.062,1.367 -3.606,7.791 -4.526,10.555c-1.702,5.111 -2.665,8.27 -3.833,13.599c-4.364,2.721 -9.332,5.7 -14.103,7.65l8.44,-0.693c-5.682,2.724 -18.654,10.289 -24.038,13.943c6.776,-2.453 20.579,-9.039 27.228,-12.437c-2.191,7.145 -4.483,14.872 -5.965,22.206c2.352,-1.509 6.327,-4.293 9.129,-4.219c-0.822,3.094 -37.137,27.553 -42.483,31.321c2.793,-3.358 5.31,-6.934 7.53,-10.694c-16.657,9.954 -31.794,20.406 -47.908,31.13c1.994,2.357 10.184,10.483 10.122,12.273l-1.481,1.936c0.432,2.247 14.335,14.256 17.021,16.754c-3.643,-6.411 -7.415,-12.747 -11.315,-19.006c17.304,16.573 34.191,35.342 50.16,53.296c12.038,13.534 26.05,28.276 37.579,42.039c-8.488,-5.971 -16.447,-12.036 -24.749,-18.24c8.7,11.445 18.354,22.515 28.744,32.457c11.048,10.572 21.234,22.039 32.04,32.804c-3.48,-6.773 -7.152,-13.448 -11.01,-20.012c11.818,11.987 23.34,24.272 34.556,36.827c-7.775,-5.798 -13.456,-10.335 -21.75,-15.585c5.236,6.585 11.145,12.375 16.901,18.435c1.858,1.957 10.351,9.855 11.117,11.385c-3.078,-1.83 -5.325,-4.133 -8.166,-6.203c6.247,9.315 14.112,18.165 21.133,26.933c5.655,7.065 10.331,12.022 14.302,20.31c-2.341,-1.073 -3.732,-2.07 -5.839,-3.518c-23.519,-16.125 -43.027,-39.39 -65.743,-56.37c4.866,9.66 10.861,19.53 16.155,29.055c-6.267,-5.362 -15.992,-12.885 -21.288,-18.727c-16.233,-17.91 -33.403,-34.057 -50.849,-50.735c-7.099,-6.786 -14.407,-12.745 -21.561,-19.494c4.728,7.233 16.25,23.289 21.519,29.901c-11.989,-8.949 -33.511,-31.332 -40.747,-43.498c2.769,1.834 6.707,4.591 9.588,6.087c-8.866,-15.002 -24.81,-34.379 -38.625,-45.315c5.055,6.298 11.512,15.025 16.761,20.808c-4.968,-3.754 -10.026,-7.385 -15.171,-10.893c3.325,4.845 8.434,11.627 11.259,16.445c-12.606,-10.471 -24.161,-22.887 -35.802,-34.453c-2.244,-2.229 -8.084,-11.731 -10.207,-12.208l-0.065,1.362c-3.927,-2.654 -18.774,-17.656 -23.012,-21.618c-0.052,8.841 -0.005,17.962 -0.15,26.828c-0.053,3.273 -1.681,6.701 -1.542,9.237c0.982,17.773 0.3,35.542 0.898,53.288c0.192,5.697 0.424,11.914 0.094,17.619c-2.586,2.758 -5.109,5.576 -7.566,8.451c-0.343,-8.226 -0.787,-16.447 -1.332,-24.662c-1.383,5.514 -5.727,8.308 -3.528,12.883c-1.234,2.311 -3.985,3.724 -4.103,4.043c-2.924,7.902 -5.675,17.948 -9.196,25.466c-1.59,-22.476 -3.943,-43.829 -4.392,-66.661l-0.866,-2.567c-0.145,20.697 -1.984,42.06 -2.739,62.765c-0.086,2.365 -7.999,22.386 -9.322,26.188c-0.884,-11.377 -1.875,-22.397 -2.474,-33.801c-2.439,15.119 -6.548,30.171 -9.422,45.224c-0.479,2.512 -1.001,5.197 -1.84,7.605l-0.127,-0.15l-0.219,-0.015c-0.057,-0.968 -0.081,-1.208 -0.023,-2.183c-0.12,-14.28 -0.915,-28.98 -1.099,-43.311c-0.06,-4.684 -1.298,-10.366 -1.294,-15.192c0.004,-4.019 0.892,-8.13 0.882,-12.044l-0.483,-158.488c-0.029,-7.196 -1.062,-61.152 -0.054,-63.747l0.672,-0.105l1.427,1.432c4.157,4.301 8.224,8.764 12.431,12.991c0.012,-1.818 -0.435,-3.707 0.47,-4.657l1.196,1.066c3.193,2.802 7.349,7.214 10.601,10.305c6.618,6.19 13.273,12.339 19.966,18.448c-9.346,-13.477 -19.015,-25.737 -28.954,-38.636l-32.835,-42.784c3.069,1.273 10.057,3.377 12.069,4.418c5.367,2.779 8.877,4.686 14.606,7.169c-3.02,-4.102 -16.051,-20.257 -19.816,-22.86c-3.089,-2.556 -8.102,-8.08 -11.09,-11.113c-5.339,-5.339 -10.727,-10.626 -16.168,-15.861c8.503,3.128 18.819,6.258 27.515,8.999c-3.727,-4.349 -7.972,-8.039 -11.568,-12.521c-1.677,-1.239 -2.493,-4.246 -5.718,-4.873c-3.368,-2.462 -8.738,-7.786 -12.163,-10.83c-7.386,-6.494 -14.851,-12.899 -22.391,-19.213Zm111.113,87.768c1.63,1.152 5.539,4.238 7.163,4.472c0.788,3.462 0.524,29.796 0.536,34.636l0.394,79.316c8.676,-5.691 17.805,-10.827 26.439,-16.609c1.55,-1.037 4.407,-3.137 6.005,-3.898c1.416,0.126 4.611,-1.081 5.728,-1.943c11.754,-9.062 24.845,-15.992 36.454,-25.199c4.172,-3.309 8.804,-6.684 13.133,-9.628c-0.192,-4.958 -0.49,-20.576 -2.086,-24.238c-1.854,-1.162 -4.69,-2.236 -6.765,-3.113l-5.719,-8.239l-39.865,-12.646c-8.022,-2.61 -17.906,-6.23 -25.948,-8.17c-3.229,-2.108 -11.403,-3.52 -15.469,-4.741Z" style="fill:#f9b71d;"/></g></svg>