<?xml version="1.0" encoding="UTF-8" standalone="no"?><!DOCTYPE svg PUBLIC "-//W3C//DTD SVG 1.1//EN" "http://www.w3.org/Graphics/SVG/1.1/DTD/svg11.dtd"><svg width="100%" height="100%" viewBox="0 0 1435 587" version="1.1" xmlns="http://www.w3.org/2000/svg" xmlns:xlink="http://www.w3.org/1999/xlink" xml:space="preserve" xmlns:serif="http://www.serif.com/" style="fill-rule:evenodd;clip-rule:evenodd;stroke-linejoin:round;stroke-miterlimit:2;"><g id="Full-w-BG" serif:id="Full w BG"><path d="M415.374,531.085l-94.99,55.116l-5.844,-2.187l9.096,-34.214l-46.917,24.71l-33.992,-26.61l-17.714,5.227l0.958,26.135l-17.968,-2.594l-75.389,-70.586l11.969,-14.255l-5.266,-10.93l8.139,-72.705l-11.012,3.327l-7.66,25.185l-13.405,2.851l-14.362,-8.553l-1.915,-19.483l-19.629,-8.079l-3.83,-16.156l-15.799,-4.277l-3.83,-13.305l-18.193,-9.029l-6.702,2.376l-8.139,-3.327l-16.756,-2.851l-5.745,-11.88l-0.479,-18.532l10.054,-8.079l14.362,-0.475l13.884,-2.376l16.278,-7.603l5.745,-15.681l15.32,-0l6.224,-22.81l15.32,-5.702l1.915,-19.483l12.447,-11.405l14.841,1.901l7.182,27.086l8.617,-2.376l9.405,9.979l-0,-55.597l74.377,-56.549l1.436,-42.767l1.436,-6.653l-3.83,-9.028l-1.436,-62.726l58.887,-36.115l77.557,31.388l-1.436,65.552l-4.309,9.504l0.479,48.469l72.429,55.123l4.134,74.715l20.557,-80.901l-18.75,-33l-30,-38.25l10.5,-18l140.25,8.25l33,30l24,-7.5l9.75,4.5l62.25,-7.5l10.5,7.5l58.5,-9.75l12,-11.25l114,-3.75l32.25,30l82.5,-9.75l6,7.5l42,-8.25l6.75,6.75l39,-11.25l8.25,9l72,-14.25l8.25,15l55.5,-3.75l48.75,36l-15,75.75l-12.75,9l17.25,37.5l12.751,-9.858l0.808,-28.858l17.098,-3.802l12.447,-28.036l17.714,2.376l6.224,24.71l14.362,1.901l6.703,29.462l8.139,-0l14.362,14.731l16.757,8.078l15.32,3.326l16.277,2.376l7.181,18.058l-5.266,16.156l-20.107,5.703l-16.278,0.95l-13.884,6.178l-1.915,12.83l-20.586,6.178l-1.915,14.731l-19.15,9.028l-12.448,29.938l-11.888,-0.075l-13.486,-30.813l-9.972,-0.121l-4.26,-20.708l-8.988,7.061l-44.25,-27l-30.75,53.25l9.453,5.63l-5.703,12.37l12,12.75l-171.75,91.5l-15,-14.25l14.25,-31.5l-69,10.5l-10.5,-7.5l1.5,-9l-22.5,-7.5l-13.5,9.75l-136.5,16.5l-37.5,29.25l-16.5,-6l-9.75,-24.75l-19.5,-10.5l-75,22.5l14.25,39l-15,12l-105,-60l-96,34.5l-17.001,-16.265Z"/><g id="Full"><g id="Waveform-Right" serif:id="Waveform Right"><path d="M1317.97,248.745c0.701,0.25 1.293,0.467 2.015,0.674c2.273,19.516 2.221,41.294 2.67,61.055c0.09,3.95 1.433,8.457 1.56,13.786c0.331,13.714 -0.52,26.705 -1.153,40.376c-0.421,0.451 -0.303,0.468 -0.799,0.632c-2.151,-11.867 -2.434,-22.917 -4.198,-34.357l-0.769,0.236c-0.768,7.463 -0.109,14.278 0.336,21.743c0.288,5.185 0.503,10.374 0.644,15.565c0.562,-2.659 0.868,-5.362 1.455,-7.969c1.984,10.845 0.448,30.497 0.022,41.977c-0.263,7.138 -0.48,14.429 -0.682,21.585l-5.864,-0.002c0.035,-10.208 -1.146,-20.246 -1.488,-30.31l-0.743,-29.978c-0.125,-4.119 -0.521,-8.213 -0.669,-12.365c-0.28,-7.903 0.583,-15.745 0.016,-23.596c-0.542,-7.522 -0.258,-15.089 -0.292,-22.626c0,-2.627 0.489,-5.97 0.748,-8.678c0.678,-7.078 -0.476,-17.376 0.919,-24.113c0.57,0.539 0.648,1.12 0.942,1.931c1.104,-1.102 0.279,-8.343 0.83,-9.401c3.583,-6.875 -1.181,-9.485 4.5,-16.165Z" style="fill:#f9b71d;"/><path d="M1339.36,275.491c0.445,1.542 1.73,13.095 2,15.287c0.6,-0.038 0.35,-0.116 0.775,0.144c0.803,5.197 0.042,10.908 0.676,15.967c1.134,9.093 1.498,17.983 1.801,27.145c0.08,2.385 -0.468,5.127 -0.501,7.545c-0.147,10.958 -1.239,21.883 -2.51,32.758c-0.799,7.388 -0.312,14.408 -1.839,21.863c-0.638,-1.818 -0.917,-3.189 -1.328,-5.069c-0.26,-0.648 -0.988,-1.449 -1.579,-1.842l-1.049,0.28l-0.501,-0.357c-2.76,-5.584 -4.481,-77.643 -2.794,-85.627c0.251,0.301 0.431,0.528 0.662,0.849l0.199,0.278c0.482,-1.582 0.321,-2.859 0.477,-4.504c0.402,-4.345 0.307,-7.602 1.602,-11.777l0.1,0.148c1.106,-3.024 2.916,-11.346 3.809,-13.088Z" style="fill:#f9b71d;"/><path d="M1293.94,276.292c1.684,1.131 2.661,9.935 3.792,11.993c0.588,-0.377 0.317,-0.369 0.834,-0.288c1.119,4.072 0.876,16.664 1.754,18.497c0.285,-0.376 0.568,-0.754 0.849,-1.135c0.609,1.496 1.587,26.175 1.211,29.454c-1.478,12.87 -0.764,28.531 -2.685,41.081c-0.282,-1.912 -0.47,-4.072 -0.722,-6.034c-1.021,5.977 -1.561,12.173 -2.421,18.237c-0.331,2.086 -0.226,3.965 -0.608,5.949l-2.47,0.669c-0.382,-1.396 -0.214,-4.357 -0.363,-5.952c-1.321,-14.124 -1.846,-28.254 -2.224,-42.428c-0.125,-4.664 -1.252,-9.122 -0.987,-13.936c0.19,-3.457 0.099,-6.768 0.758,-10.234c0.588,-8.717 0.216,-17.619 0.597,-26.351c0.112,-2.554 1.049,-5.24 1.343,-7.755c0.461,-3.942 0.822,-7.844 1.342,-11.767Z" style="fill:#f9b71d;"/><path d="M1361.77,305.662c0.638,0.978 0.94,7.209 1.087,8.944c0.657,6.933 1.881,13.314 1.72,20.334c-0.297,12.936 -1.782,25.751 -2.538,38.623c-1.059,-0.952 -2.193,-1.888 -3.28,-2.811l-0.61,-3.11c-0.666,-2.199 -1.541,-8.997 -2.481,-10.01l-0.534,1.274c-0.478,-0.457 -1.229,-2.236 -1.267,-2.816c-0.331,-5.747 -0.969,-15.377 -1.22,-20.815c-0.141,-3.074 0.672,-21.27 1.461,-22.386l0.775,0.192c2.089,-1.331 1.347,-5.582 3.087,-6.841l1.276,0.563c1.04,-0.128 1.621,-0.597 2.524,-1.141Z" style="fill:#f9b71d;"/><path d="M1278.62,310.533c2.953,3.891 3.72,11.362 4.43,12.208c0.688,-0.468 0.431,-0.489 1.034,-0.462c0.864,3.645 1.414,24.071 -0.728,26.227l-0.629,-0.921c-0.951,1.008 -2.487,9.953 -2.959,12.145l-0.32,1.04c-0.967,0.146 -0.926,-0.814 -1.949,-1.223c-0.89,-0.356 0.017,0.784 -1.332,0.057c-1.285,-4.163 -1.425,-12.962 -1.961,-17.731c-0.509,-4.542 0.254,-10.262 -0.015,-14.895c0.169,-0.99 -0.36,-8.365 -0.037,-8.873c1.341,-2.108 3.261,-4.676 4.466,-7.572Z" style="fill:#f9b71d;"/><path d="M1377.41,322.174c0.317,0.33 2.34,2.94 2.524,3.019c1.276,0.538 1.517,-0.181 2.77,0.95c1.286,5.066 0.161,14.264 0.165,19.518c0,7.388 -2.018,2.58 -4.84,8.198l-0.354,0.35c-0.549,-0.132 -0.884,-0.326 -1.163,-0.863c-0.69,-1.343 -1.782,-1.247 -2.845,-2.306c-0.828,-4.64 -0.237,-13.32 -0.043,-18.079c0.104,-2.546 -0.033,-5.06 0.038,-7.644c1.191,-1.117 2.477,-2.119 3.748,-3.143Z" style="fill:#f9b71d;"/><path d="M1392.09,330.108c2.666,0.189 5.549,0.108 8.239,0.089c-0.118,5.662 0.222,10.985 -0.147,16.766c-3.932,-1.58 -3.795,-1.437 -8.252,-1.171c0.033,-4.127 -0.057,-11.838 0.16,-15.684Z" style="fill:#f9b71d;"/><path d="M1409.4,332.432l7.917,-0.003c-0.071,2.618 0.497,8.177 -0.463,10.64c-0.127,0.325 -0.917,0.24 -1.399,0.263c-1.182,-0.046 -3.479,-0.236 -4.556,0.015c-0.35,0.082 -0.549,1.085 -0.714,1.58l-0.445,0.126c-0.756,-1.493 -0.883,-11.072 -0.34,-12.621Z" style="fill:#f9b71d;"/></g><path id="Rhapsody" d="M960.272,356.108c0.329,-0.249 0.665,-0.505 1.006,-0.77l-1.027,0.927l0.021,-0.157Zm-0,0c-10.834,8.186 -15.317,8.178 -25.281,15.295l3.952,-12.339l-4.702,-5.898c-10.785,-0.073 -13.493,2.985 -22.335,8.921c-0.893,3.175 -1.74,6.601 -2.58,9.811c10.245,9.351 28.627,21.855 38.962,32.094c0.585,0.581 0.27,1.127 0.083,1.865c-1.058,0.361 -1.823,0.583 -2.82,1.126c0.015,1.757 -0.593,10.864 -0.465,11.154l2.782,-1.119l0.443,0.822c-1.02,4.08 -6.915,9.748 -8.483,14.972c0.788,0.241 1.215,0.376 1.973,0.706c-4.47,8.697 -21.383,20.958 -30.18,25.634c-2.235,1.19 -15.788,3.575 -19.073,4.217c1.748,-1.398 4.05,-2.947 5.903,-4.276c-12.78,3.468 -24.923,7.811 -38.22,11.314c3.105,-2.146 8.805,-5.853 11.212,-8.377l-0.15,-0.607l-3.225,0.688c-12.082,3.339 -24.712,6.358 -36.9,9.436c6.983,-4.351 17.153,-12.583 23.573,-17.86c-2.783,0.28 -5.873,0.759 -8.67,1.126c4.455,-3.319 9.817,-7.843 13.71,-11.801l-0.083,-0.523l-6.112,0.437c3.922,-2.556 19.56,-14.265 22.305,-14.816l-0.975,2.03l0.495,0.342c3.277,-1.26 7.455,-4.609 10.402,-6.761c-1.297,2.16 -4.792,6.83 -4.71,8.729l4.065,1.026c-0.255,1.265 -0.412,1.573 -0.93,2.767l1.373,0.45c9.097,-1.316 19.53,-7.696 26.97,-12.906l2.67,-9.572c-11.648,-11.311 -24.698,-20.177 -36.833,-32.035c0.758,-2.305 3.015,-8.432 2.243,-10.314l-1.5,0.54c-0.803,-3.062 7.102,-16.561 7.447,-20.652c0.038,-0.435 2.498,-2.485 3.06,-2.95c3.893,3.794 7.838,7.53 11.843,11.207c-1.695,-5.561 -3.21,-10.316 -5.273,-15.742c5.378,-3.634 18.885,-12.789 24.443,-14.443c7.29,-2.17 18.705,-4.357 26.587,-6.244l0.128,0.058c-0.27,1.352 -3.15,3.051 -4.545,4.096c11.272,1.493 10.567,0.866 21.405,-4.197c-2.355,4.275 -8.033,14.087 -2.895,18.402c0.847,-1.012 1.455,-1.885 2.565,-2.614c-0,2.96 -2.913,11.393 -3.654,16.781Zm-480.313,-34.046l61.47,0.105c4.394,4.108 13.304,13.151 17.522,15.966c1.833,-0.723 -0.36,-1.794 1.078,-4.046c3.189,1.961 15.458,13.527 19.073,16.784l-10.958,41.484c-11.284,6.599 -22.497,13.32 -33.635,20.164c10.888,16.457 22.475,33.418 32.642,50.237l-7.311,-5.447c2.282,4.983 10.628,18.608 14.269,22.255l0.378,-0.799l0.644,0.126c1.898,2.782 4.402,6.122 5.591,9.197c-0.937,-0.363 -1.289,-0.578 -2.314,-0.55c0.769,2.281 14.74,25.678 16.78,29.272c-8.824,-8.545 -20.375,-18.184 -29.719,-26.51l3.127,9.253c-4.361,-5.293 -8.875,-10.458 -13.537,-15.488c-4.692,-5.397 -21.645,-29.859 -24.666,-31.974l0.329,3.81l-0.475,0.114c-6.656,-8.296 -17.352,-25.275 -23.737,-34.597c-5.357,18.515 -10.985,42.022 -15.689,60.925c-2.578,1.395 -5.399,3.646 -7.79,5.43l2.373,-12.222c-4.306,6.526 -9.55,12.383 -15.563,17.381l0.058,-0.244c-4.34,2.587 -5.905,4.709 -9.22,8.522c4.363,-20.77 10.082,-42.564 15.138,-63.204c7.105,-29.804 14.459,-59.547 22.06,-89.229c-2.881,-3.358 -5.783,-6.699 -8.706,-10.021c3.467,0.227 7.332,0.688 10.824,1.036c-6.619,-5.976 -13.299,-11.886 -20.036,-17.73Zm42.108,28.521c0.4,0.719 0.885,1.86 0.737,2.679c-2.355,13.005 -7.008,26.74 -9.804,39.603c1.98,-0.954 4.96,-2.703 6.993,-2.439c-0.018,0.855 -0.025,1.318 0.047,2.187c1.792,-0.202 9.719,-5.673 11.785,-7.01c4.128,-2.335 8.945,-4.917 12.849,-7.5c1.996,-7.024 4.015,-14.732 6.157,-21.655l-5.132,-4.936c-7.283,-0.331 -16.616,-1.083 -23.632,-0.929Zm551.434,-21.036c10.74,-0.209 21.48,-0.309 32.22,-0.3c7.11,6.885 13.837,14.161 20.152,21.793c-0.015,5.303 1.185,19.734 0.27,23.896c-3.87,17.587 -10.68,37.372 -15.015,54.828c-9.037,8.296 -17.55,16.921 -26.79,25.228c-3.967,0.498 -8.295,1.27 -12.27,1.902l5.603,-4.869c-9.998,3.462 -20.153,6.443 -30.435,8.932l-1.08,0.021l-0.158,-0.481l4.71,-3.354c-9.96,3.395 -20.91,5.927 -31.155,8.235c3.038,-3.432 8.385,-6.897 10.845,-10.818l-0.427,-0.586l-3.938,-0.153c1.253,-1.948 4.965,-3.812 6.9,-5.365c4.058,-3.241 1.898,-1.717 0.578,-4.956c0.66,-2.289 3.472,-3.871 5.512,-5.34c6.503,-28.871 14.153,-57.851 20.805,-86.919c-1.552,-2.561 -3.81,-5.966 -4.755,-8.712c0.81,-0.244 1.62,-0.475 2.43,-0.691c-1.02,-2.61 -7.08,-9.491 -9.202,-12.051l25.2,-0.24Zm8.79,25.365c-6.525,25.549 -12.78,51.165 -18.773,76.843c4.268,-1.026 12.555,-2.656 15.863,-4.93c12.75,-9.686 14.325,-15.612 18.555,-30.438c3.397,-11.889 5.122,-19.729 4.68,-32.043l-7.83,-9.162l-12.495,-0.27Zm-66.053,-26.759c1.628,-0.292 9.39,0.719 11.438,0.951c6.292,6.988 12.412,14.135 18.345,21.434c-5.663,26.415 -13.68,58.173 -20.745,84.318c-9.69,8.855 -20.595,16.983 -30.953,25.125c-3.855,0.171 -12.375,2.115 -13.86,1.617l1.41,-2.201l0.803,-0.738l-0.255,-0.634c-8.31,1.092 -6.818,-1.894 -11.7,-2.747l0.285,1.615l-1.26,0.168c-5.603,-1.676 -14.288,-15.874 -18.293,-21.061c7.373,-26.796 13.62,-56.792 20.85,-84.411c8.528,-7.119 17.865,-14.244 26.558,-21.31c4.725,-0.393 9.712,-0.921 14.43,-0.875c1.042,0.011 1.905,-0.683 2.947,-1.251Zm-9.082,26.722c-5.693,0.025 -9.645,4.454 -13.86,8.383c-5.85,20.805 -10.62,40.92 -15.623,61.937l5.64,7.851l8.325,-0.059c3.938,-0.213 10.455,-7.156 13.658,-10.074c5.032,-20.32 10.372,-40.92 15.112,-61.273l-5.347,-6.917l-7.905,0.152Zm-258.523,-29.637l0.935,0.488c-0.345,1.007 -0.538,1.392 -0.569,2.484c1.805,0.204 11.032,-2.173 15.187,-2.539c-0.203,23.664 -2.46,51.921 -3.353,76.095c3.945,-0.349 7.898,-0.722 11.843,-1.118c-4.733,3.722 -7.35,4.247 -6.9,8.741c0.09,0.874 -2.82,3.227 -2.73,7.176c0.982,2.31 3.187,3.387 5.325,4.749l-8.16,2.668l-2.543,57.045c-1.23,-2.777 -4.493,-12.784 -5.835,-14.137l-0.599,0.224l-0.661,4.228c-1.885,-6.629 -2.703,-13.983 -4.659,-21.024c-0.603,5.304 -1.19,12.109 -2.319,17.2l-3.817,-5.206c-1.27,0.213 -1.127,0.587 -2.201,2.004c-1.851,0.579 -2.457,0.849 -3.93,2.148l-0.729,-0.227c0.772,-12.4 1.374,-23.386 1.455,-35.818c-10.767,0.387 -21.888,3.34 -32.496,5.68l-4.012,7.888l-10.355,21.137l-7.32,3.152l2.732,-6.958c-4.521,3 -6.632,4.48 -10.622,8.112c1.413,-4.686 3.165,-9.179 4.89,-13.756c-10.246,16.7 -11.216,12.712 -24.765,23.543c6.97,-14.121 14.085,-28.169 21.344,-42.144l-6.797,0.371c1.844,-1.588 7.501,-6.248 8.658,-7.914l-2.904,-0.326c0.549,-1.588 6.51,-7.97 7.967,-9.577l-0.074,-0.815l-2.547,-0.308c1.581,-3.189 5.571,-2.839 9.016,-9.37c2.906,-5.51 5.567,-12.211 8.37,-17.502c9.611,-17.796 19.439,-35.472 29.482,-53.028l-7.57,-9.058c10.586,-0.654 22.049,-0.077 31.263,-4.308Zm-12.033,39.592c-2.818,5.145 -23.186,43.356 -22.808,45.664c7.256,-1.477 14.485,-3.086 21.684,-4.825c0.169,-6.035 1.947,-37.164 1.124,-40.839Zm-63.454,-38.04l0.263,-0.513c0.982,2.082 0.337,1.462 2.38,2.364c2.937,-0.326 6.335,-2.772 8.969,-4.373c-4.037,18.528 -11.169,40.211 -15.784,59.38l8.124,-0.08c-5.162,3.938 -9.265,9.097 -11.938,15.013c-1.53,3.333 -3.809,14.158 -5.009,18.375c-3.893,13.677 -8.064,27.379 -11.566,41.149c-1.704,1.051 -2.79,1.927 -4.766,2.183l-1.823,-1.483c-1.937,0.792 -5.121,4.857 -6.674,6.63c1.211,-5.694 2.201,-12.759 3.18,-18.593c-2.773,7.661 -4.889,14.512 -11.756,19.498c-4.99,3.622 -4.501,2.977 -8.491,7.758c5.952,-20.648 12.029,-43.72 17.574,-64.535c-13.291,2.018 -16.578,3.102 -29.552,7.068c-1.655,6.669 -4.06,13.047 -5.989,19.644c-2.776,9.495 -5.421,19.043 -8.067,28.575c-1.566,0.81 -2.68,1.623 -4.386,1.503c-0.598,-1.053 -0.838,-1.773 -1.92,-2.284c-2.274,0.974 -5.034,4.102 -6.888,5.956c1.109,-5.493 2.163,-10.998 3.163,-16.513c-2.255,4.166 -4.423,8.612 -6.565,12.856c-1.79,-3.774 -3.729,-7.073 -5.811,-10.686c3.723,-15.236 7.394,-31.087 11.614,-46.141c-3.939,-0.485 -8.283,-0.471 -12.274,-0.563c3.909,-2.244 9.427,-4.829 11.561,-8.756c-1.979,-0.391 -1.809,-0.058 -3.146,-1.192c0.867,-1.128 5.739,-3.681 7.275,-4.554c4.626,-17.681 9.088,-35.404 13.386,-53.167c-2.34,-5.798 -4.165,-7.882 -8.03,-12.617c3.212,-0.016 16.094,-0.34 18.361,0.375l0.536,2.346c2.11,-0.192 6.159,-3.319 8.162,-4.671c-0.436,1.906 -1.616,5.448 -0.918,7.001l2.067,-2.797l-0.2,0.723c2.76,-0.854 8.489,-3.469 11.37,-4.688c-5.065,20.668 -10.483,41.248 -16.249,61.732c9.797,-1.984 19.338,-3.571 29.153,-5.826c1.942,-7.779 11.937,-48.102 14.956,-52.98c1.758,-0.532 2.888,-1.035 4.717,-0.688l0.172,1.394c2.339,0.173 5.635,-2.14 7.825,-3.384l-2.106,9.218l5.1,-9.657Zm151.017,-3.755c20.918,-1.525 37.448,9.097 51.068,24.104c-3.39,15.365 -7.635,31.606 -11.415,46.938c-20.153,12.531 -34.17,17.992 -56.513,26.213c-3.72,14.414 -9.022,29.822 -13.695,44.03l-5.392,4.051l1.515,-9.687c-1.928,2.813 -7.635,11.782 -10.118,13.442l-0.6,-1.638c-6.277,8.369 -10.702,11.628 -16.462,20.744c1.267,-5.218 16.432,-64.802 16.155,-66.138c-1.268,-0.069 -1.905,-0.056 -3.173,0.029c0.915,-4.09 6.908,-9.617 6.465,-13.04l-1.65,-0.609c6.96,-12.551 7.013,-18.615 10.5,-32.381c2.415,-9.739 5.078,-19.414 7.98,-29.017l-8.122,-9.839c2.31,0.118 5.31,0.533 7.305,-0.445l0.195,-1.171c-1.613,-2.831 -10.035,-8.513 -13.028,-12.395c12.968,-1.345 25.965,-2.409 38.985,-3.191Zm-1.012,27.798c-0.293,5.871 -8.325,35.38 -10.11,43.464c5.19,-1.969 12.487,-4.469 17.092,-7.245c4.673,-2.359 7.793,-3.964 12.143,-6.832c1.86,-6.993 3.787,-14.96 5.842,-21.823l-5.272,-6.228c-7.238,-0.905 -12.308,-1.576 -19.695,-1.336Zm388.065,-29.455l0.72,0.2c-0.78,5.536 -22.635,39.76 -26.483,47.902c-5.79,12.252 -14.587,26.289 -20.055,38.761c-5.235,11.955 -9.57,24.181 -14.227,36.242c2.145,0.517 4.725,0.919 6.93,1.318c-8.205,5.021 -15.833,8.367 -24.33,12.707c-2.85,1.455 -10.545,8.71 -13.365,9.024c0.682,-1.162 1.867,-2.658 1.77,-3.753c-10.373,5.922 -24.803,16.197 -35.063,23.038c9.285,-9.906 17.97,-20.452 26.94,-30.688c-2.842,1.217 -6.352,3.01 -9.195,4.371l7.898,-7.83c7.995,-7.473 14.985,-13.14 19.252,-23.588c4.508,-11.054 9.068,-22.111 13.583,-33.169c-4.35,-16.793 -9.548,-33.468 -14.123,-50.209c-2.055,-7.522 -5.535,-13.874 -10.005,-20.194c3.255,0.481 12.053,2.99 13.86,2.634l0.165,-2.659c1.943,0.315 3.008,2.644 4.455,4.604l0.96,0.037l-0.375,-2.54c1.545,-0.619 4.845,1.409 5.288,1.268c1.927,-0.608 3.247,-1.77 5.91,-1.437c2.317,4.236 8.01,32.363 9.615,39.033c7.08,-10.815 13.695,-24.757 20.737,-35.888c1.935,-3.054 1.568,-2.797 4.763,-3.592c3.795,2.393 5.197,0.462 8.73,-1.477l-3.398,8.26c6.525,-7.479 9.945,-8.475 19.043,-12.375Z" style="fill:#fefefe;"/><path id="Rum-Runner" d="M784.203,309.961l-6.622,6.064l3.037,-8.4c8.153,-18.509 10.08,-33.243 14.618,-52.877c5.22,-23.173 10.665,-46.297 16.32,-69.369c-1.058,-1.699 -1.53,-2.588 -2.378,-4.377l0.638,-0.51l3.06,0.94c0.135,-2.53 -11.865,-16.682 -13.965,-19.187c22.035,-0.046 44.07,-0.232 66.105,-0.56c8.092,7.604 16.132,15.267 24.112,22.989c-3.502,15.999 -8.062,32.416 -12.247,48.297c-9.773,5.793 -20.7,11.616 -30.683,17.196c8.708,14.4 19.17,28.058 27.66,42.47c1.86,3.52 4.013,7.387 5.693,10.952c-1.553,-1.667 -5.048,-5.631 -6.578,-7.039c2.063,5.662 4.883,10.922 7.178,16.47c3.39,8.184 6.555,16.524 9.735,24.795l3.622,10.013l-7.252,-8.644c-8.573,-10.352 -17.228,-21.037 -26.16,-31.052l3.682,12.538c-15.72,-19.794 -29.73,-43.055 -44.452,-63.889c-2.783,13.228 -6.525,27.245 -9.51,40.639c-1.92,1.222 -3.533,2.22 -5.543,3.297l-0.832,-0.411l0.667,-3.162c-3.217,-0.558 -10.665,9.879 -13.35,10.203l0.548,-3.507c-1.425,0.243 -5.663,4.754 -7.103,6.121Zm49.763,-120.535c1.792,3.223 -1.613,13 -2.633,16.998c-2.055,7.935 -3.885,15.927 -5.49,23.967c8.145,-3.606 8.955,-0.872 17.858,-6.171c3.495,-2.216 8.137,-4.971 11.437,-7.3c1.703,-6.47 3.375,-13.206 5.31,-19.591l-5.212,-6.214c-6.623,-0.656 -14.73,-1.668 -21.27,-1.689Zm202.496,107.446c-1.619,0.062 -7.809,3.247 -9.364,3.971l0.383,-0.452c-3.675,0.755 -5.393,2.473 -8.288,4.781l-1.357,0.549l-0.135,-0.774c4.897,-10.905 8.722,-29.619 11.73,-41.984l12.21,-49.366c1.515,-6.315 3.315,-15.662 5.67,-21.827c0.367,-0.961 1.8,-0.894 2.94,-0.988c4.17,-0.343 4.965,-1.097 8.392,-3.636l0.623,2.7c1.297,0.69 5.415,-0.62 7.14,-1.052c1.417,4.037 2.257,12.574 3.015,17.065c1.95,11.473 3.315,23.608 5.745,34.959c2.017,-8.554 10.035,-47.71 12.787,-52.853c2.063,-1.285 1.365,-1.218 3.368,-1.281l0.765,1.957c2.985,-1.004 4.672,-4.825 7.732,-6.143l-0.285,2.413l0.435,0.499c3.12,-0.943 6.458,-3.671 9.18,-5.637l0.45,0.465c0.075,2.801 -26.82,114.226 -28.245,117.803c-1.98,0.735 -1.965,0.259 -4.477,-0.526l-0.968,1.831l-0.93,-0.198c-5.167,-7.575 -6.112,-1.962 -10.41,-3.332c-1.192,-1.618 -8.16,-46.315 -9.982,-52.462c-3.24,16.607 -8.243,35.636 -12.285,52.131c-1.905,1.07 -3.33,2.031 -5.49,2.401l-0.182,-0.623l0.047,-0.374c-0.046,-0.012 -0.099,-0.017 -0.161,-0.018l-0.094,-0.324l0.041,0.325Zm0.167,0.391l-0.058,0.472l-0.109,-0.863l0.053,-0.001l0.114,0.392Zm-574.995,-144.203c6.298,0.315 15.896,0.227 21.735,1.143c18.93,2.97 37.213,3.49 56.355,4.245c7.554,7.008 16.92,14.025 23.518,21.753c3.185,3.73 1.106,8.426 7.304,13.404c-2.327,9.596 -5.065,18.417 -7.87,27.867c-0.758,2.553 -1.567,12.099 -2.687,13.128c-4.714,4.329 -11.736,8.559 -17.16,12.111l2.115,-2.886l-0.167,-0.68c-2.41,0.585 -13.742,8.237 -16.796,10.184c2.824,4.838 27.399,42.672 27.512,43.265c-1.267,-0.587 -1.399,-0.719 -2.762,-0.749c0.783,2.5 10.075,14.765 12.894,20.733l-1.526,-1.806c4.995,12.314 13.437,26.467 20.105,38.29c-7.928,-9.142 -20.693,-22.666 -29.318,-31.049l-0.6,0.06c0.339,1.957 0.516,2.907 0.526,4.95c-1.465,-0.536 -9.836,-12.242 -11.506,-14.497c-4.664,-6.123 -9.484,-12.125 -14.457,-17.999l3.029,9.406c-9.81,-13.025 -19.382,-26.135 -28.628,-39.564c-0.766,-1.112 -2.592,-2.16 -3.796,-2.822c-2.111,1.659 -9.929,33.101 -11.404,38.635c-2.395,2.334 -4.954,5.202 -7.267,7.67l1.958,-9.413l-14.236,20.786l2.548,-11.462c-4.604,8.37 -10.526,17.424 -15.784,25.369c11.606,-44.828 22.919,-89.73 33.939,-134.706l-9.652,-13.595c3.714,1.188 8.43,2.294 12.271,3.296c-5.05,-5.67 -10.472,-11.223 -15.634,-16.837c1.542,-0.737 1.959,0.776 3.681,-0.046c-3.298,-4.247 -13.602,-13.351 -18.24,-18.184Zm49.383,38.382l4.834,4.701c-3.165,12.136 -6.261,24.489 -9.55,36.575c11.887,-4.49 7.342,0.925 19.488,-6.215l11.031,-6.438c1.582,-6.342 3.268,-12.109 5.141,-18.35l-5.687,-6.795c-8.327,-1.413 -16.869,-2.407 -25.257,-3.478Zm705.704,-8.76l2.092,-0.021c9.225,6.671 10.02,6.825 18.803,15.469c0.082,6.572 0.922,9.371 -0.773,16.01c-1.935,7.532 -3.682,15.265 -5.437,22.845c-9.518,6.108 -18.938,12.375 -28.245,18.798c5.64,11.4 12.862,22.854 19.132,33.942c1.988,3.507 11.108,17.847 11.925,20.913c-1.575,-1.263 -2.902,-2.901 -4.237,-4.42c5.527,12.512 12.742,24.178 17.872,37.477c-9.225,-10.291 -18.525,-20.518 -27.892,-30.678l-0.608,0.193l0.518,2.843l-0.323,0.33c-3.862,-3.868 -12.097,-15.432 -14.985,-20.173c-1.95,-3.667 -3.697,-7.08 -6.45,-10.253c-6.12,-7.068 -10.852,-15.58 -15.735,-23.564c-2.932,11.485 -5.737,23.001 -8.422,34.547c-1.973,1.341 -2.513,1.736 -4.778,2.619l-0.592,-0.492c0.39,-1.184 0.555,-1.406 0.232,-2.631c-1.147,0.228 -10.057,10.412 -11.58,12.089c0.413,-1.601 0.848,-2.64 0.525,-4.25c-1.665,0.985 -6.862,8.862 -8.512,11.081c7.98,-36.011 16.927,-76.253 26.355,-111.713l-3.195,-6.37l0.315,-0.742c1.425,0.236 2.475,0.575 3.81,0.116c0.345,-2.944 -4.103,-8.404 -5.933,-10.911c15.368,-1.146 30.735,-2.164 46.118,-3.054Zm-21.863,24.345c1.41,4.779 -6.622,24.9 -5.347,28.806c3.54,0.674 3.345,-1.68 4.987,-0.508l-0.555,1.777c2.16,-0.582 5.108,-3.197 6.99,-4.666c4.148,-3.42 6.48,-5.186 11.018,-8.042c0.645,-3.493 1.267,-7.236 1.98,-10.691l-3.615,-4.824c-4.103,-0.486 -11.61,-1.66 -15.458,-1.852Zm-471.724,-29.835c-0.007,0.996 -0.992,3.383 -1.376,4.443l0.594,0.752c3.453,0.754 6.788,-1.63 9.675,-3.384c-8.35,35.909 -14.4,77.795 -23.659,112.891c1.063,3.45 2.047,7.08 3.042,10.566c-3.839,-2.678 -15.209,-8.68 -19.874,-6.964c-2.067,0.761 -3.118,-0.032 -5.266,-0.542c4.253,-18.972 7.723,-38.921 12.412,-57.604c-2.619,3.67 -6.459,10.493 -8.983,14.563l-19.367,31.117c-2.358,-14.683 -5.34,-29.399 -7.404,-44.13l-4.929,20.649c-2.24,11.486 -5.276,23.44 -7.68,35.099c-8.811,2.698 -19.442,2.745 -29.558,5.561c12.509,-15.164 10.472,-14.041 14.787,-32.918l12.002,-52.367c1.068,-4.684 5.127,-26.413 7.545,-28.228c2.157,0.115 1.459,0.002 3.352,1.758c2.763,-0.322 4.28,-3.549 7.345,-3.932l-0.157,2.028c3.548,1.481 5.021,0.013 8.107,-1.831c0.887,11.341 5.224,33.795 6.94,46.371c7.821,-11.375 20.523,-38.16 28.282,-47.45c2.36,-0.888 1.595,-0.951 3.623,-0.537l-0.131,1.557c3.353,-1.422 7.661,-5.103 10.678,-7.468Zm303.754,9.723l0.57,0.597l-0.225,2.104l1.065,0.726c2.648,-0.43 5.55,-2.373 7.935,-3.751c-2.617,8.315 -5.1,20.357 -7.245,29.177l-13.357,54.943c-1.005,4.169 -5.498,26.608 -7.995,27.864c-1.695,-0.54 -2.198,-0.699 -3.968,-0.854l-1.77,1.844l-0.975,-0.198l-1.395,-3.114c-3.877,-2.787 -4.927,1.131 -9.06,-0.159c-1.342,-3.067 -3.022,-14.62 -3.705,-18.639c-1.957,-11.853 -4.05,-23.682 -6.285,-35.485c-2.542,14.227 -8.685,38.288 -12.082,52.815c-1.755,0.778 -4.718,2.285 -6.473,2.4l0.443,-2.084l-0.39,-0.477c-2.018,0.481 -6.908,5.442 -10.245,5.98l-0.728,-0.724c-2.355,0.23 -11.752,5.871 -14.317,7.318c2.962,-4.655 9.195,-12.709 11.43,-16.854c1.477,-2.749 4.68,-17.193 5.557,-20.84l12.773,-53.415c1.762,-7.367 3.585,-15.41 5.557,-22.835c0.968,-3.645 5.333,-0.483 6.128,-1.085c1.245,-0.937 3.277,-2.782 5.587,-3.873c0.218,1.502 0.278,1.604 0.945,2.985c2.558,0.603 4.35,-0.557 7.358,-1.318c1.882,1.728 7.965,45.101 9.675,51.89c1.8,-7.338 10.747,-46.762 13.042,-50.532c1.23,-0.352 2.235,-0.186 3.548,0.095c2.985,0.64 6.142,-2.5 8.602,-4.501Zm-64.605,-3.779l0.398,0.599c-0.225,1.698 -0.533,3.213 -0.878,4.887c-6.427,31.149 -14.37,61.926 -21.517,92.901c-6.3,5.741 -14.393,12.21 -21.008,17.805l-27.652,0.099l-14.588,-19.917c5.948,-27.255 12.488,-54.375 19.628,-81.342c0.585,-2.953 0.592,-4.794 2.737,-6.5c2.738,-0.05 1.643,-0.294 4.125,1.013c2.055,-1.368 4.125,-2.709 6.21,-4.021l0.578,0.37l-0.45,1.811l1.627,0.6c3.833,-0.408 7.238,-2.767 10.8,-4.637c-7.08,27.054 -13.237,55.115 -20.16,82.39l3.548,5.827c2.692,-0.266 5.79,-0.378 8.527,-0.545l6.728,-6.712l12.45,-51.891c1.492,-6.11 4.86,-21.143 7.005,-26.46c1.575,-1.077 1.792,-1.145 3.69,-1.382c0.51,0.901 0.375,1.227 0.27,2.254l-0.045,0.347c2.22,-0.558 4.77,-4.69 8.272,-6.411c0.668,0.656 0.548,1.06 0.795,2.162l1.418,0.451c2.685,-0.326 5.167,-2.219 7.492,-3.698Zm-318.632,-1.406l0.514,0.761c-6.187,31.077 -15.883,67.748 -23.356,99.052l-19.759,17.415c-9.099,0.259 -18.199,0.415 -27.3,0.464c-4.833,-6.257 -9.936,-13.79 -14.555,-20.322c2.229,-10.108 19.198,-85.549 22.186,-88.016c2.977,-0.535 2.104,-0.836 4.312,0.492c2.082,-0.576 5.396,-4.144 7.166,-5.814c-0.595,2.074 -1.586,4.504 -0.983,6.445c1.899,0.006 10.184,-5.532 12.53,-6.918c-3.237,10.196 -5.976,22.602 -8.531,33.13l-12.209,50.316l3.347,6.113l8.117,-0.943l6.705,-6.789c4.03,-18.015 8.179,-36.002 12.447,-53.962c1.63,-6.853 4.276,-19.627 6.565,-25.649c1.728,-1.223 2.258,-1.222 4.271,-1.514c0.237,1.199 0.271,1.609 0.315,2.831c1.57,-0.479 7.287,-5.621 8.899,-6.992c-0.681,1.885 -1.09,2.75 -1.155,4.806l0.744,0.312c2.118,-0.093 7.578,-3.876 9.73,-5.218Zm524.762,4.195l0.675,0.593c-1.117,1.613 -6.615,15.233 -6.727,16.992c0.817,1.686 1.365,2.332 0.997,4.135c-3.3,0.888 -23.497,1.232 -28.065,1.359l-5.655,23.118c10.125,-0.435 20.258,-0.762 30.398,-0.981c-6.893,5.509 -10.74,10.465 -10.545,19.532c-2.828,2.491 -20.07,2.254 -25.118,2.418c-0.727,5.382 -3.967,17.568 -5.34,23.339c10.763,0.263 22.028,-0.299 33.03,-0.136c-4.365,6.248 -2.64,8.436 -4.162,10.323c-1.02,1.944 -2.093,5.697 -2.798,7.905c0.09,0.282 2.723,4.09 3.09,4.623c-18.525,0.13 -37.05,0.15 -55.567,0.058c6.517,-26.787 19.027,-79.183 25.192,-108.235c0.12,-0.575 -0.615,-0.343 0.21,-1.953c3.893,-0.958 13.905,-1.213 18.255,-1.439l32.13,-1.651Zm-404.152,42.936c8.25,-0.309 17.055,-0.283 25.342,-0.399c-2.085,1.381 -8.137,5.068 -9.315,6.863l2.34,0.831c-0.442,2.695 -4.732,5.185 -6.975,6.397c3.72,2.185 4.53,5.268 8.115,9.453l-20.97,0.579c-11.543,0.368 -23.087,0.612 -34.632,0.732c3.779,-7.645 4.29,-15.09 6.399,-23.608c9.355,-0.676 20.208,-0.662 29.696,-0.848Z" style="fill:#f8b209;"/><path id="Outline" d="M435.957,525.636c12.183,-58.878 26.429,-115.752 40.13,-174.107c-2.108,-1.597 -4.9,-4.303 -6.921,-6.147c-13.391,7.846 -26.895,15.496 -40.509,22.948c12.419,-56.621 27.4,-112.94 39.697,-169.133c-6.091,-9.411 -15.369,-21.833 -20.612,-31.178c0.985,-0.594 0.728,-0.258 1.259,-1.172c-8.229,-10.912 -20.238,-24.074 -29.265,-34.882c40.399,1.186 88.28,4.772 128.938,7.448c11.26,10.215 23.591,21.162 34.366,31.773c3.682,-1.713 23.465,-9.911 26.461,-8.991c-0.237,1.631 -0.389,2.915 -0.518,4.563c1.341,0.78 65.426,-6.878 71.844,-7.669l-5.842,9.446c25.533,-4.419 54.866,-9.209 80.426,-12.481c-2.859,17.096 -6.863,36.652 -10.509,53.649l41.739,-1.227c2.062,-7.868 3.9,-16.658 5.692,-24.62c-7.462,-12.013 -17.977,-26.566 -26.115,-38.466c34.913,-1.198 71.73,-3.064 106.568,-3.386c12.352,10.625 20.077,17.92 31.605,29.58c24.727,-3.641 57.562,-7.677 82.53,-9.743c-2.61,2.634 -6.48,5.271 -5.708,9.115c2.4,0.386 49.463,-8.112 55.298,-9.107l-4.583,8.174c15.63,-3.555 33.45,-8.72 49.328,-12.712l-7.208,11.202c26.843,-6.344 57.533,-11.711 84.878,-17.253c-5.58,6.108 -11.265,12.114 -17.063,18.019l83.565,-7.664c10.943,8.554 24.668,17.933 36.113,26.249c-4.74,17.939 -9.293,43.515 -13.103,62.289c-5.235,3.157 -13.237,9.043 -18.442,12.661c2.692,5.611 22.477,41.059 22.17,43.777c0.127,0.978 0.307,2.76 0.547,3.639c6.945,17.471 15.128,49.404 20.985,68.269c-7.942,-4.51 -31.77,-18.082 -38.047,-23.487l-1.133,-0.803l-8.362,-5.231c-1.778,-1.05 -2.498,-1.971 -4.073,-1.629c-4.342,6.126 -12.435,22.281 -15.15,25.636c-9.3,18.31 -19.087,35.71 -27.337,54.557l11.145,4.227l-6.413,9.396l8.453,9.241c-48.578,26.7 -97.703,52.383 -147.353,77.033c4.508,-9.106 15.503,-26.105 18.413,-33.333l-0.653,-0.458l-3.78,0.851c0.75,-2.504 10.26,-13.96 12.66,-16.956c-9.375,1.546 -21.457,3.962 -30.667,5.113c-19.478,4.078 -43.328,7.496 -61.98,11.995c3.022,-3.793 5.985,-7.633 8.887,-11.519c-10.905,-2.693 -22.462,-5.782 -33.345,-8.2c-3.675,-4.098 -7.32,-8.219 -10.935,-12.363c-6.615,5.449 -14.25,12.028 -21.037,17.068l-125.348,17.451l2.633,-7.327c-4.515,2.798 -14.475,7.036 -16.058,8.205c-11.25,8.285 -22.815,17.964 -33.829,26.675l-13.324,-35.855c-3.66,0.874 -7.585,1.673 -11.056,3.076c-4.54,-3.075 -11.575,-6.161 -12.466,-10.342c-1.334,-0.297 -80.927,23.551 -89.562,25.941l5.906,-17.946c-7.891,2.173 -16.795,4.85 -24.668,6.739c8.566,17.799 17.066,39.321 24.722,57.642l-21.867,-12.549c-10.302,-6.42 -25.321,-15.588 -36.071,-20.835c-18.429,-8.997 -31.814,-18.573 -48.967,-30.028c-2.138,-1.565 -4.484,-4.048 -7.032,-3.116l-0.571,2.695l-2.367,12.911c-10.944,3.95 -70.858,27.066 -78.447,27.63c0.389,-1.654 0.882,-3.328 1.338,-4.968Zm813.216,-207.092c-6.615,-23.071 -16.507,-36.436 -26.842,-57.754c6.982,-4.776 13.92,-9.627 20.805,-14.553c3.255,-17.422 8.752,-38.752 11.265,-55.653l-30.75,-22.659c-31.463,2.781 -65.978,6.906 -97.118,8.845l15.24,-15.72l-51.12,10.056c-8.407,1.656 -20.197,4.277 -28.462,5.249c2.257,-3.135 4.792,-6.816 7.17,-9.786c-11.738,2.763 -22.823,7.035 -34.455,10.304c-7.793,2.191 -7.41,-0.188 -14.235,1.657l5.272,-8.8c-17.617,2.989 -35.647,6.29 -53.265,8.998c0.72,-2.92 1.448,-6.136 2.243,-9.007c-17.843,2.681 -35.903,2.983 -53.783,5.863c-6.255,1.008 -13.072,1.64 -19.402,2.377c-8.52,-10.133 -21.458,-21.382 -31.448,-30l-92.355,3.117l20.67,31.107l-7.177,32.097l-53.648,1.817c3,-14.985 8.136,-38.33 9.884,-52.93l-83.559,12.882c1.893,-2.984 4.005,-6.504 6.07,-9.316c-13.176,3.812 -25.173,3.152 -38.296,4.166c-9.476,0.732 -20.351,2.194 -29.864,3.251l-0.833,-0.5l0.49,-2.427c-2.039,-1.298 -17.606,5.921 -20.449,7.031c-6.965,-8.172 -25.638,-24.311 -34.295,-32.162c-5.922,-0.858 -11.852,-1.44 -17.826,-1.758c-31.646,-1.684 -63.348,-4.031 -95,-5.518c7.307,8.828 14.959,18.784 22.366,27.274c2.481,2.844 7.883,5.685 13.091,11.286l-9.688,-1.965c5.227,7.267 10.195,15.027 15.126,22.527l-37.413,158.395c5.14,-2.565 30.655,-17.796 33.262,-18.151l1.274,1.284c3.26,2.954 7.172,6.693 10.519,9.425c-1.725,7.402 -4.176,19.611 -6.336,26.622c-2.448,15.418 -9.738,41.982 -13.57,58.327l-9.11,39.1c-1.538,6.719 -3.163,15.36 -5.022,21.738c-1.122,7.056 -3.915,19.877 -5.714,27.02c6.781,-2.322 20.084,-7.446 26.382,-9.049c10.413,-4.709 27.426,-10.277 38.579,-14.312c1.15,-6.759 2.502,-13.482 4.056,-20.159l0.566,-1.159c2.28,0.486 9.293,5.367 11.806,6.963c12.3,8.148 24.591,16.301 36.759,24.642c0.562,0.385 2.319,0.267 2.994,0.209c9.695,5.341 31.339,17.296 39.879,23.334c4.419,2.411 9.534,5.63 13.932,8.236c-4.085,-10.182 -8.937,-19.983 -12.756,-30.435c-2.762,-5.622 -5.565,-12.48 -8.115,-18.28c6.474,-1.633 13.894,-3.69 20.394,-4.814c4.312,-1.659 17.007,-4.821 21.951,-6.181c-2.058,5.83 -4.025,11.692 -5.897,17.586c10.209,-2.622 79.601,-24.388 83.905,-24.007c0.839,6.308 6.511,11.153 12.917,10.187c3.47,-0.875 6.944,-1.732 10.422,-2.571l3.585,9.238c3.086,7.484 6.065,15.863 8.939,23.489c9.668,-7.296 18.825,-15.362 28.515,-22.667c5.25,-3.955 7.298,-2.668 12.938,-5.332c2.565,-1.855 7.492,-5.031 9.495,-7.311c1.387,-1.583 3.045,-7.835 4.867,-8.888c2.085,1.076 1.928,0.607 2.97,2.387c-0.015,2.836 -1.537,5.906 -2.625,8.592l-3.097,8.201c38.212,-4.851 76.312,-10.944 114.487,-15.74c7.89,-6.475 15.81,-12.905 23.768,-19.291c4.327,4.303 9.577,10.629 13.702,15.317c7.755,1.294 14.348,3.144 21.93,5.102c3.75,0.969 6.555,0.957 10.523,2.238c5.325,-2.353 7.807,-3.477 13.44,-5.135c-3.405,4.346 -6.758,8.732 -10.058,13.158c23.625,-3.928 47.055,-9.098 70.755,-12.725c0.833,-0.286 14.378,-1.916 15.038,-1.655l-0.533,2.121c2.475,0.537 11.82,-4.803 14.67,-6.267c-4.177,4.227 -20.64,17.849 -21.615,21.365l2.565,-0.206c0,0.99 -14.017,23.139 -15.855,26.171c21.203,-11.794 43.193,-22.759 64.613,-34.218c17.925,-9.587 42.082,-19.307 58.44,-31.069l-0.045,-0.824c-1.86,-0.494 -3.705,-0.82 -5.19,-2.034c-0.135,-4.043 2.902,-8.228 5.175,-11.36l-10.5,-3.962c5.167,-11.635 10.762,-24.98 17.002,-35.883c10.545,-19.843 21.45,-39.492 32.715,-58.937l3.915,4.186c1.148,1.056 3.068,2.924 4.23,3.775l2.843,2.282c4.027,1.59 26.737,16.572 31.372,19.552c-4.605,-15.625 -9.72,-31.374 -14.46,-47.016Zm-278.76,-8.776l0.848,0.186c-1.343,2.138 -15.45,5.613 -18.555,5.979l-1.065,-0.152c1.14,-1.321 15.885,-5.188 18.772,-6.013Zm11.94,1.082c8.438,0.718 15.105,1.237 23.55,1.528l-5.37,5.712l-22.627,-0.046l4.447,-7.194Zm-259.308,4.919c-5.843,0.587 -15.901,2.027 -21.27,1.635c-2.271,-1.398 0.247,-0.771 -0.561,-4.005c-9.708,-0.772 -20.995,1.929 -33.237,0.851c-1.881,-1.596 0.322,-2.011 -1.194,-4.586c-3.45,0.17 -8.915,1.56 -12.362,2.525c-9.102,2.547 -22.422,4.713 -31.87,2.749l1.026,-0.504c13.354,-3.939 35.923,-10.348 49.293,-12.731l-0.298,6.648c25.15,-0.244 27.284,0.059 50.473,7.418Zm-0,0c-0.458,-1.686 -2.099,-7.666 -2.127,-9.115c-0.231,-12.143 4.292,-26.636 6.516,-38.704c17.028,-0.419 34.247,-0.42 51.189,-0.938c-1.477,7.219 -3.39,18.142 -5.385,24.873c-1.875,6.354 -4.492,8.241 -6.337,16.63c-0.743,2.697 -0.27,2.694 -2.07,4.132c-1.793,0.231 -3.833,0.745 -5.378,0.07c0.765,-7.669 5.663,-15.663 8.19,-22.741c1.635,-4.588 2.805,-11.94 3.645,-16.755c-13.042,0.023 -26.088,0.238 -39.128,0.643l-6.407,33.467c0.856,2.15 1.909,4.504 2.264,6.763c-1.127,1.962 -2.775,1.607 -4.972,1.675Zm386.471,-0.791c-36.068,1.552 -69.135,2.204 -105.053,2.931c27.795,-7.583 38.175,-7.671 66.083,-5.869c11.617,0.728 23.25,1.27 34.89,1.625c5.19,0.026 8.407,0.203 13.56,0.792c-2.903,0.213 -6.638,0.597 -9.48,0.521Z" style="fill:#fefefe;"/><g id="Bottle"><path d="M252.912,170.286c3.24,1.116 31.348,10.224 32.107,10.119c-0.945,0.473 -1.768,0.732 -2.38,1.52l0.02,0.363c-0.397,0.844 10.807,50.024 11.761,54.308c-24.166,-6.329 -49.85,-12.449 -73.751,-19.339c3.308,-5.023 31.696,-44.268 31.909,-45.981l0.334,-0.99Zm-70.119,75.788c1.937,2.701 7.51,9.723 8.744,11.957c0.95,0.85 4.667,6.463 5.816,8.068c4.072,5.589 8.104,11.207 12.094,16.854c2.521,3.556 5.443,7.934 8.078,11.293l0.052,97.676c-4.454,-8.206 -8.576,-16.574 -13.035,-24.777c-0.563,-1.035 -1.552,-2.54 -1.89,-3.595l-1.945,-4.073l0.375,-0.67c-1.789,-3.933 -3.53,-8.704 -5.126,-12.768l-8.972,-22.642c-2.584,-6.402 -5.611,-13.585 -8.104,-19.971c-0.476,-1.218 0.314,-12.455 0.407,-14.642l2.095,-43.002l0.437,-0.606l0.974,0.898Zm107.017,217.22c10.187,10.881 20.22,21.898 30.097,33.058c4.831,5.393 12.784,13.84 16.89,19.389c-15.033,1.763 -30.036,3.786 -45,6.059c-7.92,1.177 -15.875,2.146 -23.665,4.009c-13.917,3.323 -27.855,6.546 -41.733,10.025c-1.373,0.345 -2.939,0.766 -4.317,0.983c1.717,-2.207 9.296,-8.654 11.894,-11.013c12.803,-11.845 26.025,-23.232 39.643,-34.127l-0.158,-7.104c4.613,-6.088 11.539,-15.796 16.349,-21.279Zm-109.936,-112.109c0.093,2.038 14.132,28.773 16.156,32.108c-0.825,10.913 -1.256,22.594 -1.854,33.577c-0.638,11.721 -1.667,24.484 -1.91,36.124c-1.157,0.863 -9.436,7.297 -10.114,7.456c-1.899,0.357 -12.387,6.025 -14.744,7.254c0.108,-4.689 0.763,-10.831 1.135,-15.677l2.368,-29.742c2.063,-24.38 4.093,-49.784 6.628,-74.088c0.858,1.033 1.548,1.901 2.335,2.988Zm39.419,100.123c-0.167,20.891 0.929,42.733 0.541,63.478c-2.02,2.808 -3.798,5.554 -5.679,8.456c-5.258,-3.644 -6.184,-2.798 -12.743,-2.793c-2.762,3.36 -5.957,5.79 -5.967,9.855c-9.217,-7.412 -18.784,-15.816 -27.726,-23.558c10.936,-12.062 21.945,-24.059 33.026,-35.989c5.506,-5.847 13.583,-13.607 18.548,-19.449Zm53.479,-339.683c1.284,0.792 9.24,-0.527 11.481,-0.741c-0.013,19.762 -0.344,40.489 0.047,60.169l-2.121,1.713c-5.129,-1.768 -10.318,-3.142 -15.507,-4.654c-2.202,-0.642 -9.078,-2.222 -10.849,-3.241c-1.196,-3.574 0.362,-40.64 0.416,-47.346c5.193,-1.754 11.288,-4.697 16.533,-5.9Z" style="fill:#525151;"/><path d="M239.656,165.995l13.256,4.291l-0.334,0.99c-1.868,1.334 -9.756,9.883 -11.815,11.98c-9.992,10.177 -19.721,20.876 -29.759,30.999c-3.974,-0.872 -7.936,-1.799 -11.884,-2.782c-5.589,2.378 -10.66,4.616 -16.13,7.257c-1.29,0.622 -5.378,1.506 -7.665,2.421c4.57,6.353 9.263,12.617 14.075,18.789c1.12,1.244 3.032,3.993 4.188,5.487c3.509,4.551 7.043,9.084 10.6,13.597c-2.568,-1.605 -20.231,-12.881 -21.395,-12.95l-0.974,-0.898l-0.437,0.606l-2.095,43.002c-0.093,2.187 -0.883,13.424 -0.407,14.642c2.493,6.386 5.52,13.569 8.104,19.971l8.972,22.642c1.596,4.064 3.337,8.835 5.126,12.768l-0.375,0.67c-7.371,-15.779 -14.953,-31.458 -22.744,-47.033c-1.935,-3.96 -7.383,-14.532 -8.741,-18.192c-0.552,-1.487 -0.268,-17.708 -0.254,-19.987l0.446,-53.457c9.626,-6.689 19.189,-14.391 28.362,-21.669c13.896,-11.129 27.856,-22.177 41.88,-33.144Zm-67.866,159.681c1.472,1.985 3.895,6.243 5.234,8.496l9.044,15.298l28.454,48.202c-4.347,-4.529 -10.161,-13.969 -13.88,-19.353c-6.566,-9.508 -13.569,-18.116 -20.768,-27.134c-0.787,-1.087 -1.477,-1.955 -2.335,-2.988c-2.535,24.304 -4.565,49.708 -6.628,74.088l-2.368,29.742c-0.372,4.846 -1.027,10.988 -1.135,15.677c2.357,-1.229 12.845,-6.897 14.744,-7.254l-26.351,19.77c0.794,-6.116 1.277,-12.37 2.007,-18.515c5.381,-45.258 9.149,-90.722 13.982,-136.029Zm-19.089,177.653c21.434,-18.113 43.468,-35.502 66.064,-52.143l0.528,0.122c-4.965,5.842 -13.042,13.602 -18.548,19.449c-11.081,11.93 -22.09,23.927 -33.026,35.989c8.942,7.742 18.509,16.146 27.726,23.558c3.189,7.751 6.357,9.325 10.044,16.108c1.821,2.765 4.705,7.043 6.265,9.865l-0.512,1.252c-8.753,-7.477 -17.149,-15.702 -25.501,-23.647c-6.427,-6.116 -13.645,-12.271 -19.79,-18.595c-2.976,-2.113 -10.449,-9.236 -13.25,-11.958Zm130.255,-486.229c7.032,2.534 14.321,5.415 21.313,8.11c7.084,2.73 16.821,6.461 23.478,10.043c-1.698,-0.013 -4.806,-0.816 -6.719,-1.147c-3.509,-0.598 -7.03,-1.131 -10.559,-1.6c1.739,1.052 7.214,4.194 8.347,5.285c-10.889,-4.092 -23.271,-8.05 -34.423,-11.444l-0.099,38.224c-0.007,1.81 0.214,12.44 -0.384,13.329c-0.303,0.135 -0.797,0.392 -1.092,0.441c-10.699,4.019 -24.905,10.711 -34.584,16.634c0.734,2.639 2.253,6.36 3.242,9.004c-4.252,-2.136 -8.443,-4.391 -12.569,-6.761c-0.056,-5.533 -0.536,-12.216 -0.789,-17.808c-0.53,-11.171 -0.982,-22.347 -1.357,-33.524c15.171,-9.955 30.574,-19.553 46.195,-28.786Zm-41.731,98.943c3.133,-1.909 13.042,-7.385 15.672,-8.85c2.908,-1.62 26.353,-8.262 28.188,-8.013c7.107,0.967 25.566,5.128 32.4,7.42c-8.988,-0.091 -18.082,0.6 -27.059,0.816c-7.035,0.169 -11.086,2.302 -17.654,4.209c-5.245,1.203 -11.34,4.146 -16.533,5.9c-0.054,6.706 -1.612,43.772 -0.416,47.346l-14.586,-4.623l-0.012,-44.205Zm41.434,66.245l-0.02,-0.363c0.612,-0.788 1.435,-1.047 2.38,-1.52c6.584,7.186 14.764,14.889 21.727,21.899c8.555,8.626 16.806,17.548 24.738,26.75c2.348,2.724 7.258,8.082 9.146,10.678c-2.793,-2.327 -7.73,-7.325 -10.438,-9.034c-7.968,-5.031 -12.262,-10.912 -18.72,-17.674c-9.658,-10.114 -19.021,-20.724 -28.813,-30.736Zm97.281,193.646c1.781,6.416 2.375,16.062 3.071,23.02c1.245,12.527 2.414,25.061 3.507,37.601c-0.593,-0.49 -1.745,-1.924 -2.301,-2.575l-3.301,-36.578c-0.482,-5.766 -1.469,-15.959 -0.976,-21.468Zm9.299,-17.791c-0.682,1.833 -8.679,12.891 -10.165,14.661c-3.769,3.446 -13.64,11.041 -17.88,14.072c2.883,-3.337 7.08,-7.363 10.247,-10.565c5.981,-6.008 11.915,-12.065 17.798,-18.168Z" style="fill:#fefefe;"/><path d="M165.951,515.287c4.253,2.482 9.495,7.066 13.642,10.016c6.561,4.67 13.058,9.713 19.747,14.213c2.592,1.744 4.694,6.258 6.149,6.896c1.821,2.765 4.705,7.043 6.265,9.865l-0.512,1.252c-8.753,-7.477 -17.149,-15.702 -25.501,-23.647c-6.427,-6.116 -13.645,-12.271 -19.79,-18.595Zm151.746,-408.522c5.564,0.779 16.34,5.803 21.392,8.186c-0.118,15.206 -0.742,30.451 -0.96,45.672l-2.161,1.455c8.04,5.26 19.089,14.205 26.916,20.108c16.267,12.35 32.727,24.442 49.377,36.27c-0.276,21.144 -0.262,44.326 -1.148,65.304c0.038,0.859 0.097,0.852 -0.236,1.625c-1.154,-0.986 -7.425,-8.462 -8.996,-10.231c-0.064,-17.166 0.492,-35.513 0.76,-52.766c-24.982,-20.181 -48.89,-39.623 -74.459,-59.027c-0.08,-5.452 0.204,-11.258 0.327,-16.738l0.623,-28.819l-11.435,-11.039Zm71.542,251.378c6.47,-7.214 13.219,-14.173 20.231,-20.862c2.49,27.699 6.102,56.703 9.118,84.429l2.868,26.807c0.672,6.342 1.269,12.943 2.171,19.253c0.155,1.082 0.873,2.637 1.162,3.781c-2.903,-1.957 -10.414,-13.42 -13.062,-16.905c-0.991,-17.903 -2.086,-35.8 -3.285,-53.689l-2.277,-34.539c-0.355,-5.22 -0.596,-11.141 -1.065,-16.271c-6.438,5.555 -12.614,11.474 -19.119,16.949c-1.489,1.253 -5.442,4.825 -6.907,5.708c1.486,-1.77 9.483,-12.828 10.165,-14.661Zm-68.997,111.579c6.631,8.229 13.522,16.241 20.151,24.489c7.572,9.586 14.945,19.323 22.116,29.206l-17.431,27.273l16.026,-10.796c2.441,-1.668 5.931,-4.292 8.386,-5.714c3.545,-2.057 7.926,-4.136 11.642,-6.013c5.805,-3.001 11.636,-5.955 17.494,-8.853c11.433,-5.615 9.542,-6.357 22.489,-6.532c-29.662,20.027 -60.604,38.087 -92.629,54.068c9.129,-14.908 18.711,-28.738 27.751,-43.353c-6.87,-10.658 -13.932,-21.185 -21.182,-31.588c-5.168,-7.52 -9.716,-14.298 -15.216,-21.7l0.403,-0.487Zm-9.773,-437.216c3.529,0.469 7.05,1.002 10.559,1.6c1.913,0.331 5.021,1.134 6.719,1.147c3.778,1.805 13.117,7.213 16.827,9.628c-0.633,11.643 -1.361,23.28 -2.187,34.911c-0.366,5.474 -0.947,11.855 -1.096,17.278c-3.049,1.659 -6.226,3.336 -9.233,5.047c0.726,-2.083 1.466,-4.16 2.218,-6.234c-12.836,-7.03 -23.142,-10.131 -35.627,-15.749c11.203,1.873 23.491,4.385 34.521,6.079c1.367,-11.828 3.021,-24.883 3.904,-36.73c-3.702,-2.776 -14.033,-9.896 -18.258,-11.692c-1.133,-1.091 -6.608,-4.233 -8.347,-5.285Zm78.065,240.327c2.39,1.23 19.416,18.377 22.617,21.478c-8.456,14.17 -14.536,25.91 -22.115,40.483c-1.263,2.517 -2.556,5.02 -3.878,7.506c0.881,-3.588 3.508,-11.016 4.727,-14.905c3.414,-11.078 6.95,-22.118 10.607,-33.118c-2.757,-5.978 -8.604,-15.618 -11.958,-21.444Zm-48.976,-56.606c1.304,0.353 11.842,6.602 13.918,7.767l-1.487,-4.329c4.348,5.266 7.365,10.031 11.144,15.712l12.859,19.411c0.629,0.848 1.35,1.69 1.697,2.671c-0.643,-0.355 -4.852,-5.413 -5.573,-6.241c-10.551,-11.941 -21.408,-23.608 -32.558,-34.991Zm-27.168,320.491l0.409,0.576c-12.249,5.261 -26.36,12.588 -38.361,18.586c-2.88,-1.929 -13.104,-8.489 -15.253,-10.408l-3.672,-2.472c5.338,2.197 11.457,4.944 16.7,7.425l2.107,0.927c11.16,-5.053 26.481,-10.366 38.07,-14.634Z" style="fill:#f9b71d;"/><path d="M194.763,225.867c3.48,1.13 30.217,8.973 31.576,8.374c-0.136,-0.938 -0.954,-1.757 -1.577,-2.536c7.579,5.092 7.939,4.285 16.278,7.246c-1.714,-0.079 -3.017,-0.083 -4.728,-0.037c0.953,0.463 3.11,1.231 3.651,1.568c8.346,2.399 15.782,4.058 23.979,6.28c-3.146,-1.922 -6.498,-3.665 -9.734,-5.435c-1.969,-1.076 -4.248,-2.01 -6.105,-3.23c23.062,6.947 46.033,14.196 68.906,21.742c5.484,1.801 10.642,3.604 16.33,4.696c0.522,0.101 1.332,0.704 1.698,1.095l-0.097,0.282l-0.489,0.015c-0.21,3.516 7.101,8.767 9.453,11.206c-0.694,-1.984 -1.371,-4.034 -2.232,-5.959c-0.386,-0.86 -1.909,-2.587 -1.879,-3.1c1.065,0.673 3.436,3.679 4.466,4.757c5.548,5.804 10.097,10.77 14.94,17.231c-1.596,-0.981 -3.183,-1.976 -4.761,-2.985c1.132,3.831 2.591,7.582 3.981,11.33c-0.596,0.906 -1.262,1.873 -1.825,2.79c0.836,0.687 2.494,2.181 3.407,2.525c0.083,-0.708 0.121,-1.105 0.286,-1.806c1.856,2.215 0.796,2.497 3.754,3.52c0.039,0.862 -2.273,4.91 -2.852,6.653c-1.073,3.22 -1.68,5.211 -2.416,8.57c-2.751,1.714 -5.882,3.592 -8.888,4.821l5.319,-0.437c-3.581,1.717 -11.757,6.484 -15.149,8.787c4.27,-1.546 12.969,-5.696 17.159,-7.838c-1.38,4.503 -2.825,9.373 -3.759,13.995c1.482,-0.951 3.987,-2.706 5.754,-2.659c-0.519,1.95 -23.406,17.365 -26.774,19.739c1.759,-2.116 3.346,-4.37 4.745,-6.739c-10.498,6.273 -20.037,12.86 -30.193,19.619c1.257,1.485 6.419,6.606 6.379,7.734l-0.933,1.22c0.273,1.417 9.034,8.985 10.727,10.559c-2.296,-4.04 -4.673,-8.034 -7.131,-11.978c10.906,10.445 21.548,22.273 31.612,33.589c7.587,8.529 16.418,17.82 23.683,26.494c-5.349,-3.764 -10.365,-7.586 -15.597,-11.496c5.483,7.213 11.567,14.19 18.115,20.455c6.963,6.663 13.382,13.89 20.193,20.674c-2.194,-4.268 -4.508,-8.475 -6.94,-12.612c7.449,7.554 14.71,15.297 21.779,23.209c-4.901,-3.654 -8.481,-6.513 -13.708,-9.822c3.3,4.15 7.024,7.799 10.652,11.618c1.171,1.234 6.523,6.211 7.006,7.175c-1.94,-1.153 -3.356,-2.604 -5.146,-3.909c3.937,5.871 8.893,11.448 13.318,16.974c3.564,4.452 6.511,7.577 9.013,12.8c-1.475,-0.676 -2.352,-1.305 -3.679,-2.217c-14.823,-10.162 -27.117,-24.825 -41.433,-35.526c3.067,6.088 6.845,12.308 10.181,18.311c-3.95,-3.379 -10.078,-8.12 -13.416,-11.802c-10.231,-11.287 -21.052,-21.463 -32.046,-31.974c-4.475,-4.277 -9.08,-8.033 -13.588,-12.286c2.979,4.559 10.24,14.678 13.561,18.845c-7.555,-5.64 -21.119,-19.747 -25.679,-27.414c1.744,1.156 4.226,2.893 6.042,3.836c-5.588,-9.455 -15.636,-21.667 -24.342,-28.559c3.185,3.969 7.255,9.47 10.563,13.114c-3.131,-2.366 -6.319,-4.654 -9.561,-6.865c2.095,3.054 5.315,7.328 7.095,10.364c-7.944,-6.599 -15.226,-14.424 -22.563,-21.713c-1.414,-1.404 -5.094,-7.393 -6.433,-7.694l-0.041,0.859c-2.474,-1.673 -11.831,-11.127 -14.502,-13.624c-0.033,5.571 -0.003,11.32 -0.095,16.907c-0.033,2.063 -1.059,4.223 -0.971,5.822c0.618,11.2 0.189,22.399 0.565,33.583c0.121,3.59 0.268,7.508 0.06,11.104c-1.63,1.738 -3.22,3.514 -4.768,5.326c-0.217,-5.184 -0.497,-10.366 -0.84,-15.543c-0.871,3.475 -3.609,5.236 -2.223,8.119c-0.778,1.457 -2.512,2.348 -2.586,2.548c-1.843,4.98 -3.577,11.311 -5.796,16.05c-1.002,-14.165 -2.485,-27.622 -2.768,-42.012l-0.545,-1.618c-0.092,13.045 -1.251,26.508 -1.727,39.556c-0.054,1.491 -5.041,14.109 -5.875,16.505c-0.557,-7.17 -1.181,-14.115 -1.559,-21.302c-1.537,9.528 -4.127,19.014 -5.938,28.501c-0.302,1.583 -0.631,3.275 -1.159,4.793l-0.081,-0.095l-0.137,-0.009c-0.036,-0.61 -0.051,-0.761 -0.015,-1.376c-0.075,-8.999 -0.576,-18.264 -0.692,-27.295c-0.038,-2.953 -0.818,-6.534 -0.816,-9.575c0.002,-2.533 0.562,-5.124 0.556,-7.59l-0.305,-99.883c-0.018,-4.535 -0.669,-38.54 -0.034,-40.175l0.424,-0.066l0.899,0.902c2.62,2.711 5.183,5.524 7.835,8.187c0.007,-1.145 -0.274,-2.335 0.296,-2.934l0.754,0.671c2.012,1.766 4.631,4.547 6.68,6.495c4.171,3.901 8.366,7.776 12.584,11.626c-5.89,-8.493 -11.984,-16.22 -18.248,-24.349l-20.693,-26.963c1.934,0.802 6.338,2.128 7.606,2.784c3.382,1.751 5.595,2.953 9.205,4.518c-1.903,-2.585 -10.116,-12.766 -12.489,-14.407c-1.946,-1.611 -5.106,-5.092 -6.989,-7.004c-3.364,-3.364 -6.76,-6.696 -10.189,-9.995c5.359,1.971 11.86,3.943 17.34,5.671c-2.349,-2.741 -5.024,-5.067 -7.29,-7.892c-1.057,-0.78 -1.571,-2.675 -3.604,-3.07c-2.122,-1.552 -5.506,-4.907 -7.665,-6.826c-4.655,-4.093 -9.359,-8.129 -14.112,-12.108Zm70.026,55.313c1.028,0.726 3.492,2.671 4.515,2.818c0.496,2.183 0.33,18.779 0.337,21.829l0.249,49.987c5.468,-3.587 11.221,-6.824 16.663,-10.468c0.976,-0.653 2.777,-1.976 3.784,-2.456c0.893,0.079 2.906,-0.682 3.61,-1.225c7.408,-5.711 15.657,-10.079 22.974,-15.881c2.629,-2.085 5.549,-4.212 8.277,-6.068c-0.121,-3.124 -0.309,-12.967 -1.315,-15.275c-1.168,-0.732 -2.956,-1.409 -4.263,-1.962l-3.605,-5.192l-25.123,-7.97c-5.056,-1.645 -11.285,-3.926 -16.354,-5.149c-2.035,-1.328 -7.186,-2.218 -9.749,-2.988Z" style="fill:#f9b71d;"/></g><g id="Waveform-Left" serif:id="Waveform Left"><path d="M98.97,389.416l0.228,0.09l-0.152,0.049l-0.076,-0.139Z" style="fill:#f9b71d;"/><path d="M98.932,389.344l0.038,0.072l-0.076,-0.03c0.012,-0.013 0.025,-0.027 0.038,-0.042Z" style="fill:#f9b71d;"/><path d="M98.932,389.344c-0.308,-0.586 -0.159,-0.449 -0.803,-0.904c-0.924,1.416 -1.805,2.219 -2.306,3.855c-0.374,1.565 -0.695,2.944 -1.195,4.482l-0.093,-0.616c-0.821,-5.484 -0.902,-10.217 -1.32,-15.649c-0.989,-12.823 -2.505,-24.955 -2.874,-37.862c-0.364,-12.686 -0.32,-24.838 1.449,-37.482c0.575,-4.11 -0.716,-10.503 0.932,-14.484c1.819,-3.492 0.409,-10.509 3.017,-12.717c1.564,0.772 1.915,8.767 3.155,10.813l0.588,-0.304c1.264,0.802 0.664,13.784 1.647,15.947l0.565,-0.499l0.291,0.054c0.37,2.08 0.738,19.165 0.768,21.409c0.095,7.097 -1.33,60.917 -3.821,63.957Z" style="fill:#f9b71d;"/><path d="M119.308,247.183c1.028,1.084 -0.305,5.166 0.711,6.826c0.828,1.353 1.306,2.024 1.386,3.61c0.219,4.289 -0.447,13.264 0.602,17.227l0.289,-0.064l0.803,-1.836l0.236,-0.011c0.666,9.281 0.066,18.593 1.053,27.799c0.831,8.54 0.567,17.878 0.152,26.477c-0.593,10.118 0.401,20.216 -0.425,30.351c-0.986,12.097 -0.518,24.469 -1.153,36.582c-0.523,9.995 -1.441,19.877 -1.643,29.91l-5.699,-0.02c0.121,-14.892 -1.338,-30.019 -1.502,-45.056c-0.017,-6.689 -0.137,-11.755 0.62,-18.456c0.546,2.285 0.857,5.486 1.16,7.879c0.563,-4.457 0.794,-9.368 1.127,-13.869c0.652,-8.798 1.294,-20.331 0.119,-29.115c-1.936,13.419 -2.045,30.508 -5.282,43.355c-0.677,-17.298 -2.336,-34.907 -1.057,-52.248c0.341,-1.911 1.248,-3.1 1.268,-5.103c0.198,-19.708 0.866,-39.525 2.275,-59.188c0.325,-4.537 1.983,-2.093 4.682,-4.806l0.278,-0.244Z" style="fill:#f9b71d;"/><path d="M140.654,274.093c0.782,1.009 1.009,13.298 1.63,15.352c0.464,1.538 1.323,3.904 1.354,5.508c0.141,7.08 0.067,14.165 0.266,21.245c0.052,1.745 -0.138,6.876 0.164,8.275l0.51,-0.114c0.361,0.435 0.318,1.421 0.32,2.091c0.011,3.895 0.106,7.954 -0.005,11.835c-0.064,2.259 -0.889,4.99 -1.032,7.449c-0.457,7.846 -0.39,15.838 -0.736,23.645c-0.514,6.797 -0.854,13.61 -1.489,20.399c-0.128,1.372 0.25,4.035 -0.557,4.907c-1.183,-0.641 -1.416,0.037 -2.205,-0.589c-0.263,-1.66 -0.337,-3.192 -0.447,-4.864c-0.997,-6.094 -1.51,-12.248 -2.474,-18.434c-0.311,1.812 -0.601,3.084 -1.06,4.861c-0.957,-8.718 -1.086,-18.327 -1.477,-27.131c-0.186,-4.181 -0.868,-8.204 -0.984,-12.134c-0.19,-6.428 0.35,-13.251 0.434,-19.72c0.035,-2.727 0.049,-9.023 0.806,-11.252l0.179,0.022l0.452,1.051l0.325,0.074c0.334,-3.051 0.715,-16.32 1.711,-18.091l0.597,-0.121c0.764,-0.729 3.247,-12.268 3.718,-14.264Z" style="fill:#f9b71d;"/><path d="M72.225,305.705c1.343,0.259 2.228,0.839 3.439,1.481l0.862,-0.273c2.311,0.835 0.601,6.193 3.864,6.247c1.684,4.611 1.429,44.165 -1.006,45.672l-0.777,-0.948l-0.335,0.074c-1.101,2.85 -0.818,5.836 -2.118,9.482l-0.698,3.436c-1.262,0.875 -2.073,1.618 -3.206,2.629c-0.17,-12.476 -2.645,-25.721 -2.621,-38.445c0.019,-10.114 2.259,-19.271 2.596,-29.355Z" style="fill:#f9b71d;"/><path d="M155.944,310.231c1.17,1.289 1.552,5.206 2.932,5.701c0.407,-0.488 0.626,-0.762 1.09,-1.192c1.181,1.995 0.819,9.929 0.869,12.332c0.172,8.368 0.287,16.748 -0.955,25.052c-0.381,2.546 -0.523,5.237 -1.326,7.692c-2.282,0.553 -0.794,-0.536 -2.929,1.524c-0.511,-2.13 -2.389,-12.949 -3.199,-13.761c-0.535,0.616 -0.332,0.491 -1,0.889c-1.478,-1.998 -1.749,-24.263 -0.29,-26.165l0.614,0.416c0.784,-0.649 1.852,-8.1 2.978,-9.499c0.329,-0.408 1.012,-2.398 1.216,-2.989Z" style="fill:#f9b71d;"/><path d="M56.907,322.061c0.883,0.414 1.609,1.41 2.278,2.179c0.564,0.169 0.758,0.232 1.291,0.479c0.398,2.088 0.098,5.11 0.194,7.354c0.278,6.509 0.452,12.129 -0.092,18.602c-0.898,0.856 -3.07,3.173 -3.971,3.465l-0.514,-0.507c-0.965,-2.885 -1.517,-2.688 -4.27,-3.541c-0.861,-3.414 -1.542,-22.93 -0.008,-25.019c3.006,0.368 3.518,-0.807 5.092,-3.012Z" style="fill:#f9b71d;"/><path d="M34.082,330.216c2.754,0.025 5.509,0.006 8.262,-0.056c-0.006,2.334 0.219,13.864 -0.127,15.416l-0.524,0.232c-3.209,-0.686 -4.737,0.061 -7.694,1.271c-0.074,-5.542 0.045,-11.306 0.083,-16.863Z" style="fill:#f9b71d;"/><path d="M17.197,332.439l7.851,0.015c-0.043,3.534 0.658,8.851 -0.866,11.844c-0.097,-0.038 -0.592,-0.372 -0.654,-0.433c-0.984,-0.955 -5.034,-0.584 -6.558,-0.546c-0.032,-1.874 -0.286,-9.62 0.227,-10.88Z" style="fill:#f9b71d;"/></g></g></g></svg>