<?xml version="1.0" encoding="UTF-8" standalone="no"?><!DOCTYPE svg PUBLIC "-//W3C//DTD SVG 1.1//EN" "http://www.w3.org/Graphics/SVG/1.1/DTD/svg11.dtd"><svg width="100%" height="100%" viewBox="0 0 909 926" version="1.1" xmlns="http://www.w3.org/2000/svg" xmlns:xlink="http://www.w3.org/1999/xlink" xml:space="preserve" xmlns:serif="http://www.serif.com/" style="fill-rule:evenodd;clip-rule:evenodd;stroke-linejoin:round;stroke-miterlimit:2;"><g id="Full-w-BG" serif:id="Full w BG"><path d="M354,248.25l2.25,-67.5l2.25,-10.5l-6,-14.25l-2.25,-99l92.25,-57l121.5,49.54l-2.25,103.46l-6.75,15l0.75,76.5l113.465,87l0,87.75l26.785,-6l19.5,-44.25l27.75,3.75l9.75,39l22.5,3l10.5,46.5l12.75,0l22.5,23.25l26.25,12.75l24,5.25l25.5,3.75l11.25,28.5l-8.25,25.5l-31.5,9l-25.5,1.5l-21.75,9.75l-3,20.25l-32.25,9.75l-3,23.25l-30,14.25l-19.5,47.25l-12.75,2.25l-27,-51l-12,-1.5l-1.273,1.309l11.023,90.941l-16.5,35.25c13.266,24.77 27.851,51.189 24.75,55.5l-28.285,-0.75l-169.56,97.951l-9.155,-3.451l14.25,-54l-73.5,39l-53.25,-42l-27.75,8.25l1.5,41.25l-28.148,-4.095l-118.102,-111.405l18.75,-22.5l-8.25,-17.25l12.75,-114.75l-17.25,5.25l-12,39.75l-21,4.5l-22.5,-13.5l-3,-30.75l-30.75,-12.75l-6,-25.5l-24.75,-6.75l-6,-21l-28.5,-14.25l-10.5,3.75l-12.75,-5.25l-26.25,-4.5l-9,-18.75l-0.75,-29.25l15.75,-12.75l22.5,-0.75l21.75,-3.75l25.5,-12l9,-24.75l24,0l9.75,-36l24,-9l3,-30.75l19.5,-18l23.25,3l11.25,42.75l13.5,-3.75l14.733,15.75l-0,-87.75l116.517,-89.25Z"/><path d="M396.491,268.161c5.142,1.77 49.741,16.222 50.946,16.056c-1.499,0.75 -2.805,1.161 -3.777,2.412l0.032,0.575c-0.63,1.34 17.148,79.375 18.662,86.173c-38.345,-10.042 -79.099,-19.752 -117.024,-30.685c5.249,-7.971 50.294,-70.243 50.632,-72.961l0.529,-1.57Zm-111.261,120.256c3.074,4.285 11.918,15.428 13.876,18.972c1.506,1.349 7.404,10.256 9.228,12.802c6.461,8.868 12.858,17.782 19.189,26.743c4,5.642 8.637,12.588 12.819,17.919l0.082,154.987c-7.067,-13.022 -13.608,-26.299 -20.683,-39.316c-0.893,-1.641 -2.463,-4.029 -2.999,-5.703l-3.086,-6.464l0.595,-1.062c-2.838,-6.241 -5.601,-13.811 -8.134,-20.26l-14.237,-35.927c-4.099,-10.159 -8.902,-21.556 -12.858,-31.688c-0.755,-1.933 0.498,-19.764 0.646,-23.234l3.323,-68.233l0.695,-0.962l1.544,1.426Zm169.808,344.671c16.164,17.265 32.085,34.747 47.757,52.455c7.665,8.557 20.286,21.96 26.8,30.765c-23.854,2.797 -47.659,6.007 -71.404,9.615c-12.567,1.867 -25.189,3.405 -37.55,6.36c-22.082,5.272 -44.197,10.387 -66.218,15.907c-2.179,0.548 -4.664,1.215 -6.851,1.56c2.725,-3.502 14.75,-13.732 18.873,-17.475c20.314,-18.795 41.295,-36.862 62.904,-54.15l-0.252,-11.272c7.32,-9.66 18.309,-25.065 25.941,-33.765Zm-174.438,-177.888c0.146,3.235 22.422,45.656 25.634,50.947c-1.308,17.316 -1.993,35.851 -2.941,53.278c-1.012,18.598 -2.646,38.851 -3.031,57.32c-1.836,1.369 -14.973,11.578 -16.048,11.83c-3.014,0.568 -19.656,9.56 -23.396,11.51c0.172,-7.44 1.211,-17.185 1.802,-24.874l3.757,-47.193c3.274,-38.686 6.494,-78.995 10.517,-117.559c1.361,1.639 2.457,3.017 3.706,4.741Zm62.547,158.869c-0.265,33.149 1.474,67.806 0.858,100.724c-3.205,4.455 -6.026,8.812 -9.012,13.417c-8.343,-5.782 -9.812,-4.44 -20.219,-4.432c-4.383,5.332 -9.452,9.187 -9.467,15.637c-14.627,-11.76 -29.806,-25.095 -43.994,-37.38c17.352,-19.14 34.821,-38.175 52.404,-57.105c8.735,-9.277 21.552,-21.591 29.43,-30.861Zm84.858,-538.989c2.037,1.258 14.661,-0.836 18.217,-1.175c-0.021,31.358 -0.546,64.245 0.074,95.473l-3.365,2.718c-8.14,-2.805 -16.373,-4.986 -24.606,-7.385c-3.493,-1.019 -14.405,-3.525 -17.214,-5.142c-1.899,-5.672 0.574,-64.485 0.659,-75.127c8.241,-2.783 17.911,-7.453 26.235,-9.362Z" style="fill:#525151;"/><path d="M375.458,261.352l21.033,6.809l-0.529,1.57c-2.964,2.117 -15.48,15.682 -18.747,19.01c-15.855,16.147 -31.293,33.124 -47.221,49.188c-6.306,-1.384 -12.592,-2.856 -18.856,-4.415c-8.869,3.773 -16.915,7.325 -25.594,11.514c-2.048,0.988 -8.534,2.39 -12.164,3.842c7.253,10.08 14.699,20.02 22.334,29.814c1.777,1.973 4.812,6.336 6.646,8.706c5.567,7.221 11.174,14.413 16.82,21.574c-4.075,-2.545 -32.103,-20.438 -33.95,-20.547l-1.544,-1.426l-0.695,0.962l-3.323,68.233c-0.148,3.47 -1.401,21.301 -0.646,23.234c3.956,10.132 8.759,21.529 12.858,31.688l14.237,35.927c2.533,6.449 5.296,14.019 8.134,20.26l-0.595,1.062c-11.696,-25.036 -23.727,-49.915 -36.089,-74.629c-3.07,-6.282 -11.715,-23.058 -13.87,-28.866c-0.875,-2.359 -0.425,-28.097 -0.404,-31.714l0.709,-84.822c15.274,-10.613 30.447,-22.835 45.003,-34.384c22.049,-17.658 44.201,-35.188 66.453,-52.59Zm-107.686,253.373c2.335,3.149 6.18,9.905 8.304,13.481l14.352,24.273l45.148,76.485c-6.898,-7.187 -16.123,-22.166 -22.024,-30.71c-10.419,-15.085 -21.53,-28.745 -32.952,-43.054c-1.249,-1.724 -2.345,-3.102 -3.706,-4.741c-4.023,38.564 -7.243,78.873 -10.517,117.559l-3.757,47.193c-0.591,7.689 -1.63,17.434 -1.802,24.874c3.74,-1.95 20.382,-10.942 23.396,-11.51l-41.813,31.37c1.26,-9.705 2.026,-19.627 3.186,-29.379c8.538,-71.812 14.516,-143.952 22.185,-215.841Zm-30.289,281.888c34.01,-28.74 68.971,-56.333 104.827,-82.736l0.837,0.192c-7.878,9.27 -20.695,21.584 -29.43,30.861c-17.583,18.93 -35.052,37.965 -52.404,57.105c14.188,12.285 29.367,25.62 43.994,37.38c5.059,12.3 10.086,14.798 15.936,25.56c2.89,4.388 7.465,11.175 9.941,15.653l-0.813,1.987c-13.888,-11.865 -27.211,-24.915 -40.462,-37.522c-10.198,-9.705 -21.652,-19.47 -31.402,-29.505c-4.722,-3.353 -16.58,-14.655 -21.024,-18.975Zm206.68,-771.518c11.158,4.02 22.725,8.591 33.819,12.868c11.241,4.332 26.69,10.251 37.254,15.935c-2.696,-0.02 -7.627,-1.294 -10.662,-1.82c-5.568,-0.949 -11.154,-1.795 -16.754,-2.538c2.759,1.669 11.446,6.654 13.244,8.386c-17.278,-6.493 -36.925,-12.774 -54.621,-18.159l-0.157,60.651c-0.011,2.872 0.34,19.739 -0.609,21.15c-0.481,0.214 -1.264,0.622 -1.733,0.7c-16.977,6.376 -39.518,16.995 -54.875,26.394c1.165,4.187 3.575,10.091 5.144,14.287c-6.747,-3.39 -13.397,-6.967 -19.944,-10.728c-0.088,-8.779 -0.85,-19.384 -1.251,-28.257c-0.842,-17.726 -1.56,-35.458 -2.154,-53.194c24.073,-15.796 48.513,-31.025 73.299,-45.675Zm-66.216,156.996c4.971,-3.029 20.694,-11.718 24.867,-14.043c4.614,-2.571 41.816,-13.11 44.727,-12.714c11.278,1.534 40.567,8.136 51.411,11.773c-14.262,-0.144 -28.691,0.952 -42.936,1.295c-11.162,0.269 -17.59,3.652 -28.011,6.678c-8.324,1.909 -17.994,6.579 -26.235,9.362c-0.085,10.642 -2.558,69.455 -0.659,75.127l-23.145,-7.335l-0.019,-70.143Zm65.745,105.113l-0.032,-0.575c0.972,-1.251 2.278,-1.662 3.777,-2.412c10.448,11.403 23.426,23.625 34.475,34.748c13.575,13.687 26.667,27.844 39.252,42.445c3.726,4.323 11.517,12.824 14.513,16.943c-4.432,-3.692 -12.265,-11.622 -16.562,-14.335c-12.644,-7.983 -19.458,-17.314 -29.704,-28.044c-15.325,-16.048 -30.181,-32.883 -45.719,-48.77Zm154.359,307.266c2.826,10.18 3.77,25.486 4.874,36.528c1.975,19.876 3.829,39.764 5.565,59.663c-0.941,-0.778 -2.769,-3.054 -3.651,-4.086l-5.238,-58.04c-0.766,-9.149 -2.332,-25.323 -1.55,-34.065Zm14.757,-28.229c-1.083,2.909 -13.772,20.454 -16.13,23.264c-5.98,5.467 -21.643,17.518 -28.372,22.327c4.576,-5.294 11.235,-11.682 16.26,-16.764c9.491,-9.533 18.906,-19.143 28.242,-28.827Z" style="fill:#fefefe;"/><path d="M258.507,815.588c6.748,3.937 15.065,11.212 21.646,15.892c10.41,7.41 20.719,15.413 31.334,22.553c4.112,2.767 7.447,9.93 9.756,10.942c2.89,4.388 7.465,11.175 9.941,15.653l-0.813,1.987c-13.888,-11.865 -27.211,-24.915 -40.462,-37.522c-10.198,-9.705 -21.652,-19.47 -31.402,-29.505Zm240.781,-648.219c8.829,1.237 25.928,9.208 33.945,12.989c-0.188,24.128 -1.178,48.317 -1.524,72.47l-3.429,2.308c12.758,8.346 30.288,22.541 42.709,31.907c25.811,19.596 51.929,38.782 78.347,57.551c-0.438,33.55 -0.414,70.334 -1.82,103.62c0.059,1.363 0.153,1.353 -0.375,2.579c-1.831,-1.564 -11.782,-13.426 -14.275,-16.234c-0.101,-27.238 0.781,-56.349 1.207,-83.727c-39.641,-32.021 -77.576,-62.87 -118.147,-93.66c-0.128,-8.65 0.323,-17.862 0.518,-26.558l0.988,-45.729l-18.144,-17.516Zm113.52,398.872c10.266,-11.447 20.974,-22.489 32.1,-33.102c3.951,43.95 9.682,89.972 14.469,133.966l4.551,42.536c1.065,10.064 2.013,20.538 3.444,30.549c0.246,1.718 1.386,4.185 1.843,6c-4.606,-3.105 -16.524,-21.294 -20.726,-26.824c-1.572,-28.407 -3.309,-56.804 -5.212,-85.191l-3.613,-54.803c-0.564,-8.284 -0.945,-17.679 -1.69,-25.818c-10.216,8.814 -20.015,18.205 -30.337,26.893c-2.362,1.988 -8.634,7.655 -10.959,9.058c2.358,-2.81 15.047,-20.355 16.13,-23.264Zm-109.482,177.047c10.523,13.057 21.457,25.77 31.975,38.857c12.014,15.21 23.714,30.66 35.093,46.343l-27.659,43.275l25.43,-17.13c3.873,-2.648 9.41,-6.81 13.306,-9.068c5.625,-3.262 12.575,-6.562 18.472,-9.54c9.211,-4.762 18.464,-9.45 27.758,-14.047c18.142,-8.91 15.142,-10.088 35.684,-10.365c-47.064,31.777 -96.162,60.435 -146.978,85.792c14.486,-23.655 29.69,-45.6 44.035,-68.79c-10.901,-16.912 -22.106,-33.615 -33.611,-50.122c-8.2,-11.933 -15.417,-22.688 -24.144,-34.433l0.639,-0.772Zm-15.506,-693.748c5.6,0.743 11.186,1.589 16.754,2.538c3.035,0.526 7.966,1.8 10.662,1.82c5.994,2.864 20.812,11.446 26.7,15.277c-1.005,18.474 -2.161,36.94 -3.471,55.394c-0.581,8.688 -1.503,18.812 -1.74,27.417c-4.837,2.632 -9.878,5.293 -14.649,8.008c1.152,-3.304 2.325,-6.601 3.519,-9.892c-20.368,-11.155 -36.721,-16.075 -56.532,-24.989c17.778,2.972 37.275,6.957 54.777,9.646c2.169,-18.768 4.794,-39.483 6.195,-58.281c-5.874,-4.406 -22.266,-15.704 -28.971,-18.552c-1.798,-1.732 -10.485,-6.717 -13.244,-8.386Zm123.869,381.335c3.791,1.953 30.808,29.161 35.887,34.082c-13.417,22.483 -23.065,41.111 -35.091,64.236c-2.004,3.994 -4.055,7.964 -6.153,11.909c1.397,-5.692 5.565,-17.479 7.5,-23.65c5.417,-17.578 11.027,-35.096 16.831,-52.55c-4.375,-9.485 -13.652,-24.782 -18.974,-34.027Zm-77.713,-89.818c2.07,0.56 18.79,10.476 22.084,12.325l-2.36,-6.87c6.9,8.356 11.687,15.917 17.684,24.932l20.403,30.799c0.999,1.345 2.142,2.682 2.694,4.238c-1.022,-0.563 -7.7,-8.588 -8.844,-9.903c-16.742,-18.946 -33.969,-37.46 -51.661,-55.521Zm-43.108,508.536l0.648,0.915c-19.435,8.347 -41.827,19.972 -60.868,29.49c-4.57,-3.06 -20.793,-13.47 -24.203,-16.515l-5.826,-3.923c8.469,3.488 18.179,7.845 26.498,11.783l3.343,1.47c17.709,-8.018 42.019,-16.448 60.408,-23.22Z" style="fill:#f9b71d;"/><path d="M152.226,615.864l0.361,0.142l-0.241,0.077l-0.12,-0.219Zm-0.061,-0.116c-0.488,-0.928 -0.252,-0.712 -1.274,-1.433c-1.466,2.246 -2.864,3.52 -3.659,6.117c-0.594,2.482 -1.103,4.671 -1.896,7.111l-0.148,-0.978c-1.302,-8.7 -1.43,-16.212 -2.095,-24.83c-1.569,-20.347 -3.973,-39.598 -4.56,-60.078c-0.577,-20.128 -0.508,-39.411 2.299,-59.473c0.913,-6.522 -1.135,-16.666 1.479,-22.983c2.886,-5.541 0.649,-16.674 4.787,-20.178c2.483,1.224 3.04,13.91 5.006,17.157l0.934,-0.482c2.005,1.271 1.053,21.872 2.614,25.303l0.896,-0.792l0.461,0.087c0.588,3.299 1.171,30.409 1.219,33.97c0.15,11.261 -2.111,96.659 -6.063,101.482Zm-0,0l0.061,0.116l-0.122,-0.048c0.021,-0.021 0.041,-0.043 0.061,-0.068Zm32.332,-225.572c1.63,1.72 -0.485,8.197 1.127,10.831c1.315,2.148 2.072,3.212 2.201,5.729c0.346,6.805 -0.711,21.046 0.954,27.334l0.458,-0.102l1.275,-2.913l0.375,-0.017c1.056,14.727 0.104,29.502 1.67,44.109c1.319,13.552 0.899,28.369 0.242,42.014c-0.942,16.053 0.636,32.076 -0.675,48.158c-1.564,19.195 -0.822,38.826 -1.829,58.046c-0.831,15.859 -2.287,31.539 -2.608,47.459l-9.042,-0.031c0.191,-23.63 -2.123,-47.632 -2.383,-71.492c-0.028,-10.614 -0.218,-18.653 0.982,-29.285c0.867,3.625 1.362,8.705 1.841,12.501c0.894,-7.072 1.26,-14.863 1.789,-22.006c1.034,-13.959 2.052,-32.26 0.189,-46.197c-3.072,21.291 -3.246,48.407 -8.381,68.792c-1.075,-27.447 -3.707,-55.388 -1.678,-82.904c0.542,-3.031 1.98,-4.918 2.012,-8.097c0.314,-31.271 1.375,-62.715 3.61,-93.915c0.516,-7.2 3.147,-3.322 7.429,-7.626l0.442,-0.388Zm541.735,2.479c1.113,0.396 2.052,0.741 3.197,1.069c3.607,30.968 3.525,65.522 4.237,96.878c0.143,6.268 2.273,13.42 2.475,21.875c0.525,21.761 -0.825,42.374 -1.83,64.066c-0.667,0.717 -0.48,0.744 -1.267,1.003c-3.413,-18.83 -3.863,-36.363 -6.661,-54.516l-1.221,0.376c-1.218,11.842 -0.173,22.655 0.533,34.499c0.458,8.228 0.798,16.461 1.022,24.698c0.892,-4.219 1.378,-8.508 2.309,-12.644c3.148,17.208 0.71,48.39 0.035,66.606c-0.417,11.326 -0.761,22.895 -1.082,34.25l-9.304,-0.003c0.054,-16.197 -1.818,-32.126 -2.361,-48.095l-1.179,-47.566c-0.198,-6.537 -0.827,-13.032 -1.062,-19.621c-0.445,-12.539 0.924,-24.983 0.026,-37.44c-0.86,-11.936 -0.41,-23.943 -0.464,-35.903c0,-4.167 0.776,-9.471 1.187,-13.768c1.076,-11.232 -0.755,-27.572 1.459,-38.262c0.904,0.855 1.026,1.778 1.494,3.064c1.752,-1.748 0.442,-13.238 1.317,-14.916c5.685,-10.909 -1.874,-15.051 7.14,-25.65Zm33.939,42.439c0.705,2.446 2.745,20.778 3.173,24.256c0.952,-0.061 0.555,-0.185 1.23,0.228c1.275,8.247 0.067,17.308 1.072,25.336c1.8,14.428 2.378,28.535 2.858,43.072c0.127,3.784 -0.743,8.135 -0.795,11.972c-0.233,17.388 -1.965,34.723 -3.983,51.978c-1.267,11.724 -0.495,22.863 -2.917,34.691c-1.013,-2.885 -1.455,-5.06 -2.108,-8.043c-0.412,-1.028 -1.567,-2.299 -2.505,-2.923l-1.665,0.446l-0.795,-0.568c-4.38,-8.86 -7.11,-123.199 -4.432,-135.868c0.397,0.478 0.682,0.839 1.05,1.347l0.315,0.441c0.765,-2.509 0.51,-4.535 0.757,-7.146c0.638,-6.894 0.488,-12.062 2.543,-18.687l0.157,0.235c1.755,-4.798 4.628,-18.004 6.045,-20.767Zm-541.804,-2.218c1.241,1.601 1.6,21.1 2.586,24.359c0.737,2.44 2.099,6.194 2.149,8.74c0.223,11.233 0.107,22.476 0.423,33.711c0.081,2.768 -0.219,10.91 0.258,13.129l0.81,-0.181c0.573,0.691 0.505,2.255 0.508,3.318c0.018,6.18 0.169,12.621 -0.007,18.78c-0.102,3.584 -1.411,7.917 -1.638,11.82c-0.726,12.448 -0.618,25.129 -1.167,37.518c-0.816,10.785 -1.356,21.594 -2.364,32.368c-0.204,2.177 0.396,6.402 -0.884,7.786c-1.877,-1.018 -2.246,0.058 -3.499,-0.935c-0.417,-2.634 -0.534,-5.064 -0.708,-7.717c-1.582,-9.671 -2.396,-19.436 -3.927,-29.252c-0.493,2.877 -0.952,4.895 -1.682,7.715c-1.518,-13.834 -1.722,-29.081 -2.343,-43.05c-0.295,-6.635 -1.378,-13.019 -1.561,-19.253c-0.302,-10.2 0.555,-21.027 0.688,-31.292c0.056,-4.327 0.079,-14.317 1.28,-17.854l0.283,0.035l0.718,1.668l0.516,0.117c0.529,-4.841 1.135,-25.895 2.714,-28.706l0.947,-0.192c1.212,-1.156 5.152,-19.466 5.9,-22.632Zm469.732,3.489c2.67,1.794 4.221,15.763 6.016,19.03c0.933,-0.598 0.503,-0.586 1.322,-0.457c1.777,6.461 1.392,26.441 2.784,29.349c0.453,-0.597 0.902,-1.197 1.347,-1.8c0.966,2.373 2.519,41.532 1.922,46.736c-2.345,20.421 -1.213,45.27 -4.26,65.185c-0.449,-3.034 -0.746,-6.462 -1.147,-9.575c-1.619,9.483 -2.476,19.315 -3.841,28.937c-0.525,3.31 -0.359,6.291 -0.964,9.439l-3.92,1.062c-0.606,-2.215 -0.339,-6.913 -0.576,-9.444c-2.096,-22.411 -2.929,-44.831 -3.529,-67.322c-0.198,-7.401 -1.986,-14.474 -1.566,-22.113c0.301,-5.486 0.157,-10.739 1.203,-16.239c0.934,-13.832 0.343,-27.957 0.948,-41.812c0.177,-4.053 1.664,-8.314 2.131,-12.306c0.731,-6.255 1.303,-12.446 2.13,-18.67Zm-578.31,46.671c2.13,0.411 3.534,1.33 5.456,2.349l1.367,-0.432c3.667,1.324 0.954,9.825 6.132,9.911c2.672,7.318 2.267,70.079 -1.597,72.47l-1.233,-1.504l-0.531,0.117c-1.747,4.522 -1.299,9.26 -3.361,15.045l-1.108,5.453c-2.002,1.388 -3.289,2.567 -5.086,4.171c-0.27,-19.795 -4.197,-40.812 -4.159,-61.002c0.031,-16.048 3.584,-30.577 4.12,-46.578Zm685.932,-0.069c1.013,1.552 1.493,11.439 1.725,14.193c1.043,10.999 2.985,21.126 2.73,32.264c-0.472,20.525 -2.827,40.86 -4.027,61.284c-1.68,-1.51 -3.48,-2.995 -5.205,-4.46l-0.968,-4.934c-1.057,-3.49 -2.445,-14.277 -3.937,-15.884l-0.848,2.022c-0.757,-0.725 -1.95,-3.549 -2.01,-4.468c-0.525,-9.119 -1.537,-24.4 -1.935,-33.028c-0.225,-4.878 1.065,-33.75 2.318,-35.521l1.23,0.304c3.315,-2.112 2.137,-8.857 4.897,-10.854l2.025,0.893c1.65,-0.203 2.573,-0.948 4.005,-1.811Zm-553.092,7.251c1.855,2.044 2.463,8.259 4.652,9.045c0.645,-0.774 0.993,-1.209 1.729,-1.891c1.875,3.166 1.3,15.755 1.379,19.567c0.273,13.278 0.456,26.574 -1.516,39.752c-0.604,4.039 -0.829,8.309 -2.104,12.204c-3.621,0.877 -1.259,-0.851 -4.647,2.419c-0.81,-3.38 -3.79,-20.547 -5.076,-21.835c-0.849,0.976 -0.526,0.779 -1.587,1.411c-2.345,-3.171 -2.775,-38.5 -0.46,-41.518l0.975,0.661c1.243,-1.03 2.938,-12.854 4.725,-15.073c0.521,-0.648 1.606,-3.805 1.93,-4.742Zm421.158,0.479c4.686,6.174 5.903,18.028 7.029,19.37c1.092,-0.743 0.684,-0.776 1.641,-0.733c1.371,5.784 2.244,38.194 -1.155,41.616l-0.999,-1.462c-1.509,1.599 -3.945,15.793 -4.695,19.272l-0.507,1.65c-1.535,0.231 -1.47,-1.292 -3.092,-1.941c-1.413,-0.565 0.027,1.243 -2.113,0.09c-2.04,-6.606 -2.262,-20.567 -3.112,-28.135c-0.809,-7.206 0.402,-16.282 -0.025,-23.635c0.269,-1.57 -0.57,-13.272 -0.058,-14.078c2.127,-3.344 5.174,-7.42 7.086,-12.014Zm-578.304,18.291c1.4,0.658 2.553,2.238 3.613,3.457c0.896,0.268 1.203,0.369 2.049,0.761c0.632,3.313 0.156,8.107 0.308,11.668c0.441,10.329 0.717,19.246 -0.147,29.517c-1.424,1.358 -4.871,5.034 -6.3,5.499l-0.816,-0.805c-1.531,-4.578 -2.407,-4.265 -6.774,-5.619c-1.367,-5.417 -2.448,-36.383 -0.013,-39.699c4.769,0.585 5.581,-1.28 8.08,-4.779Zm735.063,0.18c0.503,0.523 3.713,4.665 4.005,4.79c2.025,0.853 2.408,-0.288 4.395,1.507c2.04,8.038 0.255,22.633 0.263,30.97c-0,11.724 -3.203,4.095 -7.68,13.008l-0.563,0.555c-0.87,-0.208 -1.402,-0.516 -1.845,-1.368c-1.095,-2.132 -2.827,-1.98 -4.515,-3.66c-1.312,-7.362 -0.375,-21.135 -0.067,-28.687c0.165,-4.039 -0.053,-8.028 0.06,-12.129c1.89,-1.772 3.93,-3.362 5.947,-4.986Zm-771.281,12.76c4.37,0.04 8.741,0.01 13.11,-0.09c-0.01,3.705 0.347,21.999 -0.202,24.462l-0.832,0.368c-5.092,-1.088 -7.516,0.097 -12.208,2.017c-0.118,-8.793 0.071,-17.939 0.132,-26.757Zm794.569,-0.172c4.23,0.3 8.805,0.172 13.072,0.142c-0.187,8.985 0.353,17.43 -0.232,26.603c-6.24,-2.507 -6.023,-2.28 -13.095,-1.858c0.052,-6.548 -0.09,-18.784 0.255,-24.887Zm27.472,3.688l12.563,-0.004c-0.113,4.153 0.787,12.975 -0.735,16.882c-0.203,0.516 -1.455,0.381 -2.22,0.418c-1.875,-0.073 -5.52,-0.374 -7.23,0.024c-0.555,0.129 -0.87,1.721 -1.133,2.506l-0.705,0.201c-1.2,-2.369 -1.402,-17.569 -0.54,-20.027Zm-848.833,0.011l12.457,0.024c-0.068,5.608 1.044,14.044 -1.374,18.793c-0.154,-0.06 -0.939,-0.59 -1.037,-0.686c-1.562,-1.516 -7.988,-0.928 -10.406,-0.867c-0.051,-2.974 -0.455,-15.265 0.36,-17.264Z" style="fill:#f9b71d;"/><path d="M304.225,356.353c5.52,1.793 47.945,14.238 50.102,13.287c-0.216,-1.487 -1.514,-2.788 -2.502,-4.024c12.026,8.081 12.597,6.8 25.829,11.499c-2.72,-0.126 -4.787,-0.133 -7.503,-0.06c1.513,0.735 4.935,1.954 5.794,2.488c13.243,3.807 25.042,6.439 38.048,9.965c-4.991,-3.049 -10.31,-5.815 -15.445,-8.623c-3.125,-1.709 -6.741,-3.191 -9.687,-5.126c36.594,11.024 73.042,22.525 109.335,34.499c8.702,2.857 16.887,5.719 25.913,7.452c0.827,0.159 2.113,1.117 2.693,1.737l-0.153,0.448l-0.776,0.024c-0.333,5.577 11.266,13.91 14.999,17.78c-1.102,-3.148 -2.176,-6.401 -3.542,-9.455c-0.611,-1.365 -3.029,-4.106 -2.981,-4.919c1.69,1.068 5.452,5.837 7.086,7.547c8.803,9.21 16.021,17.09 23.706,27.342c-2.532,-1.557 -5.05,-3.135 -7.554,-4.736c1.796,6.079 4.11,12.03 6.316,17.977c-0.946,1.438 -2.002,2.972 -2.896,4.427c1.327,1.091 3.958,3.461 5.407,4.007c0.131,-1.124 0.192,-1.753 0.453,-2.865c2.946,3.514 1.264,3.961 5.957,5.585c0.062,1.367 -3.606,7.791 -4.526,10.555c-1.702,5.111 -2.665,8.27 -3.833,13.599c-4.364,2.721 -9.332,5.7 -14.103,7.65l8.44,-0.693c-5.682,2.724 -18.654,10.289 -24.038,13.943c6.776,-2.453 20.579,-9.039 27.228,-12.437c-2.191,7.145 -4.483,14.872 -5.965,22.206c2.352,-1.509 6.327,-4.293 9.129,-4.219c-0.822,3.094 -37.137,27.553 -42.483,31.321c2.793,-3.358 5.31,-6.934 7.53,-10.694c-16.657,9.954 -31.794,20.406 -47.908,31.13c1.994,2.357 10.184,10.483 10.122,12.273l-1.481,1.936c0.432,2.247 14.335,14.256 17.021,16.754c-3.643,-6.411 -7.415,-12.747 -11.315,-19.006c17.304,16.573 34.191,35.342 50.16,53.296c12.038,13.534 26.05,28.276 37.579,42.039c-8.488,-5.971 -16.447,-12.036 -24.749,-18.24c8.7,11.445 18.354,22.515 28.744,32.457c11.048,10.572 21.234,22.039 32.04,32.804c-3.48,-6.773 -7.152,-13.448 -11.01,-20.012c11.818,11.987 23.34,24.272 34.556,36.827c-7.775,-5.798 -13.456,-10.335 -21.75,-15.585c5.236,6.585 11.145,12.375 16.901,18.435c1.858,1.957 10.351,9.855 11.117,11.385c-3.078,-1.83 -5.325,-4.133 -8.166,-6.203c6.247,9.315 14.112,18.165 21.133,26.933c5.655,7.065 10.331,12.022 14.302,20.31c-2.341,-1.073 -3.732,-2.07 -5.839,-3.518c-23.519,-16.125 -43.027,-39.39 -65.743,-56.37c4.866,9.66 10.861,19.53 16.155,29.055c-6.267,-5.362 -15.992,-12.885 -21.288,-18.727c-16.233,-17.91 -33.403,-34.057 -50.849,-50.735c-7.099,-6.786 -14.407,-12.745 -21.561,-19.494c4.728,7.233 16.25,23.289 21.519,29.901c-11.989,-8.949 -33.511,-31.332 -40.747,-43.498c2.769,1.834 6.707,4.591 9.588,6.087c-8.866,-15.002 -24.81,-34.379 -38.625,-45.315c5.055,6.298 11.512,15.025 16.761,20.808c-4.968,-3.754 -10.026,-7.385 -15.171,-10.893c3.325,4.845 8.434,11.627 11.259,16.445c-12.606,-10.471 -24.161,-22.887 -35.802,-34.453c-2.244,-2.229 -8.084,-11.731 -10.207,-12.208l-0.065,1.362c-3.927,-2.654 -18.774,-17.656 -23.012,-21.618c-0.052,8.841 -0.005,17.962 -0.15,26.828c-0.053,3.273 -1.681,6.701 -1.542,9.237c0.982,17.773 0.3,35.542 0.898,53.288c0.192,5.697 0.424,11.914 0.094,17.619c-2.586,2.758 -5.109,5.576 -7.566,8.451c-0.343,-8.226 -0.787,-16.447 -1.332,-24.662c-1.383,5.514 -5.727,8.308 -3.528,12.883c-1.234,2.311 -3.985,3.724 -4.103,4.043c-2.924,7.902 -5.675,17.948 -9.196,25.466c-1.59,-22.476 -3.943,-43.829 -4.392,-66.661l-0.866,-2.567c-0.145,20.697 -1.984,42.06 -2.739,62.765c-0.086,2.365 -7.999,22.386 -9.322,26.188c-0.884,-11.377 -1.875,-22.397 -2.474,-33.801c-2.439,15.119 -6.548,30.171 -9.422,45.224c-0.479,2.512 -1.001,5.197 -1.84,7.605l-0.127,-0.15l-0.219,-0.015c-0.057,-0.968 -0.081,-1.208 -0.023,-2.183c-0.12,-14.28 -0.915,-28.98 -1.099,-43.311c-0.06,-4.684 -1.298,-10.366 -1.294,-15.192c0.004,-4.019 0.892,-8.13 0.882,-12.044l-0.483,-158.488c-0.029,-7.196 -1.062,-61.152 -0.054,-63.747l0.672,-0.105l1.427,1.432c4.157,4.301 8.224,8.764 12.431,12.991c0.012,-1.818 -0.435,-3.707 0.47,-4.657l1.196,1.066c3.193,2.802 7.349,7.214 10.601,10.305c6.618,6.19 13.273,12.339 19.966,18.448c-9.346,-13.477 -19.015,-25.737 -28.954,-38.636l-32.835,-42.784c3.069,1.273 10.057,3.377 12.069,4.418c5.367,2.779 8.877,4.686 14.606,7.169c-3.02,-4.102 -16.051,-20.257 -19.816,-22.86c-3.089,-2.556 -8.102,-8.08 -11.09,-11.113c-5.339,-5.339 -10.727,-10.626 -16.168,-15.861c8.503,3.128 18.819,6.258 27.515,8.999c-3.727,-4.349 -7.972,-8.039 -11.568,-12.521c-1.677,-1.239 -2.493,-4.246 -5.718,-4.873c-3.368,-2.462 -8.738,-7.786 -12.163,-10.83c-7.386,-6.494 -14.851,-12.899 -22.391,-19.213Zm111.113,87.768c1.63,1.152 5.539,4.238 7.163,4.472c0.788,3.462 0.524,29.796 0.536,34.636l0.394,79.316c8.676,-5.691 17.805,-10.827 26.439,-16.609c1.55,-1.037 4.407,-3.137 6.005,-3.898c1.416,0.126 4.611,-1.081 5.728,-1.943c11.754,-9.062 24.845,-15.992 36.454,-25.199c4.172,-3.309 8.804,-6.684 13.133,-9.628c-0.192,-4.958 -0.49,-20.576 -2.086,-24.238c-1.854,-1.162 -4.69,-2.236 -6.765,-3.113l-5.719,-8.239l-39.865,-12.646c-8.022,-2.61 -17.906,-6.23 -25.948,-8.17c-3.229,-2.108 -11.403,-3.52 -15.469,-4.741Z" style="fill:#f9b71d;"/></g></svg>