<?xml version="1.0" encoding="UTF-8" standalone="no"?><!DOCTYPE svg PUBLIC "-//W3C//DTD SVG 1.1//EN" "http://www.w3.org/Graphics/SVG/1.1/DTD/svg11.dtd"><svg width="100%" height="100%" viewBox="0 0 144 144" version="1.1" xmlns="http://www.w3.org/2000/svg" xmlns:xlink="http://www.w3.org/1999/xlink" xml:space="preserve" xmlns:serif="http://www.serif.com/" style="fill-rule:evenodd;clip-rule:evenodd;stroke-linejoin:round;stroke-miterlimit:2;"><rect x="0" y="0" width="144" height="144"/><path d="M19.464,2.207c1.42,-0.152 5.246,-0.055 6.809,-0.054l13.474,-0.006l58.158,0.016l-5.89,5.469c1.073,-0.508 4.853,-1.811 6.048,-2.216c2.437,-0.827 6.401,-2.385 8.774,-2.991c2.049,-0.524 8.288,-0.186 10.647,-0.241c2.55,0.142 5.534,-0.299 8.025,0.197c6.831,1.36 12.703,7.279 14.725,13.671c0.383,1.199 0.624,2.439 0.716,3.694c0.132,1.878 0.064,4.394 0.061,6.309l0,10.39l0.021,13.118c0.003,2.623 0.004,5.344 -0.063,7.944c-0.073,2.852 -1.529,4.65 -1.783,6.773c-0.082,0.68 1.238,5.723 1.488,6.844c-1.441,-1.192 -2.936,-2.319 -4.478,-3.377c0.965,1.893 1.973,5.119 2.854,7.174c0.591,1.379 1.559,3.769 1.928,5.129c0.188,0.692 0.086,3.528 0.087,4.417l0.043,7.452l0.036,29.475c0.013,8.978 -6.176,17.061 -15.03,18.981c-2.133,0.462 -4.956,0.323 -7.162,0.325l-11.523,-0.048l-58.959,-0.114c1.043,-0.403 2.255,-0.83 3.219,-1.229c2.601,-1.077 4.131,-2.165 7.021,-1.974c0.402,0.027 3.182,-1.041 4.159,-1.124c3.994,-0.2 19.141,-0.554 23.131,-0.346c10.51,0.546 21.051,-0.032 31.575,0.161c4.46,0.081 6.355,0.213 10.421,-1.756c5.015,-2.974 8.175,-7.803 7.94,-13.77c-0.075,-1.896 -0.008,-4.024 -0.006,-5.942l0.015,-15.106l0,-14.192c-0.001,-1.191 0.074,-6.132 -0.044,-6.933c-0.493,-3.322 -1.947,-11.537 -3.199,-14.618c1.121,0.7 2.969,1.762 3.868,2.651c-0.077,-2.439 0.516,-4.568 1.36,-6.824c-0.341,-2.354 -1.741,-4.684 -1.821,-6.789c-0.105,-2.792 -0.062,-5.825 -0.061,-8.629l0.013,-15.538c0.003,-2.303 0.122,-6.619 -0.121,-8.73c-0.131,-1.081 -0.402,-2.141 -0.807,-3.151c-1.413,-3.623 -4.492,-6.602 -8.012,-8.208c-3.053,-1.394 -7.152,-1.033 -10.49,-1.008c-3.41,0.024 -7.41,-0.276 -10.743,0.15c-3.348,0.428 -7.075,1.973 -10.386,2.727c-3.917,1.128 -9.508,2.326 -13.211,3.782c1.822,-1.99 5.72,-5.534 7.729,-7.328c-3.122,0.206 -6.471,-0.17 -9.545,0.058c-10.706,0.794 -32.074,0.566 -42.812,0.55l-10.591,-0.024c-2.253,-0.007 -5.333,-0.123 -7.504,0.252c-3.514,0.607 -7.212,3.441 -9.199,6.35c-1.078,1.598 -1.785,3.416 -2.068,5.322c-0.267,1.82 -0.164,5.421 -0.153,7.355l0.026,11.176l-0.012,12.991c-0.009,2.373 -0.074,4.743 0.036,7.116c0.062,1.342 1.71,5.674 0.978,6.733c-0.209,0.005 -0.295,0.009 -0.508,0.04c-0.355,1.038 0.116,2.953 0.317,4.101c-1.439,-3.476 -3.101,-6.828 -4.49,-10.379c-1.572,-4.016 -1.401,-3.953 -1.403,-8.261l-0.003,-9.008l-0.014,-15.252c0.002,-2.031 -0.039,-4.099 0.024,-6.139c0.158,-5.117 3.092,-9.703 6.756,-13.083c2.712,-2.503 5.977,-3.975 9.609,-4.505Zm-16.264,62.694c0.393,0.145 0.944,0.646 1.297,0.918c2.21,1.706 3.021,2.828 4.392,5.202c-1.006,-0.711 -1.957,-1.579 -2.886,-2.394c0.191,4.459 2.039,8.67 2.174,12.798c0.116,3.564 0.014,7.701 0.002,11.304l-0.013,20.072c0.002,3.337 -0.259,8.589 0.354,11.782c0.676,3.532 4.191,7.576 7.271,9.403c5.196,3.082 10.452,1.752 15.96,0.48c3.395,-0.813 6.776,-1.682 10.142,-2.607c-1.79,1.865 -4.025,3.043 -5.908,4.998c-0.609,0.606 -2.742,3.055 -3.596,2.763c1.177,-1.413 1.672,-2.176 2.728,-3.629c-2.596,0.785 -5.194,2.309 -7.598,3.566c-1.438,0.75 -3.977,2.663 -5.647,2.268l-0.013,-0.166c0.506,-0.528 1.158,-0.685 1.853,-0.938c-1.117,-0.15 -2.506,-0.085 -3.653,-0.183c-3.007,-0.255 -6.261,-1.58 -8.66,-3.38c-3.375,-2.534 -6.496,-6.366 -7.659,-10.476c-0.33,-1.166 -0.629,-2.365 -0.681,-3.579c-0.089,-2.099 -0.038,-4.264 -0.041,-6.369l-0.01,-11.919c-0.016,-4.743 -0.008,-9.487 0.026,-14.23c0.027,-2.178 0.022,-4.548 0.161,-6.712c0.173,-2.695 1.433,-5.263 1.459,-8.053c0.018,-1.914 -0.298,-3.221 -0.578,-5.07c-0.28,-1.951 -0.572,-3.901 -0.876,-5.849Zm51.417,69.769l0.087,0.001l-0.007,0.111c-2.398,1.292 -5.2,2.149 -7.694,3.276c-3.152,1.424 -5.207,2.467 -8.65,2.92c1.437,-0.915 3.109,-1.515 4.404,-2.538c-1.079,0.078 -2.904,0.442 -4.019,0.63c-2.198,0.386 -3.271,0.604 -5.486,0.426c2.491,-0.66 4.637,-0.869 7.126,-1.938c0.849,-0.365 2.825,-1.767 3.252,-1.819c0.077,0.509 -0.012,0.449 0.292,0.757c0.379,0.083 9.581,-1.649 10.695,-1.826Z" style="fill:#fff;"/></svg>