<?xml version="1.0" encoding="UTF-8" standalone="no"?><!DOCTYPE svg PUBLIC "-//W3C//DTD SVG 1.1//EN" "http://www.w3.org/Graphics/SVG/1.1/DTD/svg11.dtd"><svg width="100%" height="100%" viewBox="0 0 144 144" version="1.1" xmlns="http://www.w3.org/2000/svg" xmlns:xlink="http://www.w3.org/1999/xlink" xml:space="preserve" xmlns:serif="http://www.serif.com/" style="fill-rule:evenodd;clip-rule:evenodd;stroke-linejoin:round;stroke-miterlimit:2;"><rect x="0" y="0" width="144" height="144"/><path d="M144,0l0,144l-144,0l0,-144l144,0Zm-124.536,2.207c-3.632,0.53 -6.897,2.002 -9.609,4.505c-3.664,3.38 -6.598,7.966 -6.756,13.083c-0.063,2.04 -0.022,4.108 -0.024,6.139l0.014,15.252l0.003,9.008c0.002,4.308 -0.169,4.245 1.403,8.261c1.389,3.551 3.051,6.903 4.49,10.379c-0.201,-1.148 -0.672,-3.063 -0.317,-4.101c0.213,-0.031 0.299,-0.035 0.508,-0.04c0.732,-1.059 -0.916,-5.391 -0.978,-6.733c-0.11,-2.373 -0.045,-4.743 -0.036,-7.116l0.012,-12.991l-0.026,-11.176c-0.011,-1.934 -0.114,-5.535 0.153,-7.355c0.283,-1.906 0.99,-3.724 2.068,-5.322c1.987,-2.909 5.685,-5.743 9.199,-6.35c2.171,-0.375 5.251,-0.259 7.504,-0.252l10.591,0.024c10.738,0.016 32.106,0.244 42.812,-0.55c3.074,-0.228 6.423,0.148 9.545,-0.058c-2.009,1.794 -5.907,5.338 -7.729,7.328c3.703,-1.456 9.294,-2.654 13.211,-3.782c3.311,-0.754 7.038,-2.299 10.386,-2.727c3.333,-0.426 7.333,-0.126 10.743,-0.15c3.338,-0.025 7.437,-0.386 10.49,1.008c3.52,1.606 6.599,4.585 8.012,8.208c0.405,1.01 0.676,2.07 0.807,3.151c0.243,2.111 0.124,6.427 0.121,8.73l-0.013,15.538c-0.001,2.804 -0.044,5.837 0.061,8.629c0.08,2.105 1.48,4.435 1.821,6.789c-0.844,2.256 -1.437,4.385 -1.36,6.824c-0.899,-0.889 -2.747,-1.951 -3.868,-2.651c1.252,3.081 2.706,11.296 3.199,14.618c0.118,0.801 0.043,5.742 0.044,6.933l-0,14.192l-0.015,15.106c-0.002,1.918 -0.069,4.046 0.006,5.942c0.235,5.967 -2.925,10.796 -7.94,13.77c-4.066,1.969 -5.961,1.837 -10.421,1.756c-10.524,-0.193 -21.065,0.385 -31.575,-0.161c-3.99,-0.208 -19.137,0.146 -23.131,0.346c-0.977,0.083 -3.757,1.151 -4.159,1.124c-2.89,-0.191 -4.42,0.897 -7.021,1.974c-0.964,0.399 -2.176,0.826 -3.219,1.229l58.959,0.114l11.523,0.048c2.206,-0.002 5.029,0.137 7.162,-0.325c8.854,-1.92 15.043,-10.003 15.03,-18.981l-0.036,-29.475l-0.043,-7.452c-0.001,-0.889 0.101,-3.725 -0.087,-4.417c-0.369,-1.36 -1.337,-3.75 -1.928,-5.129c-0.881,-2.055 -1.889,-5.281 -2.854,-7.174c1.542,1.058 3.037,2.185 4.478,3.377c-0.25,-1.121 -1.57,-6.164 -1.488,-6.844c0.254,-2.123 1.71,-3.921 1.783,-6.773c0.067,-2.6 0.066,-5.321 0.063,-7.944l-0.021,-13.118l0,-10.39c0.003,-1.915 0.071,-4.431 -0.061,-6.309c-0.092,-1.255 -0.333,-2.495 -0.716,-3.694c-2.022,-6.392 -7.894,-12.311 -14.725,-13.671c-2.491,-0.496 -5.475,-0.055 -8.025,-0.197c-2.359,0.055 -8.598,-0.283 -10.647,0.241c-2.373,0.606 -6.337,2.164 -8.774,2.991c-1.195,0.405 -4.975,1.708 -6.048,2.216l5.89,-5.469l-58.158,-0.016l-13.474,0.006c-1.563,-0.001 -5.389,-0.098 -6.809,0.054Zm-16.264,62.694c0.304,1.948 0.596,3.898 0.876,5.849c0.28,1.849 0.596,3.156 0.578,5.07c-0.026,2.79 -1.286,5.358 -1.459,8.053c-0.139,2.164 -0.134,4.534 -0.161,6.712c-0.034,4.743 -0.042,9.487 -0.026,14.23l0.01,11.919c0.003,2.105 -0.048,4.27 0.041,6.369c0.052,1.214 0.351,2.413 0.681,3.579c1.163,4.11 4.284,7.942 7.659,10.476c2.399,1.8 5.653,3.125 8.66,3.38c1.147,0.098 2.536,0.033 3.653,0.183c-0.695,0.253 -1.347,0.41 -1.853,0.938l0.013,0.166c1.67,0.395 4.209,-1.518 5.647,-2.268c2.404,-1.257 5.002,-2.781 7.598,-3.566c-1.056,1.453 -1.551,2.216 -2.728,3.629c0.854,0.292 2.987,-2.157 3.596,-2.763c1.883,-1.955 4.118,-3.133 5.908,-4.998c-3.366,0.925 -6.747,1.794 -10.142,2.607c-5.508,1.272 -10.764,2.602 -15.96,-0.48c-3.08,-1.827 -6.595,-5.871 -7.271,-9.403c-0.613,-3.193 -0.352,-8.445 -0.354,-11.782l0.013,-20.072c0.012,-3.603 0.114,-7.74 -0.002,-11.304c-0.135,-4.128 -1.983,-8.339 -2.174,-12.798c0.929,0.815 1.88,1.683 2.886,2.394c-1.371,-2.374 -2.182,-3.496 -4.392,-5.202c-0.353,-0.272 -0.904,-0.773 -1.297,-0.918Zm51.417,69.769c-1.114,0.177 -10.316,1.909 -10.695,1.826c-0.304,-0.308 -0.215,-0.248 -0.292,-0.757c-0.427,0.052 -2.403,1.454 -3.252,1.819c-2.489,1.069 -4.635,1.278 -7.126,1.938c2.215,0.178 3.288,-0.04 5.486,-0.426c1.115,-0.188 2.94,-0.552 4.019,-0.63c-1.295,1.023 -2.967,1.623 -4.404,2.538c3.443,-0.453 5.498,-1.496 8.65,-2.92c2.494,-1.127 5.296,-1.984 7.694,-3.276l0.007,-0.111l-0.087,-0.001Z" style="fill:#fff;"/></svg>