<?xml version="1.0" encoding="UTF-8" standalone="no"?><!DOCTYPE svg PUBLIC "-//W3C//DTD SVG 1.1//EN" "http://www.w3.org/Graphics/SVG/1.1/DTD/svg11.dtd"><svg width="100%" height="100%" viewBox="0 0 144 144" version="1.1" xmlns="http://www.w3.org/2000/svg" xmlns:xlink="http://www.w3.org/1999/xlink" xml:space="preserve" xmlns:serif="http://www.serif.com/" style="fill-rule:evenodd;clip-rule:evenodd;stroke-linejoin:round;stroke-miterlimit:2;"><path d="M68.688,88.875c-0,7.254 -5.871,13.125 -13.125,13.125c-7.249,-0 -13.125,-5.871 -13.125,-13.125c-0,-7.254 5.876,-13.125 13.125,-13.125c1.676,-0 3.27,0.316 4.746,0.879l28.629,-28.629c3.316,-3.314 8.684,-3.314 12,0c0.832,0.829 0.832,2.171 -0,3l-33.129,33.129c0.563,1.476 0.879,3.07 0.879,4.746Zm-13.125,-5.625c-3.107,-0 -5.625,2.52 -5.625,5.625c-0,3.105 2.518,5.625 5.625,5.625c3.105,-0 5.625,-2.52 5.625,-5.625c-0,-3.105 -2.52,-5.625 -5.625,-5.625Z" style="fill:#fff;fill-rule:nonzero;"/><path d="M64.833,71.895l-4.524,-4.524c-1.476,0.563 -3.07,0.879 -4.746,0.879c-7.249,-0 -13.125,-5.871 -13.125,-13.125c-0,-7.249 5.876,-13.125 13.125,-13.125c7.254,0 13.125,5.876 13.125,13.125c-0,1.676 -0.316,3.27 -0.879,4.746l4.524,4.524l-7.5,7.5Zm-15,-16.875c-0,3.21 2.623,5.625 5.625,5.625c3.21,-0 5.625,-2.415 5.625,-5.625c-0,-3.002 -2.415,-5.625 -5.625,-5.625c-3.002,-0 -5.625,2.623 -5.625,5.625Zm51.105,37.98c0.832,0.832 0.832,2.168 -0,3c-3.316,3.316 -8.684,3.316 -12,-0l-16.605,-16.605l7.605,-7.5l21,21.105Z" style="fill:#fff;fill-opacity:0.4;fill-rule:nonzero;"/></svg>