<?xml version="1.0" encoding="UTF-8" standalone="no"?><!DOCTYPE svg PUBLIC "-//W3C//DTD SVG 1.1//EN" "http://www.w3.org/Graphics/SVG/1.1/DTD/svg11.dtd"><svg width="100%" height="100%" viewBox="0 0 144 144" version="1.1" xmlns="http://www.w3.org/2000/svg" xmlns:xlink="http://www.w3.org/1999/xlink" xml:space="preserve" xmlns:serif="http://www.serif.com/" style="fill-rule:evenodd;clip-rule:evenodd;stroke-linejoin:round;stroke-miterlimit:2;"><path d="M79.808,83.143c0,4.102 -3.326,7.428 -7.428,7.428c-4.102,0 -7.429,-3.326 -7.429,-7.428c0,-4.102 3.327,-7.429 7.429,-7.429c4.102,0 7.428,3.332 7.428,7.429Z" style="fill:#fff;fill-rule:nonzero;"/><path d="M96.65,57.271l-9.738,-9.739c-0.801,-0.798 -2.565,-1.532 -3.842,-1.532l-29.262,-0c-4.103,-0 -7.428,3.325 -7.428,7.429l-0,37.142c-0,4.104 3.325,7.429 7.428,7.429l37.143,-0c4.103,-0 7.429,-3.325 7.429,-7.429l-0,-29.261c-0,-1.277 -0.732,-3.041 -1.73,-4.039Zm-24.27,33.3c-4.102,0 -7.429,-3.326 -7.429,-7.428c0,-4.102 3.327,-7.429 7.429,-7.429c4.102,0 7.428,3.327 7.428,7.429c0,4.102 -3.331,7.428 -7.428,7.428Zm11.142,-24.142c0,1.021 -0.835,1.857 -1.857,1.857l-26,-0c-1.026,-0 -1.857,-0.836 -1.857,-1.857l0,-11.143c0,-1.022 0.831,-1.857 1.857,-1.857l26,-0c1.022,-0 1.857,0.835 1.857,1.857l0,11.143Z" style="fill:#fff;fill-opacity:0.4;fill-rule:nonzero;"/></svg>