<?xml version="1.0" encoding="UTF-8" standalone="no"?><!DOCTYPE svg PUBLIC "-//W3C//DTD SVG 1.1//EN" "http://www.w3.org/Graphics/SVG/1.1/DTD/svg11.dtd"><svg width="100%" height="100%" viewBox="0 0 512 512" version="1.1" xmlns="http://www.w3.org/2000/svg" xmlns:xlink="http://www.w3.org/1999/xlink" xml:space="preserve" xmlns:serif="http://www.serif.com/" style="fill-rule:evenodd;clip-rule:evenodd;stroke-linejoin:round;stroke-miterlimit:2;"><path d="M410.398,72.786l55.817,-56.786c0.431,51.92 -0.017,109.993 4.086,161.141c-53.587,-4.546 -108.983,1.484 -163.517,0.358c19.921,-19.805 39.74,-39.722 59.452,-59.737c-62.74,-47.394 -108.932,-52.039 -183.135,-25.328c52.214,-49.468 94.435,-28.621 124.195,-39.846l-2.554,-6.018l1.488,-3.629c27.977,0.942 56.828,16.278 84.989,15.98l19.179,13.865Zm-339.709,313.16c0.943,-15.938 -6.678,-34.362 -4.013,-69.026l1.489,6.393c1.94,-23.073 7.284,-62.42 15.839,-83.066c3.066,55.758 18.326,102.603 60.424,140.735c16.121,14.598 45.727,37.048 66.492,34.613l0.619,0.166c108.535,28.549 187.966,-33.577 220.178,-134.832l52.739,17.861c4.316,14.458 -14.573,50.253 -22.22,64.561c-29.823,55.796 -74.621,90.038 -134.554,109.281c-14.313,4.598 -40.503,5.404 -48.887,11.055c3.608,3.812 5.467,5.446 8.26,9.932c-26.599,4.193 -55.894,-27.725 -90.533,-22.731c-13.067,1.885 -70.25,-24.318 -82.558,-33.863c-13.276,-9.314 -33.982,-37.103 -43.275,-51.079Z" style="fill:#f8b422;"/><path d="M183.101,92.434c-50.325,30.945 -78.762,58.372 -93.322,119.482c-2.167,9.391 -4.095,18.838 -5.775,28.331c-8.555,20.646 -13.899,59.993 -15.839,83.066l-1.489,-6.393c-2.665,34.664 4.956,53.088 4.013,69.026c-15.153,-21.252 -30.049,-55.136 -36.681,-80.174c-15.051,-58.726 -5.95,-121.039 25.273,-173.002c30.702,-52.977 81.193,-91.582 140.359,-107.315c76.327,-19.639 125.995,-5.792 191.579,33.466c-28.161,0.298 -57.012,-15.038 -84.989,-15.98l-1.488,3.629l2.554,6.018c-29.76,11.225 -71.981,-9.622 -124.195,39.846Zm248.616,188.495l52.739,17.861c-28.804,23.504 -39.85,31.645 -61.272,61.738c-35.458,49.804 -88.597,86.285 -152.015,73.132c-16.808,-3.181 -25.418,-7.672 -39.654,4.103c-8.756,-6.367 -13.336,-13.451 -19.976,-22.002c108.535,28.549 187.966,-33.577 220.178,-134.832Z" style="fill:#fefefe;"/></svg>