<?xml version="1.0" encoding="UTF-8" standalone="no"?><!DOCTYPE svg PUBLIC "-//W3C//DTD SVG 1.1//EN" "http://www.w3.org/Graphics/SVG/1.1/DTD/svg11.dtd"><svg width="100%" height="100%" viewBox="0 0 448 512" version="1.1" xmlns="http://www.w3.org/2000/svg" xmlns:xlink="http://www.w3.org/1999/xlink" xml:space="preserve" xmlns:serif="http://www.serif.com/" style="fill-rule:evenodd;clip-rule:evenodd;stroke-linejoin:round;stroke-miterlimit:2;"><g><path d="M439.324,182.306l8.698,5.395c0.549,24.606 -78.308,92.216 -98.103,112.099c-5.821,5.848 -35.655,16.136 -45.886,25.178c10.025,4.204 15.332,-2.755 23.903,1.537c-14.243,19.914 -78.247,80.904 -98.965,101.464c-26.495,-27.584 -111.691,-108.054 -129.865,-131.636c-14.836,-13.065 -97.655,-92.581 -99.081,-105.655c14.296,-13.592 48.318,-9.199 67.74,-8.654c17.327,11.558 74.96,65.914 84.397,83.096l-5.944,4.608c12.397,15.073 58.679,45.144 81.637,72.215c10.79,-17.612 112.878,-115.628 132.893,-137.941c22.177,-24.711 48.553,-23.116 78.576,-21.706Z" style="fill:#f8b422;fill-rule:nonzero;"/><path d="M99.106,296.343c-14.836,-13.065 -97.655,-92.581 -99.081,-105.655c14.296,-13.592 48.318,-9.199 67.74,-8.654c17.327,11.558 74.96,65.914 84.397,83.096l-5.944,4.608c-16.264,1.845 -52.577,-20.054 -69.851,-29.126c6.805,15.226 19.04,40.373 22.739,55.731Zm128.749,45.61c10.79,-17.612 112.878,-115.628 132.893,-137.941c22.177,-24.711 48.553,-23.116 78.576,-21.706c-6.137,12.876 -49.827,33.915 -62.677,47.007c-33.696,34.314 -74.811,79.177 -115.347,104.934c-3.395,2.157 -28.274,6.919 -33.445,7.706Z" style="fill:#fefefe;"/></g></svg>