<?xml version="1.0" encoding="UTF-8" standalone="no"?><!DOCTYPE svg PUBLIC "-//W3C//DTD SVG 1.1//EN" "http://www.w3.org/Graphics/SVG/1.1/DTD/svg11.dtd"><svg width="100%" height="100%" viewBox="0 0 512 512" version="1.1" xmlns="http://www.w3.org/2000/svg" xmlns:xlink="http://www.w3.org/1999/xlink" xml:space="preserve" xmlns:serif="http://www.serif.com/" style="fill-rule:evenodd;clip-rule:evenodd;stroke-linejoin:round;stroke-miterlimit:2;"><path d="M36.872,273.685l-31.292,-44.468c22.359,-167.777 171.018,-272.338 335.184,-211.954c52.379,16.09 59.104,36.85 84.577,84.207l-8.734,-34.146l2.313,-0.309c43.036,41.345 70.638,94.295 75.373,155.672c2.06,26.71 -8.603,49.704 -18.503,74.171l30.63,-22.276c-15.084,51.429 -69.249,180.771 -126.658,187.958c-0.271,-6.342 0.087,-13.15 -2.401,-18.804c-9.587,15.367 -34.511,57.37 -45.557,68.264l-2.548,-3.049l1.551,-13.507c-7.174,-3.137 -48.711,3.693 -60.376,4.647c-85.587,6.991 -173.684,-28.609 -220.421,-102.684c-30.548,-39.846 -34.498,-72.929 -38.105,-120.268c40.152,32.691 68.695,65.468 99.182,106.822c10.732,9.835 39.237,33.274 52.139,39.485c50.54,24.21 108.769,26.736 161.217,7.005c47.652,-17.981 77.106,-50.811 97.762,-96.952c21.626,-49.007 22.737,-104.635 3.083,-154.466c-18.699,-46.694 -53.354,-84.589 -99.861,-104.404c-46.407,-20.067 -98.981,-20.363 -145.614,-0.823c-52.78,22.097 -87.217,62.022 -108.599,114.213c-12.955,54.923 -14.74,66.875 -3.154,122.229c-10.219,-10.973 -23.404,-24.149 -31.188,-36.563Zm196.46,-166.082c27.873,-3.851 50.401,-1.486 73.705,15.563c16.831,12.083 27.912,30.591 30.613,51.133c6.25,50.436 -27.738,71.121 -57.663,98.071c-6.66,5.998 -0.422,22.981 -11.381,36.667c-10.903,6.355 -13.368,8.481 -25.795,8.785c-25.604,-13.52 -15.533,-41.946 -6.547,-62.945c19.958,-28.914 77.211,-48.337 44.895,-92.613c-7.54,-10.332 -11.612,-15.093 -24.601,-16.683c-19.408,-2.376 -35.185,1.306 -45.74,15.075c-9.793,12.776 -5.773,41.828 -28.475,42.077c-10.406,-6.616 -7.1,-2.996 -12.889,-13.546c-2.761,-46.42 24.458,-67.184 63.878,-81.584Zm13.02,233.353c15.075,-2.23 29.362,7.396 32.969,22.206c3.607,14.81 -4.665,29.929 -19.074,34.881c-10.58,3.637 -22.311,0.972 -30.282,-6.877c-7.971,-7.854 -10.815,-19.541 -7.344,-30.182c3.472,-10.637 12.663,-18.394 23.731,-20.028Z" style="fill:#f8b422;"/><path d="M5.58,229.217c22.359,-167.777 171.018,-272.338 335.184,-211.954c-18.695,0.971 -35.413,0.902 -53.947,5.049c-11.996,2.687 -69.88,25.485 -76.522,19.914l12.536,-14.13l-3.032,-2.165c-57.597,13.956 -86.641,28.836 -118.761,81.554c-12.288,20.163 -29.001,56.421 -33.457,79.585l3.633,0.949c-12.955,54.923 -14.74,66.875 -3.154,122.229c-10.219,-10.973 -23.404,-24.149 -31.188,-36.563l-31.292,-44.468Zm6.325,47.922c40.152,32.691 68.695,65.468 99.182,106.822c-19.183,-7.988 -53.612,-32.925 -72.372,-45.544c3.493,18.059 8.712,41.223 11.295,58.99c-30.548,-39.846 -34.498,-72.929 -38.105,-120.268Z" style="fill:#fefefe;"/></svg>