<?xml version="1.0" encoding="UTF-8" standalone="no"?><!DOCTYPE svg PUBLIC "-//W3C//DTD SVG 1.1//EN" "http://www.w3.org/Graphics/SVG/1.1/DTD/svg11.dtd"><svg width="100%" height="100%" viewBox="0 0 448 512" version="1.1" xmlns="http://www.w3.org/2000/svg" xmlns:xlink="http://www.w3.org/1999/xlink" xml:space="preserve" xmlns:serif="http://www.serif.com/" style="fill-rule:evenodd;clip-rule:evenodd;stroke-linejoin:round;stroke-miterlimit:2;"><path d="M15.563,276.837c-29.577,-51.108 33.208,-102.923 91.218,-60.223c9.849,15.883 17.705,28.752 12.804,48.674c-4.019,16.004 -14.268,29.73 -28.461,38.134c-29.861,17.775 -62.993,5.609 -75.561,-26.585Zm176.066,-19.376c-5.78,5.65 -8.354,7.802 -14.78,12.749l-5.7,-4.897c-16.029,-51.258 40.919,-81.3 93.175,-51.981c47.852,72.029 -27.468,126.723 -77.858,80.818c-8.022,-7.309 0.878,-26.905 5.163,-36.689Zm145.398,6.713l-7.049,0.898l-4.525,-6.085c-1.009,-60.249 55.141,-76.097 102.099,-39.413c30.87,62.521 -0.301,62.902 -42.99,94.895c-34.647,-10.235 -50.219,-10.059 -47.535,-50.295Z" style="fill:#f8b422;"/><path d="M15.563,276.837c-29.577,-51.108 33.208,-102.923 91.218,-60.223c-31.235,14.498 -23.499,20.574 -45.774,38.304c-18.889,15.041 -18.217,-6.041 -45.444,21.919Zm176.066,-19.376c-5.78,5.65 -8.354,7.802 -14.78,12.749l-5.7,-4.897c-16.029,-51.258 40.919,-81.3 93.175,-51.981c-34.968,26.134 -38.54,47.31 -72.695,44.129Zm145.398,6.713l-7.049,0.898l-4.525,-6.085c-1.009,-60.249 55.141,-76.097 102.099,-39.413c-46.833,13.59 -48.328,38.61 -83.281,38.505l-7.244,6.095Z" style="fill:#fefefe;"/></svg>