<?xml version="1.0" encoding="UTF-8" standalone="no"?><!DOCTYPE svg PUBLIC "-//W3C//DTD SVG 1.1//EN" "http://www.w3.org/Graphics/SVG/1.1/DTD/svg11.dtd"><svg width="100%" height="100%" viewBox="0 0 640 512" version="1.1" xmlns="http://www.w3.org/2000/svg" xmlns:xlink="http://www.w3.org/1999/xlink" xml:space="preserve" xmlns:serif="http://www.serif.com/" style="fill-rule:evenodd;clip-rule:evenodd;stroke-linejoin:round;stroke-miterlimit:2;"><path d="M160.618,130.078c47.429,-35.921 100.255,-62.28 157.078,-64.562c51.371,-2.062 62.431,6.744 100.428,32.206c32.821,21.993 65.213,27.425 96.922,58.273c30.721,32.539 63.719,66.388 92.929,100.028c-42.947,49.358 -65.5,52.486 -98.575,85.402c9.316,1.075 17.18,1.557 26.555,1.99c-6.677,15.188 -33.325,27.997 -59.668,39.09l-45.262,-36.194c33.619,-22.567 60.094,-54.07 84.763,-90.079c-52.773,-82.529 -125.025,-135.347 -226.099,-124.998c-25.377,7.027 -55.298,19.99 -83.134,35.578l-45.937,-36.734Zm257.11,294.877c-19.929,9.123 -45.738,17.166 -57.34,19.07c-20.567,3.278 -41.499,3.625 -62.162,1.029c-13.236,-1.666 -49.021,-12.654 -58.087,-7.745l-2.317,4.426c-30.207,-10.286 -40.926,-46.367 -58.77,-59.521l1.207,16.164c-10.195,1.111 -56.462,-43.566 -64.731,-52.919c-27.074,-23.886 -59.794,-61.843 -83.553,-88.908c23.204,-26.818 49.468,-56.094 78.372,-83.495c12.612,11.24 25.337,22.337 38.149,33.341c-2.22,1.905 -4.356,3.811 -6.399,5.714l8.952,1.962l1.566,2.741c-10.336,13.241 -20.367,26.259 -31.327,38.995c7.236,8.364 35.23,38.129 35.944,46.175l-3.059,2.7l2.244,4.563c62.558,43.138 115.19,84.928 197.564,68.723c0.338,-0.066 0.675,-0.134 1.012,-0.201c20.551,16.156 41.371,31.845 62.735,47.186Zm-160.759,-217.829c1.811,-2.495 3.799,-4.937 5.969,-7.318c14.233,-15.391 34.063,-24.411 55.022,-25.021c29.132,-0.733 45.064,11.01 64.73,30.134c18.304,32.335 26.166,75.584 -0.294,102.504l-125.427,-100.299Zm47.626,129.692c-21.218,-6.864 -41.95,-23.149 -53.232,-37.866c-1.305,-3.113 -2.491,-6.251 -3.548,-9.406c16.077,13.303 32.192,26.65 48.298,40.13c2.827,2.392 5.654,4.773 8.482,7.142Z" style="fill:#f8b422;"/><path d="M340.693,239.149c56.137,54.995 115.524,102.879 174.353,159.238c14.866,14.518 111.339,99.028 124.954,113.613c-34.975,-9.829 -103.933,-52.076 -103.933,-52.076c0,0 -150.678,-120.206 -207.76,-168.505c-81.391,-68.122 -163.042,-132.747 -238.845,-205.744c-28.669,-27.16 -62.226,-57.699 -89.462,-85.675c41.786,28.533 77.259,45.457 77.259,45.457c0,-0 47.441,37.13 96.632,74.928c43.944,-30.89 92.228,-52.798 143.805,-54.869c51.371,-2.062 62.431,6.744 100.428,32.206c32.821,21.993 65.213,27.425 96.922,58.273c-22.985,-4.312 -45.574,-17.056 -72.598,-21.815c-4.635,4.317 -2.686,1.708 -3.92,9.426c-72.18,-8.788 -56.384,-43.931 -148.839,-12.372c-20.389,5.646 -43.712,15.124 -66.529,26.716c19.681,14.852 36.713,27.45 47.282,34.751c13.322,-11.039 30.027,-17.405 47.518,-17.914c29.132,-0.733 45.064,11.01 64.73,30.134c-8.651,3.169 -26.514,8.314 -31.75,14.548l8.228,5.382l0.382,3.105l-18.857,11.193Zm-192.197,-32.752c-2.22,1.905 -4.356,3.811 -6.399,5.714l8.952,1.962l1.566,2.741c-10.336,13.241 -20.367,26.259 -31.327,38.995c7.236,8.364 35.23,38.129 35.944,46.175l-3.059,2.7c-17.54,0.911 -45.543,-10.65 -63.305,-16.724c5.773,12.094 24.483,46.744 24.66,57.499c-27.074,-23.886 -59.794,-61.843 -83.553,-88.908c23.204,-26.818 49.468,-56.094 78.372,-83.495c12.612,11.24 25.337,22.337 38.149,33.341Z" style="fill:#fefefe;"/></svg>