<?xml version="1.0" encoding="UTF-8" standalone="no"?><!DOCTYPE svg PUBLIC "-//W3C//DTD SVG 1.1//EN" "http://www.w3.org/Graphics/SVG/1.1/DTD/svg11.dtd"><svg width="100%" height="100%" viewBox="0 0 576 512" version="1.1" xmlns="http://www.w3.org/2000/svg" xmlns:xlink="http://www.w3.org/1999/xlink" xml:space="preserve" xmlns:serif="http://www.serif.com/" style="fill-rule:evenodd;clip-rule:evenodd;stroke-linejoin:round;stroke-miterlimit:2;"><path d="M0,256.551c70.75,-81.769 169.939,-186.386 285.721,-191.035c51.371,-2.062 62.431,6.744 100.428,32.206c32.821,21.993 65.213,27.425 96.922,58.273c30.721,32.539 63.719,66.388 92.929,100.028c-42.947,49.358 -65.5,52.486 -98.575,85.402c9.316,1.075 17.18,1.557 26.555,1.99c-12.23,27.821 -91.472,47.659 -113.1,63.592c7.267,0.414 12.599,0.815 19.807,1.816c-9.735,13.719 -63.874,32.183 -82.274,35.202c-20.567,3.278 -41.499,3.625 -62.162,1.029c-13.236,-1.666 -49.021,-12.654 -58.087,-7.745l-2.317,4.426c-30.207,-10.286 -40.926,-46.367 -58.77,-59.521l1.207,16.164c-10.195,1.111 -56.462,-43.566 -64.731,-52.919c-27.074,-23.886 -59.794,-61.843 -83.553,-88.908Zm257.714,-125.317c-47.856,13.251 -111.871,47.615 -147.592,80.877l8.952,1.962l1.566,2.741c-10.336,13.241 -20.367,26.259 -31.327,38.995c7.236,8.364 35.23,38.129 35.944,46.175l-3.059,2.7l2.244,4.563c62.558,43.138 115.19,84.928 197.564,68.723c75.089,-14.771 120.928,-62.066 161.807,-121.738c-52.773,-82.529 -125.025,-135.347 -226.099,-124.998Zm-38.326,167.718c-14.197,-33.863 -14.284,-70.768 11.575,-99.144c14.233,-15.391 34.063,-24.411 55.022,-25.021c29.132,-0.733 45.064,11.01 64.73,30.134c21.419,37.838 28.54,90.62 -16.902,114.694c-8.132,-4.845 -5.924,-4.317 -10.95,-14.448l-3.607,2.468l0.547,2.158c1.999,8.096 2.317,9.284 2.381,17.467c-28.827,31.44 -81.946,-1.111 -102.796,-28.308Z" style="fill:#f8b422;"/><path d="M219.388,298.952c-14.197,-33.863 -14.284,-70.768 11.575,-99.144c14.233,-15.391 34.063,-24.411 55.022,-25.021c29.132,-0.733 45.064,11.01 64.73,30.134c-8.651,3.169 -26.514,8.314 -31.75,14.548l8.228,5.382l0.382,3.105l-61.06,36.245l-9.293,-6.525c-16.697,3.893 -28.021,26.186 -37.834,41.276Zm-219.388,-42.401c70.75,-81.769 169.939,-186.386 285.721,-191.035c51.371,-2.062 62.431,6.744 100.428,32.206c32.821,21.993 65.213,27.425 96.922,58.273c-22.985,-4.312 -45.574,-17.056 -72.598,-21.815c-4.635,4.317 -2.686,1.708 -3.92,9.426c-72.18,-8.788 -56.384,-43.931 -148.839,-12.372c-47.856,13.251 -111.871,47.615 -147.592,80.877l8.952,1.962l1.566,2.741c-10.336,13.241 -20.367,26.259 -31.327,38.995c7.236,8.364 35.23,38.129 35.944,46.175l-3.059,2.7c-17.54,0.911 -45.543,-10.65 -63.305,-16.724c5.773,12.094 24.483,46.744 24.66,57.499c-27.074,-23.886 -59.794,-61.843 -83.553,-88.908Z" style="fill:#fefefe;"/></svg>