<?xml version="1.0" encoding="UTF-8" standalone="no"?><!DOCTYPE svg PUBLIC "-//W3C//DTD SVG 1.1//EN" "http://www.w3.org/Graphics/SVG/1.1/DTD/svg11.dtd"><svg width="100%" height="100%" viewBox="0 0 576 512" version="1.1" xmlns="http://www.w3.org/2000/svg" xmlns:xlink="http://www.w3.org/1999/xlink" xml:space="preserve" xmlns:serif="http://www.serif.com/" style="fill-rule:evenodd;clip-rule:evenodd;stroke-linejoin:round;stroke-miterlimit:2;"><path d="M449.534,223.056c58.57,-2.26 167.268,-23.846 110.556,63.492c-19.401,29.882 -40.841,81.537 -55.401,113.991l-62.462,-42.353c15.986,24.76 32.223,50.761 48.555,75.154l51.871,-37.828l-46.808,107.513c-51.725,-0.116 -399.992,3.957 -415.481,-6.911l0.236,-3.752c-10.135,0.427 -19.326,2.928 -25.413,-2.305l4.013,-7.96c9.211,-34.238 80.623,-226.507 97.347,-246.842c17.523,-21.305 247.455,-12.41 292.987,-12.199Zm-384.714,71.638l11.687,4.309l-1.954,4.686l-13.043,3.802c-17.909,31.746 -40.133,103.927 -55.793,142.202c-0.753,-27.432 -0.999,-54.874 -0.748,-82.311c-1.813,-24.424 -3.47,-48.862 -4.972,-73.306c13.103,-8.231 20.079,-13.902 35.688,-15.87c4.099,-3.842 7.901,-7.85 11.823,-11.873l-5.093,-0.311c0.231,-17.142 32.781,-78.63 42.203,-98.418c22.942,-3.957 33.514,-4.429 56.968,-4.816c-13.6,1.853 -21.752,0.166 -28.888,11.747c-21.059,34.192 -35.011,82.421 -47.878,120.159Zm433.546,-189.708c12.882,20.843 20.21,34.649 30.792,56.787c-101.963,0.482 -240.443,4.38 -340.633,-0.361c26.663,-6.62 59.564,-6.077 84.942,-12.767l-14.856,-9.537c7.317,-5.952 47.009,-6.565 59.148,-6.801c60.785,-1.175 122.052,-10.632 180.607,-27.321Z" style="fill:#f8b422;"/><path d="M42.415,266.022l-38.23,-20.15c1.191,-66.902 0.925,-134.809 1.196,-201.797c3.058,-4.123 13.952,-18.527 17.181,-20.757c33.107,-22.811 147.516,-13.043 187.639,-12.214c23.911,27.367 47.636,56.114 71.131,83.943c45.301,0.261 185.755,-9.116 217.034,9.939c-58.555,16.689 -119.822,26.146 -180.607,27.321c-12.139,0.236 -51.831,0.849 -59.148,6.801l14.856,9.537c-25.378,6.69 -58.279,6.147 -84.942,12.767l-46.939,1.376c-23.454,0.387 -34.026,0.859 -56.968,4.816c-9.422,19.788 -41.972,81.276 -42.203,98.418Zm16.785,216.075c9.211,-34.238 80.623,-226.507 97.347,-246.842c17.523,-21.305 247.455,-12.41 292.987,-12.199c-28.401,16.478 -102.38,20.852 -134.196,31.932c3.325,2.712 6.624,5.454 9.899,8.226c-4.244,4.425 -33.283,10.1 -38.813,9.457c-36.115,-4.204 -63.22,-1.813 -99.09,3.149c-22.731,40.003 -101.571,180.703 -128.134,206.277Z" style="fill:#fefefe;"/></svg>