<?xml version="1.0" encoding="UTF-8" standalone="no"?><!DOCTYPE svg PUBLIC "-//W3C//DTD SVG 1.1//EN" "http://www.w3.org/Graphics/SVG/1.1/DTD/svg11.dtd"><svg width="100%" height="100%" viewBox="0 0 512 512" version="1.1" xmlns="http://www.w3.org/2000/svg" xmlns:xlink="http://www.w3.org/1999/xlink" xml:space="preserve" xmlns:serif="http://www.serif.com/" style="fill-rule:evenodd;clip-rule:evenodd;stroke-linejoin:round;stroke-miterlimit:2;"><path d="M204.462,60.872c7.035,-18.305 10.93,-44.594 22.823,-54.623c16.109,-6.343 45.392,-6.684 61.925,-2.385c4.294,19.965 9.357,37.997 14.932,57.602c18.524,6.543 37.676,14.922 55.898,22.512c16.689,-13.729 38.889,-39.916 58.805,-28.68c12.745,17.482 32.448,34.789 48.411,49.915l-37.54,46.961c11.372,22.74 14.595,32.491 21.83,57.013c20.174,2.303 40.305,4.966 60.382,7.994c-0.034,25.904 0.54,54.55 -1.076,80.181c-78.595,5.19 -47.978,3.545 -80.712,66.731l38.216,45.208l-61.073,58.756l-44.22,-36.932c-20.758,8.617 -37.686,15.355 -58.99,22.375c-2.848,19.055 -5.34,38.163 -10.028,56.848c-24.917,-0.019 -52.428,0.565 -77.11,-0.36c-3.647,-17.122 -9.42,-46.089 6.84,-59.005c-23.845,0.643 -51.731,-10.267 -73.147,-19.911l-46.405,36.05c-20.355,-20.106 -39.186,-38.382 -60.495,-57.529c10.224,-12.41 28.251,-35.744 38.806,-46.503c-12.21,-22.229 -16.012,-32.16 -23.402,-56.346l-58.635,-10.516c-0.886,-24.312 -0.321,-50.952 -0.306,-75.454c22.049,-7.069 35.495,-8.944 58.59,-12.512c7.634,-23.534 12.006,-34.186 23.018,-56.347c-11.903,-15.233 -24.678,-30.5 -36.922,-45.524c19.43,-17.881 40.466,-39.419 59.535,-58.098l47.175,34.302c15.661,-7.483 36.396,-15.141 52.875,-21.723Zm28.85,302.695c37.949,34.751 138.475,-2.57 125.078,-70.036c15.272,-42.803 2.405,-90.585 -32.297,-119.922c-34.702,-29.332 -83.955,-34.059 -123.598,-11.859c-39.643,22.194 -61.361,66.662 -54.506,111.587c6.86,44.92 40.86,80.878 85.323,90.23Z" style="fill:#f8b422;"/><path d="M266.81,116.21l-0.364,3.55c-0.054,-1.439 0.071,-2.57 0.364,-3.55Zm0.11,-0.337c0.947,-2.701 3.25,-4.333 6.653,-8.576c-19.24,-10.204 -101.476,39.171 -124.269,48.908c-13.525,26.956 -28.32,54.695 -39.444,82.465c-2.21,5.52 9.498,38.849 2.717,44.594c-29.97,25.378 -29.025,37.934 -30.043,79.826c-12.21,-22.229 -16.012,-32.16 -23.402,-56.346l-58.635,-10.516c-0.886,-24.312 -0.321,-50.952 -0.306,-75.454c22.049,-7.069 35.495,-8.944 58.59,-12.512c7.634,-23.534 12.006,-34.186 23.018,-56.347c-11.903,-15.233 -24.678,-30.5 -36.922,-45.524c19.43,-17.881 40.466,-39.419 59.535,-58.098l47.175,34.302c15.661,-7.483 36.396,-15.141 52.875,-21.723c7.035,-18.305 10.93,-44.594 22.823,-54.623c16.109,-6.343 45.392,-6.684 61.925,-2.385c4.294,19.965 9.357,37.997 14.932,57.602c18.524,6.543 37.676,14.922 55.898,22.512c16.689,-13.729 38.889,-39.916 58.805,-28.68c-29.828,25.681 -108.175,57.111 -147.044,64.16l-4.881,-3.585Zm-0,-0c-0.039,0.11 -0.076,0.223 -0.11,0.337l0.04,-0.389l0.07,0.052Zm91.47,177.658c13.397,67.466 -87.129,104.787 -125.078,70.036c53.333,11.217 106.753,-18.694 125.078,-70.036Z" style="fill:#fefefe;"/></svg>