<?xml version="1.0" encoding="UTF-8" standalone="no"?><!DOCTYPE svg PUBLIC "-//W3C//DTD SVG 1.1//EN" "http://www.w3.org/Graphics/SVG/1.1/DTD/svg11.dtd"><svg width="100%" height="100%" viewBox="0 0 448 512" version="1.1" xmlns="http://www.w3.org/2000/svg" xmlns:xlink="http://www.w3.org/1999/xlink" xml:space="preserve" xmlns:serif="http://www.serif.com/" style="fill-rule:evenodd;clip-rule:evenodd;stroke-linejoin:round;stroke-miterlimit:2;"><path d="M371.682,287.249c22.239,-0.268 52.126,-1.491 73.681,0.515c0.272,54.594 2.068,109.276 2.636,163.386c0.234,22.404 -28.242,34.665 -45.685,32.771c-30.365,-3.306 -122.54,4.961 -146.622,-2.359c-0.652,-2.386 -1.82,-5.856 -1.951,-8.154c-0.089,-32.719 -10.503,-156.061 6.452,-173.917c20.444,-21.526 82.994,-12.922 111.489,-12.242Zm-181.082,-257.915c10.635,15.568 10.494,172.548 -12.44,194.244c-10.897,3.034 -171.22,2.246 -176.224,-0.413c4.141,-227.159 -41.665,-194.595 188.664,-193.831Zm-7.671,257.821l8.027,2.499c8.516,18.512 3.888,122.494 3.278,150.285c-29.709,24.71 -17.457,8.44 -45.356,22.047l-12.712,21.255c-20.509,0.197 -121.701,4.051 -132.471,-3.765l-1.065,-2.762c0.615,-219.296 -40.357,-191.181 180.299,-189.559Zm250.187,-257.356l8.862,1.195c8.168,15.947 3.868,120.492 3.962,145.69l-35.012,26.755l-23.454,-26.418c-0.985,16.055 -1.58,33.311 -4.394,49.018c-32.963,0.104 -93.572,2.021 -124.34,-1.251l-5.191,-5.505c-0.052,-216.919 -39.082,-192.298 179.567,-189.484Z" style="fill:#f8b422;"/><path d="M253.741,473.408c-0.089,-32.719 -10.503,-156.061 6.452,-173.917c20.444,-21.526 82.994,-12.922 111.489,-12.242c20.589,0.544 40.803,1.163 61.415,0.9c-33.376,12.608 -62.02,24.425 -94.336,39.579c-4.802,2.256 -30.131,5.374 -38.529,7.573c-12.285,45.271 -25.03,95.476 -46.491,138.107Zm-251.805,-250.243c4.141,-227.159 -41.665,-194.595 188.664,-193.831c-19.811,16.552 -54.012,29.4 -62.658,39.355c4.839,3.999 6.541,3.643 12.819,5.106c-2.025,17.382 -62.334,28.415 -79.73,32.405c-3.854,35.233 -1.219,59.892 -26.971,84.71c-10.953,10.503 -21.663,21.26 -32.124,32.255Zm0.694,253.549c0.615,-219.296 -40.357,-191.181 180.299,-189.559c-17.888,13.434 -60.267,21.911 -68.547,33.165l3.08,7.028c-21.128,13.922 -61.125,-8.322 -70.681,27.956c-3.802,14.432 1.576,36.315 -4.215,45.285l-9.153,0.024c-9.213,22.113 -19.449,57.81 -30.783,76.101Zm250.919,-257.431c-0.052,-216.919 -39.082,-192.298 179.567,-189.484c-30.933,18.727 -90.848,44.085 -128.331,50.565c-6.715,24.987 -5.58,68.036 -14.958,79.458l0.197,-5.453c-8.726,14.663 -30.506,55.888 -36.475,64.914Z" style="fill:#fefefe;"/></svg>