<?xml version="1.0" encoding="UTF-8" standalone="no"?><!DOCTYPE svg PUBLIC "-//W3C//DTD SVG 1.1//EN" "http://www.w3.org/Graphics/SVG/1.1/DTD/svg11.dtd"><svg width="100%" height="100%" viewBox="0 0 512 512" version="1.1" xmlns="http://www.w3.org/2000/svg" xmlns:xlink="http://www.w3.org/1999/xlink" xml:space="preserve" xmlns:serif="http://www.serif.com/" style="fill-rule:evenodd;clip-rule:evenodd;stroke-linejoin:round;stroke-miterlimit:2;"><g><path d="M124.427,123.847c9.339,-17.86 37.509,-42.764 53.897,-56.826c2.763,-5.125 44.467,-27.994 48.697,-24.532c24.517,20.065 35.143,-9.466 61.981,-11.797c28.511,-2.482 58.951,6.948 88.221,10.179l2.803,0.291c113.281,68.889 133.824,156.045 125.564,277.585c-1.914,28.124 -7.264,80.966 0.91,78.288l4.391,3.256c7.254,64.036 -21.096,89.914 -84.408,93.511c-12.409,0.709 -21.086,-0.703 -31.862,-7.365c-13.525,0.035 -29.742,0.432 -30.355,-15.489c-1.743,-45.256 -17.076,-143.168 16.921,-177.085c15.006,-14.971 43.02,-11.359 63.091,-10.671c10.209,-193.855 -174.463,-265.949 -319.851,-159.345Zm8.802,162.259c52.721,47.215 -2.678,145.61 10.263,159.019l9.225,2.014c7.124,53.355 -93.502,59.791 -136.341,17.509c24.678,-43.869 29.541,-79.901 45.949,-123.298c24.251,-17.986 48.291,-35.203 70.904,-55.244Z" style="fill:#f8b422;"/><path d="M364.266,465.924c-1.743,-45.256 -17.076,-138.144 16.921,-172.061c15.006,-14.971 43.02,-11.359 63.091,-10.671c-6.476,45.02 -37.881,99.068 -49.401,148.499c-5.225,10.852 -21.292,25.034 -30.611,34.233Zm-350.026,-148.799c-1.752,-67.765 -7.981,-101.183 21.945,-163.848c29.21,-60.795 81.605,-107.307 145.424,-129.096c68.251,-23.01 134.653,-14.389 198.417,16.981l-2.803,-0.291c-29.27,-3.231 -59.71,-12.661 -88.221,-10.179c-26.838,2.331 -37.464,31.862 -61.981,11.797c-4.23,-3.462 -45.934,19.407 -48.697,24.532c-16.388,14.062 -44.558,38.966 -53.897,56.826c-62.393,75.927 -49.612,61.121 -51.903,161.847c20.643,-2.296 40.071,-3.843 60.705,0.412c52.721,47.215 17.418,110.442 30.359,123.851l-10.871,62.302c-38.092,43.307 -93.502,34.671 -136.341,-7.611c-11.726,-24.728 -12.058,-72.516 -16.207,-101.067c-1.463,-10.074 6.878,-38.654 14.071,-46.456Z" style="fill:#fefefe;"/></g></svg>