<?xml version="1.0" encoding="UTF-8" standalone="no"?><!DOCTYPE svg PUBLIC "-//W3C//DTD SVG 1.1//EN" "http://www.w3.org/Graphics/SVG/1.1/DTD/svg11.dtd"><svg width="100%" height="100%" viewBox="0 0 448 512" version="1.1" xmlns="http://www.w3.org/2000/svg" xmlns:xlink="http://www.w3.org/1999/xlink" xml:space="preserve" xmlns:serif="http://www.serif.com/" style="fill-rule:evenodd;clip-rule:evenodd;stroke-linejoin:round;stroke-miterlimit:2;"><path d="M188.227,82.009c26.856,-27.989 30.131,-30.421 65.87,-43.738c0.205,52.515 -1.76,132.541 2.743,183.497c44.05,-0.212 240.922,-23.629 152.659,69.849c-29.271,-0.528 -72.911,-9.678 -86.626,-9.26l-1.924,6.718c-14.001,6.1 -47.12,3.623 -64.273,3.332c-0.164,27.54 -9.211,69.882 -8.515,81.791l5.936,-2.235c2.907,13.898 -0.082,44.532 -1.023,60.06c-24.236,30.397 -28.985,27.249 -64.969,42.015c-0.164,-52.593 1.023,-71.65 8.433,-122.577l-3.152,-1.924c1.596,-3.619 0.409,-2.158 3.479,-4.438c-5.158,11.119 -7.123,23.007 -9.579,34.941c-2.497,-31.256 -1.597,-56.29 -0.655,-87.768c-29.967,0.033 -147.665,3.198 -169.853,-6.955c-0.778,-12.535 -0.573,-29.124 -0.778,-42.007c8.638,-7.299 19.569,-14.197 29.066,-20.592l142.22,-0.884c-3.03,-37.688 0.409,-99.832 0.941,-139.825Z" style="fill:#f8b422;fill-rule:nonzero;"/><path d="M188.227,82.009c26.856,-27.989 30.131,-30.421 65.87,-43.738c-2.088,18.004 -11.34,69.05 -19.036,84.111c-4.995,-4.11 -3.889,-5.072 -6.182,-12.514c-8.761,9.207 -7.983,71.326 -11.299,87.329c-3.561,17.325 -8.351,34.462 -13.1,51.464c-23.581,3.459 -39.547,5.518 -63.7,5.514c-15.106,19.348 -18.136,26.909 -41.921,32.202l-5.895,-1.474c1.556,-6.054 1.842,-6.947 4.503,-12.596c-11.913,-4.319 -62.472,10.541 -80.689,13.01c-0.778,-12.535 -0.573,-29.124 -0.778,-42.007c8.638,-7.299 19.569,-14.197 29.066,-20.592l142.22,-0.884c-3.03,-37.688 0.409,-99.832 0.941,-139.825Z" style="fill:#fefefe;fill-rule:nonzero;"/></svg>