<?xml version="1.0" encoding="UTF-8" standalone="no"?><!DOCTYPE svg PUBLIC "-//W3C//DTD SVG 1.1//EN" "http://www.w3.org/Graphics/SVG/1.1/DTD/svg11.dtd"><svg width="100%" height="100%" viewBox="0 0 384 512" version="1.1" xmlns="http://www.w3.org/2000/svg" xmlns:xlink="http://www.w3.org/1999/xlink" xml:space="preserve" xmlns:serif="http://www.serif.com/" style="fill-rule:evenodd;clip-rule:evenodd;stroke-linejoin:round;stroke-miterlimit:2;"><g><path d="M0,445.787c0.543,-73.441 1.63,-147.66 2.58,-220.572c2.807,-24.358 -11.181,-152.006 7.469,-163.739c21.502,-13.557 74.464,-9.791 101.67,-9.615c49.567,0.322 103.298,-0.479 152.549,5.156l-1.223,0.53c38.794,4.291 71.069,4.4 109.954,4.73l7.333,2.096c6.337,23.426 -1.675,102.874 -1.313,133.266c0.453,33.076 1.992,61.246 4.572,94.829c-19.963,25.363 -40.197,50.532 -60.703,75.501l59.979,-39.708c0.226,17.681 4.481,108.328 -5.115,120.074c-13.445,16.441 -85.012,11.725 -108.596,11.964c-54.772,0.566 -111.99,-2.399 -166.853,-2.286c31.823,-19.654 66.633,-42.08 98.953,-60.29c-64.641,18.491 -128.92,38.318 -192.746,59.467c-7.786,-5.586 -4.889,-2.028 -8.51,-11.403Z" style="fill:#f8b422;fill-rule:nonzero;"/><path d="M0,445.787c0.543,-73.441 1.63,-147.66 2.58,-220.572c2.807,-24.358 -11.181,-152.006 7.469,-163.739c21.502,-13.557 74.464,-9.791 101.67,-9.615c49.567,0.322 103.298,-0.479 152.549,5.156l-1.223,0.53c38.794,4.291 71.069,4.4 109.954,4.73c-22.951,13.327 -130.369,41.813 -162.146,50.731l23.81,6.668c-10.728,9.37 -136.162,32.279 -156.125,35.91c-6.518,53.872 -15.889,107.585 -22.815,161.177c-7.242,55.95 -26.164,80.616 -49.657,130.079c-4.934,0.547 -3.033,1.294 -6.066,-1.055Z" style="fill:#fefefe;fill-rule:nonzero;"/></g></svg>