<?xml version="1.0" encoding="UTF-8" standalone="no"?><!DOCTYPE svg PUBLIC "-//W3C//DTD SVG 1.1//EN" "http://www.w3.org/Graphics/SVG/1.1/DTD/svg11.dtd"><svg width="100%" height="100%" viewBox="0 0 512 512" version="1.1" xmlns="http://www.w3.org/2000/svg" xmlns:xlink="http://www.w3.org/1999/xlink" xml:space="preserve" xmlns:serif="http://www.serif.com/" style="fill-rule:evenodd;clip-rule:evenodd;stroke-linejoin:round;stroke-miterlimit:2;"><path d="M279.603,47.844c45.779,73.382 85.609,150.658 130.797,224.085c8.734,14.19 39.071,47.864 52.024,62.829c-16.498,-7.067 -35.147,-14.543 -51.222,-22.13c20.337,34.235 99.195,132.068 100.798,166.699c-10.506,15.721 -26.244,11.439 -43.923,12.143c-85.946,3.426 -177.42,-5.873 -262.649,-2.152l42.277,-20.682c-48.901,10.801 -204.634,43.213 -245.729,15.181l-1.941,-1.283c17.805,-6.186 69.786,-35.379 83.963,-48.159c13.122,-0.059 26.286,0.224 39.408,0.844l2.405,2.835l-7.89,10.797c13.122,1.861 28.1,-15.185 40.505,-15.007c33.669,0.472 67.381,0.569 101.051,1.075c57.888,1.41 115.819,1.237 173.707,-0.523c-30.379,-52.774 -58.437,-107.46 -85.187,-162.159c-15.527,-31.762 -75.525,-129.434 -83.035,-154.353c4.051,-5.641 12.531,-58.614 14.641,-70.04Zm-39.07,254.983c0.633,-27.83 -8.059,-65.922 6.329,-85.457c8.987,-6.654 15.653,-5.034 27.129,-4.73c10.844,19.4 14.008,95.769 -5.864,114.017c-10.169,3.895 -10.802,3.275 -21.814,0.22c-7.426,-8.359 -6.371,-9.987 -5.78,-24.05Zm15.147,50.64c12.615,-2.54 24.936,5.341 27.973,17.843c2.996,12.497 -4.388,25.142 -16.792,28.632c-8.397,2.375 -17.468,-0.051 -23.586,-6.325c-6.118,-6.274 -8.312,-15.392 -5.738,-23.763c2.574,-8.371 9.535,-14.662 18.143,-16.387Z" style="fill:#f8b422;"/><path d="M262.051,17.044c5.527,8.742 12.32,21.535 17.552,30.8c-2.11,11.426 -10.59,64.399 -14.641,70.04l-7.257,-2.696c-24.683,23.518 -67.382,116.81 -84.427,150.953l0.59,5.012l5.443,-0.295c-13.544,24.45 -29.577,46.272 -44.766,69.672c-11.434,17.578 -30.843,31.725 -44.724,48.623l13.121,-2.034c4.642,12.038 -12.404,35.957 -18.944,47.256c-14.177,12.78 -66.158,41.973 -83.963,48.159c13.206,-27.442 68.9,-108.802 74.006,-128.814l-13.924,5.16l-2.532,-1.937c5.823,-13.653 37.763,-50.876 49.366,-71.364c50.715,-89.626 101.557,-180.61 155.1,-268.535Zm-21.518,285.783c0.633,-27.83 -8.059,-65.922 6.329,-85.457c8.987,-6.654 15.653,-5.034 27.129,-4.73c-9.873,19.265 -27.003,81.086 -33.458,90.187Z" style="fill:#fefefe;"/></svg>