<?xml version="1.0" encoding="UTF-8" standalone="no"?><!DOCTYPE svg PUBLIC "-//W3C//DTD SVG 1.1//EN" "http://www.w3.org/Graphics/SVG/1.1/DTD/svg11.dtd"><svg width="100%" height="100%" viewBox="0 0 512 512" version="1.1" xmlns="http://www.w3.org/2000/svg" xmlns:xlink="http://www.w3.org/1999/xlink" xml:space="preserve" xmlns:serif="http://www.serif.com/" style="fill-rule:evenodd;clip-rule:evenodd;stroke-linejoin:round;stroke-miterlimit:2;"><path d="M182.274,468.774c-0.351,-28.672 8.086,-59.83 6.358,-82.092c-2.759,3.775 -5.214,6.869 -8.184,10.484c-6.121,-29.167 -5.188,-186.796 8.87,-214.04c17.693,-11.169 285.261,-7.477 319.291,-2.233c2.96,27.234 -11.572,68.999 -6.421,84.676l6.658,-6.163c3.589,32.401 2.29,73.165 2.331,100.228c0.247,157.119 13.939,154.515 -144.768,145.867c-26.883,-1.47 -162.771,17.605 -186.796,-3.522c-0.186,-14.331 0.252,-19.06 2.661,-33.205Zm51.749,-234.193l-0.898,23.912l1.496,194.32l219.243,0.305c-0.774,-73.011 1.536,-144.887 -0.021,-218.274c-73.268,-0.742 -146.547,-0.83 -219.82,-0.263Zm-171.512,-107.602c1.8,69.369 3.95,137.589 1.31,206.995l73.031,-0.402l0.078,61.242c-41.565,0.016 -91.813,1.248 -132.5,-2.011l1.134,-44.684c21.112,-28.739 10.67,-70.922 19.323,-93.89c19.013,-50.47 29.765,-74.285 37.624,-127.25Zm310.736,-122.14l10.891,-0.258c5.631,10.231 -3.589,29.822 -2.934,46.649c1.433,37.103 7.684,45.205 6.487,85.871l-60.639,-0.134c-0.031,-24.758 0.196,-49.949 -0.16,-74.66c-56.653,-0.057 -137.703,2.418 -192.34,-0.588c38.305,-9.814 211.126,-42.895 238.695,-56.88Z" style="fill:#f8b422;"/><path d="M182.274,468.774c-0.351,-28.672 8.086,-59.83 6.358,-82.092c-2.759,3.775 -5.214,6.869 -8.184,10.484c-6.121,-29.167 -5.188,-186.796 8.87,-214.04c17.693,-11.169 285.261,-7.477 319.291,-2.233c-13.094,7.127 -21.845,8.349 -35.913,11.412c-79.6,17.333 -158.675,28.724 -238.673,42.276l-0.898,23.912c-15.068,49.614 -25.408,102.884 -38.006,153.293c-4.692,18.781 -5.75,40.089 -12.845,56.988Zm-176.71,-120.655c-0.129,-23.659 -0.17,-44.905 2.486,-68.611c1.918,-17.116 16.811,-41.853 14.104,-51.559l-21.38,25.135c-0.186,-39.208 -3.074,-232.424 11.876,-240.36c41.229,-21.891 315.371,-9.174 360.597,-7.885c-27.569,13.985 -200.39,47.066 -238.695,56.88l-71.04,0.856l-1.001,64.404c-7.859,52.965 -18.611,76.78 -37.624,127.25c-8.653,22.968 1.789,65.151 -19.323,93.89Z" style="fill:#fefefe;"/></svg>