<?xml version="1.0" encoding="UTF-8" standalone="no"?><!DOCTYPE svg PUBLIC "-//W3C//DTD SVG 1.1//EN" "http://www.w3.org/Graphics/SVG/1.1/DTD/svg11.dtd"><svg width="100%" height="100%" viewBox="0 0 512 512" version="1.1" xmlns="http://www.w3.org/2000/svg" xmlns:xlink="http://www.w3.org/1999/xlink" xml:space="preserve" xmlns:serif="http://www.serif.com/" style="fill-rule:evenodd;clip-rule:evenodd;stroke-linejoin:round;stroke-miterlimit:2;"><path d="M25.952,12.837c70.475,-0.223 201.769,-3.917 268.827,4.304l-6.29,0.961c36.946,5.993 59.778,5.23 97.368,4.933c28.081,-1.134 62.205,-1.238 89.246,-7.038c-4.853,119.378 -5.101,264.736 -3.962,384.986l40.859,-22.822c-17.879,41.904 -34.817,96.036 -70.971,121.255l-258.427,0.302c-28.576,0.044 -105.787,1.857 -130.897,-2.001c3.021,-7.147 11.49,-11.317 18.771,-16.552c-19.068,0.684 -50.715,9.628 -70.278,14.417c1.04,-9.796 5.25,-53.354 7.479,-59.654c5.249,-73.531 0.693,-93.817 37.986,-157.498l-45.663,49.616c3.219,-94.858 1.585,-194.385 1.387,-289.624c5.992,-8.107 17.086,-18.25 24.565,-25.585Zm48.436,73.457c-1.684,50.923 -2.377,91.014 1.337,141.838c-3.615,39.596 0.396,151.327 0,200.006c33.876,5.665 77.954,1.629 113.91,1.411l209.693,-1.055c0.991,-25.991 -4.209,-162.088 5.25,-173.271l10.549,7.196c8.42,-22.267 -21.742,-55.296 -20.306,-64.939c5.646,-38.274 8.568,-72.214 7.33,-111.473c-51.358,-1.065 -132.086,2.64 -179.086,-1.778c-51.012,-0.381 -97.665,-0.792 -148.677,2.065Z" style="fill:#f8b422;"/><path d="M25.952,12.837c70.475,-0.223 201.769,-3.917 268.827,4.304l-6.29,0.961c36.946,5.993 59.778,5.23 97.368,4.933c8.865,0.401 31.004,0.748 38.432,2.966c-72.852,18.79 -128.866,35.619 -201.224,58.228c-51.012,-0.381 -97.665,-0.792 -148.677,2.065c-1.684,50.923 -2.377,91.014 1.337,141.838l-1.535,4.319c-6.191,17.482 -32.687,70.797 -34.371,79.073c-10.301,50.016 -11.143,75.007 -28.676,125.419l-3.466,-1.015c5.249,-73.531 0.693,-93.817 37.986,-157.498l-45.663,49.616c3.219,-94.858 1.585,-194.385 1.387,-289.624c5.992,-8.107 17.086,-18.25 24.565,-25.585Z" style="fill:#fefefe;fill-rule:nonzero;"/></svg>