<?xml version="1.0" encoding="UTF-8" standalone="no"?><!DOCTYPE svg PUBLIC "-//W3C//DTD SVG 1.1//EN" "http://www.w3.org/Graphics/SVG/1.1/DTD/svg11.dtd"><svg width="100%" height="100%" viewBox="0 0 320 512" version="1.1" xmlns="http://www.w3.org/2000/svg" xmlns:xlink="http://www.w3.org/1999/xlink" xml:space="preserve" xmlns:serif="http://www.serif.com/" style="fill-rule:evenodd;clip-rule:evenodd;stroke-linejoin:round;stroke-miterlimit:2;"><path d="M272.115,91.439c7.723,7.228 16.419,16.617 23.925,24.303c7.794,7.852 16.021,16.48 23.96,23.993c-48.787,30.181 -56.689,65.584 -88.227,85.68l6.351,-10.53c-15.95,11.879 -20.208,20.673 -30.42,37.842c7.506,7.693 16.743,16.693 23.239,25.097c26.414,33.978 58.71,58.782 88.119,90.822c-5.16,6.142 -12.413,16.722 -19.414,18.645l-3.572,-4.005c-12.558,12.972 -6.604,29.993 -22.806,31.274c-10.176,-8.588 -67.839,-62.304 -69.319,-70.625l4.114,-8.072l-2.021,-5.954l-3.536,-1.083l-6.964,4.886c-10.754,-6.571 -26.487,-22.343 -36.266,-31.484c-41.858,36.269 -69.499,75.255 -114.785,113.772c-11.042,-10.219 -38.359,-34.504 -42.941,-46.917l2.814,-3.641c20.821,-24.812 87.073,-97.538 108.868,-111.813c-13.604,-14.058 -27.28,-28.012 -41.1,-41.855c-25.801,-25.53 -48.751,-44.55 -72.134,-72.79c14.759,-16.245 30.131,-31.895 46.08,-46.91c15.012,14.243 36.807,33.642 48.931,49.844c18.512,24.714 37.925,34.602 59.107,56.083l5.16,4.395c30.889,-35.305 77.438,-76.644 112.837,-110.957Z" style="fill:#f8b422;fill-rule:nonzero;"/><path d="M0,138.984c14.759,-16.245 30.131,-31.895 46.08,-46.91c15.012,14.243 36.807,33.642 48.931,49.844c18.512,24.714 37.925,34.602 59.107,56.083c-33.775,-3.987 -63.617,-24.426 -96.996,-34.62c6.856,18.36 11.006,28.933 15.012,48.393c-25.801,-25.53 -48.751,-44.55 -72.134,-72.79Z" style="fill:#fefefe;fill-rule:nonzero;"/><path d="M272.115,91.439c7.723,7.228 16.419,16.617 23.925,24.303c-28.399,20.705 -53.658,46.438 -80.902,67.406c-18.981,14.622 -50.627,33.613 -71.593,46.813l15.733,-27.565c30.889,-35.305 77.438,-76.644 112.837,-110.957Z" style="fill:#fefefe;fill-rule:nonzero;"/><path d="M113.234,253.629c-2.021,13.319 -42.183,79.867 -57.988,87.964c-9.563,4.911 -39.549,23.531 -50.88,23.849c20.821,-24.812 87.073,-97.538 108.868,-111.813Z" style="fill:#fefefe;fill-rule:nonzero;"/></svg>